<svg class="fill-current" transform="scale(1)" version="1.1" id="CA03V10TCM" xmlns="http://www.w3.org/2000/svg" xmlns:xlink="http://www.w3.org/1999/xlink" x="0px" y="0px" viewBox="0 0 500 500" xml:space="preserve" class="pbimage_pbimage__wrapper__image__0LEis false"><title>Being Broke</title><style type="text/css"> .st0{fill:#128FFF;} .st1{fill:#FFFFFF;} .st2{fill:#111111;}
 .st2{fill:#111111;}
 .st1{fill:#FFFFFF;}
 .st0{fill:#128FFF;}</style><g id="character-3"><path class="st0" d="M175.4,306.8c-9.5,10.2-15.8,23.9-15.1,37.8c0.5,10.5,4.8,20.4,9.4,29.8c13.1,27.5,29,54,50.4,75.6l6.6-3.5
		c-16-29.8-26.6-62.4-32.3-95.8c-1.1-6.3-2-12.8-1-19.2s3.9-12.7,9.2-16.3c5-3.4,11.3-4.1,17.3-4.5c15.9-1,31.9-0.5,47.7,1.5
		c11.7,1.5,24.4,4.4,31.5,13.8c7,9.2,6.6,22,5,33.4c-4.4,30.7-15.4,60-26.4,89.1l9.9,6.8c14.1-33.8,28.4-68,35.4-104
		c1.9-9.8,3.2-20.1-0.4-29.4c-3.4-8.8-10.9-15.5-18.7-20.8c-28.5-19.2-70.2-27.5-102.2-12.7C191.8,293.1,182.7,299,175.4,306.8z" fill="#128FFF"></path><path class="st1" d="M280,154c-2.6,4.5-5.8,9.4-10.9,10.3c-3.5,0.6-7.2-1-9.7-3.5c-2.4-2.6-4.3-5.7-5.5-9.1
		c-5.5-13.5-7.1-28.4-5.8-42.9s5.4-28.6,11.1-42c2.1-5.1,5-10.6,10.1-12.6s11.1,0.1,16,2.7c8.3,4.3,16,9.8,22.7,16.3
		c3,2.7,5.5,5.9,7.3,9.5c2.5,5.4,1.6,9-1.7,13.3c-4.4,5.6-7.5,12.4-11,18.6L280,154z" fill="#FFFFFF"></path><path class="st2" d="M267.6,165.1c-3.3-0.1-6.4-1.5-8.7-3.9c-2.5-2.7-4.5-5.9-5.7-9.4c-5.2-12.8-7.2-27.8-5.8-43.2
		c1.2-13.3,4.9-27.6,11.2-42.3c2.3-5.5,5.2-10.9,10.6-13c5.8-2.3,12.3,0.5,16.6,2.7c8.4,4.3,16.1,9.9,22.9,16.5c3,2.8,5.6,6,7.4,9.7
		c2.5,5.4,2,9.2-1.8,14.1c-3,4.1-5.7,8.5-8,13c-1,1.8-2,3.7-3,5.5l-22.6,39.5l0,0c-2.7,4.7-6,9.8-11.4,10.7
		C268.7,165.1,268.1,165.1,267.6,165.1z M273.8,54c-1.4,0-2.8,0.2-4.2,0.8c-4.8,1.9-7.5,7-9.7,12.2c-6.2,14.6-9.9,28.7-11.1,41.8
		c-1.4,15.2,0.6,29.9,5.7,42.5c1.2,3,2.8,6.3,5.4,8.9c2.3,2.5,5.7,3.7,9,3.3c4.8-0.8,7.9-5.6,10.4-9.9l22.7-39.5c1-1.8,2-3.6,3-5.4
		c2.3-4.6,5-9.1,8-13.2c3.4-4.4,3.9-7.7,1.6-12.5c-1.7-3.7-4.6-6.8-7.1-9.3c-6.7-6.5-14.2-11.9-22.5-16.2
		C282,55.8,277.8,54,273.8,54z M280,154L280,154z" fill="#111111"></path><path class="st2" d="M344.1,67.3c1.6,4.1,1.1,8.8-1.4,12.4c4.8,2.4,6.8,8.3,4.4,13.1c-1.5,3.1-4.6,5.2-8.1,5.4
		c2.6,4.2,1.2,9.7-3,12.2c-2.9,1.8-6.5,1.7-9.4-0.1c-4.9,3.2-12.6-0.1-13.7-5.8c-3.4,2.3-8,1.4-10.3-2c-0.9-1.3-1.3-2.9-1.2-4.4
		c-5.6-0.3-9.8-5.2-9.5-10.8c0.1-1.3,0.4-2.6,1-3.9c-5.1,0.8-10.2-4.2-9.6-9.2c-3.7,1.7-8.2,0.7-10.8-2.5c-0.9,4.2-5,7-9.3,6.1
		c-0.2,0-0.3-0.1-0.5-0.1c1.3,3.3-0.4,7.1-3.8,8.3c-1.6,0.6-3.5,0.5-5-0.2c1.4,6.1-0.4,12.4-4.7,16.9c1.8,2.3,2.4,5.3,1.7,8.2
		c-0.7,2.9-3.1,5-6,5.6c-3.2,0.5-6.2-1.4-8.9-3.2c-3.5-2.3-7.1-4.8-9.5-8.2c-3.4-5-4.1-11.4-1.6-17c-6-6.7-5.5-17.1,1.2-23.1
		c0.7-0.7,1.5-1.3,2.4-1.8c-2.1-8.8,5-18.6,14.1-19.5c-1.3-7.3,3.6-14.3,11-15.6c3.6-0.6,7.2,0.2,10.2,2.3c3.1-4.6,9.4-5.9,14-2.8
		c1.7,1.1,3,2.8,3.8,4.7c1.8-5.4,7.6-8.3,13-6.4c1.4,0.5,2.7,1.2,3.7,2.2c4.5-2.4,10-2.5,14.6-0.2c4.7,2.4,7.3,6.8,8.5,11.8
		c10.9-3.4,24.2,11.5,13.2,19.7C338.8,60.4,342.3,63.3,344.1,67.3z" fill="#111111"></path><path class="st2" d="M258,135.4c2.6,3.5,4.3,7.7,4.8,12.1c3.4-0.8,5.4-4.2,4.6-7.6c-0.8-3.4-4.2-5.4-7.6-4.6
		c-0.2,0-0.4,0.1-0.6,0.2" fill="#111111"></path><path class="st2" d="M278.8,108.5c1.3-0.7,2.6-2.2,2-3.6c-0.6-1-1.8-1.5-2.9-1.2c-1.1,0.3-2,0.9-2.9,1.7c-0.6,0.4-1.1,0.9-1.5,1.5
		c-0.4,0.6-0.5,1.3-0.2,2c0.5,0.8,1.4,1.1,2.3,0.9c0.8-0.2,1.6-0.6,2.3-1.2" fill="#111111"></path><path class="st2" d="M294.9,116.4c1.1-0.3,1.7-1.4,1.3-2.5c-0.1-0.2-0.2-0.4-0.3-0.6c-0.8-0.7-1.9-0.9-2.8-0.5
		c-0.9,0.4-1.7,1.1-2.4,1.8c-0.6,0.5-1.1,1.2-1.4,1.9c-0.3,0.8,0,1.6,0.6,2.1c0.8,0.3,1.8,0.1,2.4-0.5c0.6-0.6,1.4-1,2.2-1.2" fill="#111111"></path><path class="st2" d="M299.5,125.7c-0.4,0-0.8,0-1.2-0.1c-3-0.7-5.9-1.7-8.6-3c-1.5-0.5-2.6-1.6-3.3-3c-1.1-2.9,1.8-8.7,4.8-9.9
		c2.6-1,6.4,1.5,9.2,3.4c0.9,0.6,1.7,1.1,2.2,1.4c1.4,0.5,2.4,1.6,3,2.9c0.4,1.7,0,3.5-1.1,4.9c-0.5,0.7-1.1,1.4-1.7,2
		C302,125.1,300.8,125.7,299.5,125.7z M292.5,110.4c-0.3,0-0.7,0-1,0.2c-2.6,1-5.1,6.3-4.2,8.7c0.6,1.1,1.6,2,2.8,2.4
		c2.7,1.3,5.5,2.3,8.4,3c1.3,0.3,2.7-0.1,3.6-1c0.6-0.6,1.1-1.2,1.6-1.9c0.9-1.2,1.2-2.6,1-4.1c-0.4-1.1-1.4-1.7-2.5-2.3l0,0
		c-0.6-0.3-1.4-0.9-2.3-1.5C297.6,112.3,294.6,110.3,292.5,110.4L292.5,110.4z" fill="#111111"></path><path class="st2" d="M280.1,114.8c-0.4,0-0.8,0-1.2-0.1c-3-0.7-5.9-1.7-8.6-3c-1.5-0.5-2.6-1.6-3.3-3c-1.1-2.9,1.8-8.7,4.8-9.9
		c2.6-1,6.4,1.5,9.2,3.4c0.9,0.6,1.7,1.1,2.2,1.4l0,0c1.3,0.5,2.4,1.6,3,2.9c0.4,1.7,0,3.5-1.1,4.9c-0.5,0.7-1.1,1.4-1.7,2
		C282.6,114.3,281.4,114.8,280.1,114.8z M273.1,99.5c-0.3,0-0.7,0-1,0.2c-2.6,1-5.1,6.3-4.3,8.7c0.6,1.1,1.6,2,2.8,2.4
		c2.7,1.3,5.5,2.3,8.4,2.9c1.3,0.3,2.7-0.1,3.6-1c0.6-0.6,1.1-1.2,1.6-1.9c0.9-1.2,1.2-2.6,1-4.1c-0.4-1.1-1.4-1.7-2.5-2.3l0,0
		c-0.6-0.3-1.4-0.9-2.3-1.5C278.2,101.4,275.3,99.5,273.1,99.5L273.1,99.5z" fill="#111111"></path><path class="st2" d="M288.3,113.7c-0.1,0-0.2,0-0.3-0.1l-3.2-2.1c-0.2-0.1-0.3-0.5-0.1-0.7c0.1-0.2,0.4-0.3,0.7-0.2c0,0,0,0,0,0
		l3.2,2.1c0.2,0.1,0.3,0.5,0.1,0.7C288.6,113.6,288.4,113.7,288.3,113.7z" fill="#111111"></path><path class="st2" d="M268.6,102.8c-0.1,0-0.2,0-0.2-0.1c-4.9-2.9-10-5.3-15.4-7.2c-0.3-0.1-0.4-0.4-0.3-0.6
		c0.1-0.3,0.4-0.4,0.6-0.3c0,0,0,0,0,0c5.4,1.9,10.6,4.4,15.6,7.3c0.2,0.1,0.3,0.4,0.2,0.7c0,0,0,0,0,0
		C269,102.7,268.8,102.8,268.6,102.8z" fill="#111111"></path><path class="st1" d="M254.8,97.8c-1.1-2.6-3.6-4.4-6.4-4.5c-2.8-0.1-5.5,0.8-7.7,2.5c-2.4,1.7-4.6,4.4-4.2,7.4
		c0.3,2.4,2.3,4.3,4.3,5.7c3.2,2.3,7.7,4,11.2,2" fill="#FFFFFF"></path><path class="st2" d="M248.6,112.7c-3.4,0-6.7-2-8.2-3.1c-1.8-1.3-4.2-3.3-4.6-6.2s1.3-5.8,4.5-8.1c2.4-1.8,5.2-2.7,8.2-2.7
		c3.1,0.1,5.9,2.1,7.1,5c0.2,0.4,0,0.8-0.4,1c0,0,0,0,0,0c-0.4,0.2-0.8,0-1-0.4c0,0,0,0,0-0.1c-0.9-2.3-3.2-3.9-5.7-4
		c-2.6,0-5.2,0.8-7.2,2.4c-1,0.7-4.4,3.3-3.9,6.7c0.2,1.8,1.5,3.4,4,5.2c1.9,1.3,6.6,4.2,10.4,2c0.4-0.2,0.8-0.1,1,0.3
		c0.2,0.4,0.1,0.8-0.3,1C251.2,112.3,249.9,112.7,248.6,112.7z" fill="#111111"></path><path class="st1" d="M183.3,167.9c-18.3,2.2-37.1,9.6-47.7,24.7c-8.8,12.5-10.8,28.7-8.8,43.8s7.7,29.4,13.4,43.6
		c4.7,1.8,10.2-1.5,12.5-6s2.1-9.9,1.6-14.9c-1.3-13.7-4.5-27.9,0-40.9c5.2-15,19.8-25,34.9-30.2c15.6-5.4,33.1-5.3,48.4-11.4
		c6.4-2.5,6.9-6.4,0.1-8.1c-7.3-1.8-15.7-1-23.1-1.3C204.2,166.8,193.7,166.7,183.3,167.9z" fill="#FFFFFF"></path><path class="st2" d="M143,281.3c-1,0-2.1-0.2-3.1-0.6c-0.2-0.1-0.3-0.2-0.4-0.4c-5.6-14-11.4-28.5-13.4-43.8
		c-2.3-17.1,0.9-32.9,8.9-44.3c12.8-18.3,35.8-23.5,48.3-25l0,0c10.6-1.3,21.3-1.1,31.4-0.8c2.1,0.1,4.1,0.1,6.4,0
		c5.7,0,11.6-0.1,16.9,1.2c4.6,1.1,5.4,3.1,5.4,4.2c0.1,2-1.9,3.9-5.5,5.4c-8.1,3.2-17.1,4.8-25.7,6.2c-7.6,1.3-15.4,2.6-22.7,5.2
		c-17.4,6-30,16.9-34.4,29.8c-3.6,10.3-2.2,21.7-0.9,32.6c0.3,2.6,0.6,5.3,0.9,7.9c0.5,5.2,0.6,10.7-1.7,15.4
		C151.5,278.1,147.3,281.3,143,281.3z M140.8,279.4c4.3,1.4,9.3-1.8,11.3-5.8c2.2-4.3,2-9.5,1.5-14.5c-0.2-2.6-0.6-5.3-0.9-7.9
		c-1.4-11.1-2.8-22.6,1-33.3c4.6-13.3,17.5-24.5,35.4-30.7c7.4-2.6,15.3-3.9,23-5.2c8.5-1.5,17.4-3,25.4-6.2
		c3.4-1.4,4.6-2.9,4.5-3.9s-1.7-2.2-4.3-2.8c-5.2-1.3-10.9-1.2-16.5-1.2c-2.1,0-4.3,0-6.4,0c-10-0.3-20.6-0.5-31.1,0.8l0,0
		c-12.3,1.5-34.7,6.6-47.2,24.4c-7.8,11.1-10.9,26.5-8.7,43.2C129.5,251.3,135.2,265.6,140.8,279.4L140.8,279.4z M183.4,167.9
		L183.4,167.9z" fill="#111111"></path><path class="st1" d="M125.1,266.5c-6.5-0.2-13.5,2.5-16.5,8.2c-2.2,4.3-1.8,9.5-0.9,14.3c1.6,8,4.5,15.7,8.6,22.7
		c3.7,6.3,8.5,12.2,15,15.4c6.5,3.2,15,3.2,20.6-1.4s6.8-14.3,1.4-19.2c-2.4-2.2-5.6-3.2-8.2-5.1c-3.9-2.9-6-8.6-3.6-12.9
		s9.7-5,11.9-0.6c0.7,1.4,0.8,3.1,1.4,4.6s1.8,3,3.4,2.8c2.5-0.2,3-3.7,2.4-6.2c-1.7-7-6.9-15.2-13.9-18c-2.5-1-5.3-0.9-7.9-1.5
		C134.2,268.7,130,266.7,125.1,266.5z" fill="#FFFFFF"></path><path class="st2" d="M141,330.2c-3.5,0-6.9-0.8-10-2.4c-5.8-2.9-10.8-8-15.3-15.7c-4.2-7.1-7.1-14.9-8.7-23c-0.9-4.4-1.5-10,1-14.8
		c2.9-5.5,9.6-9,17.2-8.6c3.1,0.2,6.2,0.9,9.1,1.9c1.5,0.5,3.1,1,4.7,1.3c1,0.2,2,0.4,3,0.5c1.7,0.1,3.4,0.4,5,1
		c7.5,3,12.7,11.7,14.3,18.5c0.4,1.8,0.4,4.2-0.7,5.8c-0.5,0.8-1.4,1.3-2.3,1.3c-2,0.2-3.6-1.5-4.2-3.3c-0.2-0.7-0.4-1.3-0.6-2
		c-0.2-0.9-0.4-1.7-0.8-2.5c-0.9-1.6-2.7-2.6-4.6-2.5c-2.4-0.1-4.7,1.1-6,3.2c-2.3,4.1,0,9.4,3.4,12c1.1,0.8,2.3,1.5,3.6,2.2
		c1.7,0.8,3.3,1.8,4.7,3c2.5,2.4,3.9,5.8,3.7,9.3c-0.1,4.2-2,8.2-5.2,11C149.2,328.9,145.1,330.3,141,330.2z M124.3,267.2
		c-5.6,0-12.2,2.4-15,7.9c-2.3,4.4-1.6,9.7-0.8,13.9c1.6,7.9,4.4,15.5,8.5,22.5c4.3,7.4,9.2,12.3,14.7,15.1
		c6.8,3.4,14.8,2.8,19.8-1.3c2.9-2.5,4.6-6.1,4.6-9.9c0.2-3.1-1-6.1-3.2-8.2c-1.3-1.1-2.8-2.1-4.4-2.8c-1.3-0.7-2.6-1.4-3.8-2.3
		c-4-3-6.5-9-3.9-13.9c1.5-2.5,4.3-4,7.2-3.9h0.2c2.4-0.1,4.7,1.2,5.9,3.4c0.4,0.9,0.7,1.9,0.9,2.8c0.1,0.6,0.3,1.2,0.5,1.9
		c0.4,1.2,1.4,2.5,2.7,2.4c0.5,0,1-0.3,1.2-0.7c0.7-1.4,0.9-3,0.5-4.5c-1.6-6.6-6.7-14.8-13.4-17.5c-1.5-0.5-3-0.8-4.6-1
		c-1.1-0.1-2.1-0.3-3.2-0.5c-1.7-0.4-3.3-0.9-4.9-1.4c-2.8-1-5.8-1.6-8.8-1.9l0,0L124.3,267.2z" fill="#111111"></path><path class="st2" d="M140.9,319.5c-2.1,0-4.2-0.3-6.2-1c-6.9-2.3-12-8-13.7-15c-0.1-0.3,0.1-0.5,0.4-0.6c0.3-0.1,0.5,0.1,0.6,0.4
		c2.4,10.5,12.9,17.1,23.4,14.7c3.1-0.7,6.1-2.2,8.5-4.3c0.2-0.2,0.5-0.2,0.7,0c0.2,0.2,0.2,0.5,0,0.7c0,0,0,0,0,0
		C150.8,317.7,145.9,319.5,140.9,319.5z" fill="#111111"></path><path class="st1" d="M328.5,282.5c2.6-0.4,5.8-0.6,7.5,1.4c2.3,2.5,0.7,6.5-1.1,9.4c-4,6.5-8.9,12.3-14.5,17.5
		c-2.6,2.4-5.5,4.6-8.9,5.4c-5,1.1-10.1-1.3-14.4-4.1c-3-2-10.5-5.1-10.6-9.4c-0.1-4.5,7.6-7.5,10.9-9.4
		C307.1,288,317.6,284.3,328.5,282.5z" fill="#FFFFFF"></path><path class="st2" d="M309.1,317.2c-3.6,0-7.7-1.5-12.3-4.5c-0.6-0.4-1.5-0.9-2.3-1.4c-3.6-2-8.6-4.8-8.6-8.6
		c-0.1-4.3,5.7-7.2,9.5-9.1l1.8-0.9c9.8-5.4,20.4-9.1,31.4-10.9c2.5-0.4,6.1-0.7,8.2,1.6c2.8,3.1,0.6,7.8-1,10.3
		c-4,6.5-9,12.4-14.6,17.6c-2.6,2.4-5.6,4.8-9.2,5.5C310.9,317.1,310,317.2,309.1,317.2z M331.5,283c-0.9,0-1.9,0.1-2.8,0.3l0,0
		c-10.8,1.8-21.3,5.4-30.9,10.7c-0.5,0.3-1.1,0.6-1.8,1c-3.5,1.8-8.7,4.4-8.7,7.7c0.1,2.9,4.6,5.5,7.9,7.3c0.9,0.5,1.8,1,2.4,1.4
		c5.5,3.6,9.9,4.9,13.9,4c3.3-0.7,6-2.9,8.5-5.2c5.6-5.1,10.4-10.9,14.4-17.3c1.3-2.2,3.3-6.1,1.1-8.5
		C334.4,283.4,333,282.9,331.5,283z M328.5,282.5L328.5,282.5z" fill="#111111"></path><path class="st1" d="M147,298.6c-1-2.1-1.6-5,0.3-6.2c1.3-0.8,3-0.3,4.5,0.2c10,3.5,20.6,4.8,31.2,3.9c2.3-0.3,4.7-0.3,7,0
		c2.3,0.5,4.5,2.1,5.1,4.3s-0.6,4.6-1.8,6.6c-5.2,8.7-12.4,23.1-23.7,16.3C159.8,317.7,152,309,147,298.6z" fill="#FFFFFF"></path><path class="st2" d="M175.4,326.3c-2.2,0-4.3-0.7-6.1-1.9c-9.9-6.1-17.9-14.9-22.9-25.4c-1.2-2.5-1.7-5.7,0.6-7.2
		c1.7-1.1,3.8-0.4,5.1,0.1c9.9,3.4,20.4,4.8,30.9,3.9l0.8-0.1c2.1-0.3,4.3-0.3,6.4,0.1c2.6,0.5,4.8,2.3,5.7,4.9
		c0.6,2.5-0.5,4.9-1.9,7.2c-0.4,0.6-0.8,1.3-1.2,2c-3.8,6.5-8.5,14.5-15,16.1C177,326.2,176.2,326.3,175.4,326.3z M148.9,292.7
		c-0.4,0-0.8,0.1-1.2,0.3c-1.4,0.9-0.9,3.4,0,5.3l0,0c4.9,10.3,12.6,18.9,22.3,24.8c2.2,1.5,4.9,2,7.4,1.4
		c5.9-1.5,10.4-9.2,14.1-15.5l1.2-2c1.2-2,2.2-4.1,1.7-6c-0.5-2.2-2.8-3.4-4.5-3.8c-2-0.3-4-0.4-6-0.1l-0.8,0.1
		c-10.7,0.9-21.4-0.5-31.5-4C150.7,293,149.8,292.8,148.9,292.7z" fill="#111111"></path><path class="st2" d="M175.5,316.9c-9.2-2.6-17-8.7-21.6-17.1l0.9-0.5c4.5,8.1,12,14.1,21,16.6L175.5,316.9z" fill="#111111"></path><path class="st2" d="M179.8,309.1c-5.6,0-10.9-2.5-14.6-6.7l0.8-0.6c3.7,4.2,9.1,6.6,14.8,6.3l0.1,1L179.8,309.1z" fill="#111111"></path><path class="st2" d="M293.2,302.9l-0.1-1c11.9-0.9,23.3-5.6,32.4-13.4l0.6,0.8C316.9,297.2,305.4,302,293.2,302.9z" fill="#111111"></path><path class="st2" d="M305.6,309.4l-0.4-0.9c4.3-1.6,8.3-4,11.7-7l0.7,0.8C314.1,305.3,310,307.8,305.6,309.4z" fill="#111111"></path><path class="st1" d="M294.6,172.8c13.6,1.1,27.7,3.8,38.4,12.2c11.5,9.1,17.4,24,18.7,38.7s-1.5,29.4-4.6,43.8
		c-4.5,1.8-9.9-1.1-12.4-5.4s-3-9.3-3.5-14.1c-1.1-10.3-3-20.7-7.1-30.2s-10.8-18.2-19.9-23.4c-12.7-7.2-27.9-6.8-41.6-10.7
		c-2.4-0.7-15.9-4.7-15.1-8.3c0.7-2.9,12.6-2.5,14.8-2.6C273.2,171.9,284,171.9,294.6,172.8z" fill="#FFFFFF"></path><path class="st2" d="M344.3,268.7c-4.1,0-8.1-2.8-10.1-6.3c-2.5-4.1-3-9-3.5-13.7l-0.1-0.7c-0.9-8.6-2.6-19.7-7.1-30
		c-3.1-7.2-9.1-17.1-19.5-23c-7.9-4.5-17.1-6-25.9-7.5c-5.2-0.8-10.4-1.8-15.5-3.2c-14.5-4.2-16-7.6-15.6-9.2
		c0.6-2.5,5.7-3,13.6-3.1h1.8c10.7-0.8,21.5-0.7,32.3,0.1c12,1,27.2,3.2,38.8,12.4c10.6,8.4,17.6,22.7,19,39.2
		c1.3,14.8-1.6,29.9-4.6,44c0,0.2-0.2,0.4-0.5,0.5C346.4,268.6,345.4,268.7,344.3,268.7z M347.2,267.4L347.2,267.4z M278.1,172.9
		c-5.1,0-10.3,0.2-15.5,0.5c-0.4,0-1.1,0-1.9,0.1c-7.8,0.1-11.9,0.8-12.2,2c-0.4,1.7,5.7,4.8,14.6,7.4c5.1,1.3,10.2,2.4,15.4,3.2
		c9,1.5,18.2,3,26.4,7.6c10.8,6.1,16.9,16.3,20.2,23.7c4.6,10.5,6.2,21.8,7.2,30.5l0.1,0.7c0.5,4.6,1,9.2,3.3,13.1s6.9,6.6,11.1,5.2
		c3-13.9,5.8-28.6,4.5-43.1c-1.4-16.1-8.2-30-18.5-38.1c-11.2-8.9-26.2-11.1-38-12.1l0,0C289.2,173.1,283.7,172.9,278.1,172.9
		L278.1,172.9z" fill="#111111"></path><path class="st1" d="M320.1,258c-3.2,2.1-4.8,6.2-4.8,10s1.3,7.6,2.7,11.2c0.9,2.4,2,4.9,4.2,6.3s5.6,1,6.5-1.4
		c1.2-3.2-2.8-6.9-1.2-9.9s6.2-1.5,8.8,0.7c5.1,4.3,8.9,9.8,11.3,16c0.8,2.2,1.4,4.5,0.9,6.8s-2.8,4.2-5,3.8
		c-3.8-0.7-4.8-6.8-8.6-7.2c-3.5-0.4-5.2,4.4-4.8,8c1.6,11.8,12.5,20.1,24.3,18.5c7-0.9,13-5.2,16.3-11.4c4.9-9.4,2.2-21.3-4.2-29.7
		c-5.8-7.5-14.4-13.4-23-17.2C337.1,259.2,326.7,253.7,320.1,258z" fill="#FFFFFF"></path><path class="st2" d="M351.3,321.4c-1.2,0-2.4-0.1-3.6-0.3c-9.5-1.8-16.8-9.4-18.3-19c-0.4-2.7,0.3-5.4,2-7.5c0.9-1,2.2-1.5,3.5-1.3
		c2.3,0.2,3.6,2.1,4.9,3.9c1.1,1.6,2.2,3,3.8,3.3c1.9,0.3,3.7-1.4,4.2-3.2c0.6-2.1-0.1-4.5-0.8-6.3c-2.3-6.1-6.1-11.5-11.1-15.7
		c-1.6-1.3-4.1-2.5-5.9-2.1c-0.7,0.1-1.3,0.6-1.7,1.2c-0.7,1.3-0.1,2.8,0.6,4.4s1.4,3.6,0.7,5.4c-0.5,1.2-1.5,2.1-2.7,2.4
		c-1.7,0.5-3.5,0.3-5-0.6c-2.3-1.5-3.5-4.1-4.5-6.6c-1.4-3.4-2.8-7.4-2.8-11.5c0-4.5,2-8.6,5.1-10.7l0,0c6.2-4.1,15.5,0.1,22.2,3.2
		l1.9,0.9c9.7,4.4,18,10.6,23.3,17.5c6,7.8,9.6,20.3,4.3,30.5C367.3,316.7,359.7,321.3,351.3,321.4z M334.5,294.7
		c-0.8,0-1.5,0.3-2,0.9c-1.4,1.8-2,4-1.6,6.2c1.6,11.4,12.1,19.4,23.5,17.8c6.7-0.9,12.5-5,15.6-11c5-9.6,1.5-21.4-4.2-28.9
		c-5.1-6.7-13.2-12.7-22.7-17l-1.9-0.9c-6.4-3-15.2-7-20.7-3.3l0,0c-2.7,1.8-4.4,5.4-4.4,9.4c0,3.8,1.3,7.5,2.7,10.9
		c0.9,2.3,2,4.6,3.9,5.9c1.1,0.7,2.5,0.9,3.7,0.5c0.8-0.2,1.4-0.8,1.7-1.5c0.5-1.3-0.1-2.8-0.7-4.4c-0.7-1.9-1.5-3.8-0.5-5.7
		c0.5-1.1,1.5-1.8,2.7-2c2.4-0.5,5.4,0.9,7.2,2.4c5.2,4.4,9.1,10,11.5,16.3c0.8,2,1.5,4.6,0.9,7.2s-3.1,4.8-5.9,4.3
		c-2.2-0.4-3.5-2.2-4.7-3.9c-1.1-1.6-2.2-3.1-3.9-3.3L334.5,294.7z M320.1,258L320.1,258z" fill="#111111"></path><path class="st2" d="M345.1,319.4c-0.3,0-0.5-0.2-0.5-0.5c0-0.3,0.2-0.5,0.5-0.5c0,0,0,0,0,0c9.6-0.7,16.7-9.1,16-18.6
		c-0.1-1.7-0.5-3.3-1.1-4.9c-0.1-0.3,0-0.6,0.3-0.6s0.6,0,0.6,0.3c3.6,9.5-1.1,20.1-10.6,23.7C348.7,318.8,346.9,319.2,345.1,319.4
		L345.1,319.4z" fill="#111111"></path><path class="st2" d="M193.8,445.1c-2.4,0-4.9,0-7,1.1s-3.6,3.7-2.7,5.9c0.7,1.3,1.9,2.3,3.2,2.9c10,5.7,20.9,9.8,32.2,12.1
		c2.9,0.6,6,1,8.6-0.4c3.9-2.1,4.6-7.7,2.8-11.7C224.7,440.9,206.1,445.3,193.8,445.1z" fill="#111111"></path><path class="st2" d="M269.2,456.8c-2,1.7-4,4-3.5,6.6s3.3,4.1,5.9,5c13.6,4.9,28,7,42.5,6c3.2-0.2,7.1-1.1,8.1-4.2s-2-6.1-4.7-8
		c-7.9-5.6-17.1-11.1-26.5-14C282.3,445.5,275.5,451.3,269.2,456.8z" fill="#111111"></path><path class="st2" d="M238.8,309.4h-0.1c-1.4-0.1-2.5-1.3-3.1-3.5c-1.2-4.6-1.2-9.4-0.2-14.1c0.1-0.3,0.3-0.4,0.6-0.4c0,0,0,0,0,0
		c0.3,0.1,0.4,0.3,0.4,0.6c0,0,0,0,0,0c-1,4.5-0.9,9.1,0.2,13.6c0.2,0.8,0.8,2.7,2.1,2.8s2.1-1.9,2.4-3l5.6-19.4
		c0.1-0.3,0.3-0.4,0.6-0.3c0,0,0,0,0,0c0.3,0.1,0.4,0.4,0.3,0.6l-5.6,19.4C241.4,308.1,240.3,309.4,238.8,309.4z" fill="#111111"></path><path class="st2" d="M197,230.9c-3.7,9.5-7.2,19.3-7.4,29.5s3.2,21,11.2,27.2c8.4,6.6,19.9,7,30.6,7.2l26.7,0.5
		c7.1,0.1,14.9,0.1,20.5-4.3c4.8-3.8,7-10.2,7.1-16.4s-1.6-12.2-3.4-18c-8.1-26.8-17.2-53.4-26.9-79.6c-3.3-8.9-9.2-19.7-19.9-12.2
		c-9.1,6.3-15.9,19.1-21.2,28.6C207.6,205.4,201.8,217.9,197,230.9z" fill="#111111"></path></g><g id="puff"><path class="st1" d="M368.6,331c-6.1,6.7-6.5,18.3,0.1,24.5s19.3,4.1,22.6-4.3c-1.9,11.3,7.9,23,19.4,23.2s21.6-11.2,20.1-22.5
		c11.6,9.6,28.9,12.3,42.1,5.2s20.6-24.3,15.2-38.3s-23.9-21.7-37-14.5c3.8-7.2,4.5-16.4,0.7-23.7s-12.1-12.3-20.2-11.1
		s-15,9-14.2,17.2c-4.1-7.5-15-9.8-22.5-5.5s-11.3,13.5-10.3,22c0.7,6,8.2,14.1,4,18.9C384.2,327.2,374.1,325.1,368.6,331z"></path><path class="st2" d="M411,375.1h-0.3c-6-0.2-11.5-3.1-15.2-7.7c-3.1-3.6-4.9-8.2-5.1-13c-2.1,2.6-5,4.3-8.2,5
		c-4.9,1.2-10.1-0.1-14-3.4c-6.6-6.2-6.7-18.4-0.1-25.5l0,0c3-3.2,7.1-4.2,11.2-5.1c3.6-0.8,6.9-1.6,8.9-3.9c2.4-2.7,0.5-6.7-1.5-11
		c-1.2-2.5-2.4-5-2.6-7.3c-1.1-9.3,3.3-18.6,10.6-22.8c4.3-2.3,9.3-2.8,13.9-1.5c3.2,0.9,6.1,2.7,8.2,5.2c0.6-7.4,7-14.3,14.8-15.5
		c8.1-1.2,17,3.6,21,11.5c3.4,6.6,3.4,15,0.2,22.4c6.2-2.5,13-2.5,19.2-0.1c7.8,2.9,14.1,8.8,16.9,16c5.4,14.1-1.5,31.7-15.6,39.2
		c-12.6,6.8-29.5,5-41.6-4.2c0.1,5.3-1.9,10.5-5.6,14.4C422.4,372.4,416.8,375,411,375.1z M391.4,350.4h0.2c0.4,0.1,0.6,0.5,0.5,0.8
		c-1.4,10.5,5.9,20.1,16.3,21.6c10.5,1.4,20.1-5.9,21.6-16.3c0.2-1.5,0.2-3.1,0.1-4.6c0-0.4,0.2-0.8,0.7-0.8c0.2,0,0.4,0,0.6,0.2
		c11.8,9.7,28.7,11.8,41.3,5.1c13.1-7,20-24.2,14.9-37.4c-2.6-6.8-8.6-12.4-16-15.1c-6.9-2.5-14.2-2.2-20,1c-0.4,0.2-0.8,0-1-0.4
		c-0.1-0.2-0.1-0.4,0-0.6c3.9-7.4,4.2-16.2,0.7-23c-3.7-7.3-11.9-11.8-19.4-10.7c-8,1.1-14.3,8.8-13.5,16.4c0,0.4-0.2,0.7-0.5,0.8
		c-0.3,0.1-0.7,0-0.9-0.4c-1.9-3.3-5-5.7-8.7-6.6c-4.3-1.2-8.8-0.7-12.8,1.4c-6.8,3.9-10.9,12.6-9.9,21.3c0.5,2.4,1.3,4.7,2.5,6.8
		c2.1,4.5,4.3,9.2,1.3,12.6c-2.4,2.6-5.9,3.5-9.7,4.3s-7.7,1.8-10.4,4.6l-0.6-0.5l0.6,0.5c-6,6.6-6,17.7,0,23.4
		c3.5,3,8.1,4.1,12.6,3c4.2-1,7.5-3.5,8.8-7C390.7,350.6,391,350.4,391.4,350.4L391.4,350.4z"></path><path class="st1" d="M54.7,275.6c6.8-10.9,22.1-17.3,33.1-10.6c8.1,4.9,11.5,15.5,10,24.9s-7,17.6-13.3,24.7
		c7.7-0.7,14.5,4.9,15.2,12.6c0.3,2.9-0.4,5.7-1.8,8.2c9.9-6.7,25.3-0.3,28.8,11.1s-4.4,24.5-15.7,28.4s-24.5-0.8-32.3-9.9
		c-3.6,8-10.6,14.7-19.2,16.9s-18.4-0.7-23.7-7.7s-5.2-17.9,0.9-24.2c-10.1,2.1-21.4-3.9-25.2-13.5s0.2-21.7,9.1-27.1
		c9.6-5.8,18.8-2.1,27.4,2.8c2.3-4.5,0.2-13.1,0.9-18.5C49.4,287.4,51.4,281.2,54.7,275.6z"></path><path class="st2" d="M53.8,383.4c-7.3,0-14.4-3.2-18.6-8.7c-5.3-6.9-5.3-17-0.4-23.6c-9.9,1.1-20.3-5-24-14.3
		c-3.9-9.9,0.3-22.5,9.4-28c9.6-5.8,18.9-2.4,27.5,2.4c1-2.6,0.7-6.5,0.5-10.3c-0.2-2.4-0.2-4.8,0-7.2c0.8-7.3,2.8-13.3,6-18.5l0,0
		c6.8-10.9,22.5-18,34.1-10.9c6.5,4,12.3,13.5,10.4,25.6c-1.2,7.8-5.3,15.6-12.3,23.8c8.1,0.2,14.5,7,14.2,15c0,1.6-0.4,3.2-0.9,4.8
		c4.6-2.1,9.8-2.2,14.6-0.4c6.4,2.3,11.5,7.3,13.2,13.2c3.5,11.5-4.1,25.2-16.2,29.3c-10.8,3.7-24-0.1-32.3-9.2
		c-4,8.2-11.1,14.2-19.2,16.2C57.8,383.2,55.8,383.4,53.8,383.4z M36.7,349.2c0.4,0,0.7,0.3,0.7,0.8c0,0.2-0.1,0.4-0.2,0.5
		c-5.7,5.9-6.1,16.4-0.8,23.2c5,6.5,14.4,9.6,22.9,7.4c8-2,15-8.1,18.7-16.4c0.1-0.2,0.3-0.4,0.6-0.4c0.3,0,0.5,0.1,0.7,0.3
		c7.9,9.3,20.9,13.3,31.5,9.7c11.3-3.9,18.4-16.7,15.2-27.5c-1.6-5.4-6.3-10.1-12.3-12.2c-5.5-2-11.1-1.4-15.3,1.5
		c-0.3,0.2-0.8,0.1-1-0.2c-0.2-0.2-0.2-0.6,0-0.8c3.6-6.3,1.5-14.4-4.8-18c-2.4-1.4-5.1-2-7.8-1.7c-0.3,0-0.6-0.1-0.7-0.4
		c-0.1-0.3-0.1-0.6,0.1-0.8c7.6-8.4,11.9-16.4,13.1-24.3c1.5-9.8-2.4-19.7-9.7-24.1c-8.8-5.4-24.1-2.4-32.1,10.4
		c-3.2,5.4-5.2,11.5-5.8,17.8c-0.2,2.3-0.2,4.7,0,7c0.2,4.3,0.5,8.8-1,11.7c-0.1,0.2-0.3,0.3-0.5,0.4c-0.2,0.1-0.4,0-0.6-0.1
		c-9.7-5.5-18-8.1-26.7-2.9c-8.5,5.2-12.4,16.9-8.8,26.2s14.6,15.1,24.3,13L36.7,349.2z"></path><path class="st1" d="M76.5,395.7c-2.3,3.1-3.5,6.8-3.6,10.6c-0.3,2.7,0.1,5.3,1.1,7.8c1,2.5,3.2,4.4,5.8,5.1
		c2.7,0.5,5.5-0.4,7.4-2.4c1.9-2,3.2-4.4,3.9-7.1C93.4,400.2,87.2,382.3,76.5,395.7z"></path><path class="st2" d="M81.2,420.1c-0.5,0-1.1-0.1-1.6-0.2c-2.8-0.7-5.2-2.8-6.3-5.5c-1.1-2.6-1.5-5.4-1.2-8.2c0.1-4,1.4-7.8,3.8-11
		c4.6-5.7,8.1-5.6,10.3-4.5c5,2.5,7.2,12.6,5.6,19.2c-0.6,2.8-2,5.4-4,7.4C85.9,419,83.6,420,81.2,420.1z M77.1,396.1L77.1,396.1
		c-2,2.5-3.2,5.9-3.5,10.2c-0.3,2.5,0.1,5.1,1,7.5c0.9,2.3,2.9,4,5.2,4.6c2.5,0.4,5-0.4,6.8-2.2c1.8-1.9,3.1-4.2,3.6-6.7
		c1.5-5.9-0.4-15.3-4.8-17.5C82.4,390.5,79.2,393.4,77.1,396.1z"></path><path class="st1" d="M399.3,268.6c1.7-0.9,3.2-2.3,4.1-4.1c0.7-1.2,1.2-2.5,1.2-3.9c0.1-1.4-0.5-2.7-1.5-3.6c-1.2-0.8-2.7-1-4-0.6
		c-1.3,0.5-2.5,1.3-3.4,2.4C392.5,262.7,391.4,272.4,399.3,268.6z"></path><path class="st2" d="M396.2,270.2c-1.1,0-2.1-0.4-2.7-1.3c-1.9-2.5-0.6-7.8,1.8-10.6c1-1.2,2.2-2.1,3.7-2.7c2.5-1,5.3,0.3,6.2,2.7
		c0.3,0.7,0.4,1.5,0.3,2.3c-0.1,1.5-0.6,2.9-1.4,4.2c-1,1.9-2.5,3.4-4.4,4.4C398.6,269.8,397.4,270.1,396.2,270.2z M400.6,256.9
		c-0.4,0-0.9,0.1-1.3,0.2c-1.2,0.4-2.2,1.2-3,2.2c-1.9,2.3-3.1,6.9-1.7,8.7c0.9,1.2,2.9,0.6,4.4-0.1l0,0c1.6-0.8,2.9-2.2,3.7-3.8
		c0.7-1.1,1.1-2.3,1.1-3.5c0.1-1.1-0.4-2.2-1.2-3C402.1,257.1,401.4,256.9,400.6,256.9L400.6,256.9z"></path><path class="st1" d="M441.6,375.6c1.7,0.9,3.2,2.3,4.1,4.1c0.7,1.2,1.1,2.5,1.2,3.9c0.1,1.4-0.5,2.7-1.5,3.6
		c-1.2,0.8-2.7,1.1-4,0.6c-1.3-0.5-2.5-1.3-3.4-2.4C434.8,381.5,433.6,371.8,441.6,375.6z"></path><path class="st2" d="M442.9,388.7c-0.6,0-1.2-0.1-1.7-0.3c-1.5-0.5-2.7-1.4-3.7-2.7c-2.4-2.8-3.7-8.1-1.8-10.6
		c0.9-1.1,2.6-2,6.2-0.3l0,0c1.9,1,3.4,2.5,4.4,4.4c0.8,1.3,1.2,2.7,1.4,4.2c0.1,1.6-0.6,3.2-1.8,4.3
		C445,388.4,444,388.8,442.9,388.7z M438.5,375.4c-0.6,0-1.2,0.2-1.6,0.7c-1.4,1.8-0.2,6.4,1.7,8.7c0.8,1,1.8,1.8,3,2.2
		c1.1,0.4,2.3,0.2,3.3-0.5c0.9-0.8,1.3-1.9,1.2-3c-0.1-1.3-0.5-2.5-1.2-3.6c-0.8-1.6-2.1-2.9-3.7-3.8
		C440.4,375.8,439.5,375.5,438.5,375.4L438.5,375.4z"></path><path class="st1" d="M33.8,282.5c-0.2-2.1-1-4.1-2.3-5.8c-0.8-1.2-2-2.2-3.3-2.9c-1.3-0.7-2.9-0.7-4.3,0c-1.3,0.8-2.2,2.2-2.3,3.7
		c-0.1,1.5,0.3,3,1,4.4C25.1,286.7,34.1,292,33.8,282.5z"></path><path class="st2" d="M30.6,288.5c-3.1,0-7.1-3.2-8.6-6.3c-0.8-1.5-1.2-3.1-1-4.8c0.1-1.8,1.1-3.4,2.6-4.3c1.6-0.8,3.4-0.8,4.9,0
		c1.4,0.7,2.6,1.8,3.6,3.1c1.4,1.8,2.3,3.9,2.5,6.2l0,0c0.2,4.2-1.5,5.6-2.9,5.9C31.3,288.4,30.9,288.5,30.6,288.5z M25.9,274
		c-0.6,0-1.1,0.1-1.6,0.4c-1.1,0.7-1.8,1.8-1.9,3.1c-0.1,1.4,0.2,2.7,0.9,4c1.4,2.9,5.5,6,7.9,5.4c1.6-0.4,1.9-2.6,1.8-4.4l0,0
		c-0.2-2-0.9-3.8-2.2-5.3c-0.8-1.1-1.8-2-3-2.6C27.3,274.2,26.6,274,25.9,274z"></path></g><g id="flies"><path class="st0" d="M372.6,267.8L372.6,267.8c-0.3,0-0.5-0.3-0.5-0.5c0-0.7,0.1-1.3,0.2-2c0-0.3,0.3-0.5,0.5-0.5
		c0.3,0,0.5,0.3,0.5,0.5c-0.1,0.7-0.1,1.3-0.2,2C373.1,267.6,372.8,267.8,372.6,267.8z"></path><path class="st0" d="M373.2,261.7L373.2,261.7c-0.3,0-0.5-0.3-0.5-0.5c0,0,0,0,0,0c0.2-1.4,0.5-2.8,0.8-4.1
		c0.1-0.3,0.3-0.4,0.6-0.4c0,0,0,0,0,0c0.3,0.1,0.4,0.3,0.4,0.6c-0.3,1.2-0.5,2.6-0.7,4C373.6,261.6,373.4,261.7,373.2,261.7z
		 M375,253.7c-0.1,0-0.1,0-0.2,0c-0.3-0.1-0.4-0.4-0.3-0.6c0.5-1.3,1-2.6,1.7-3.8c0.1-0.2,0.4-0.3,0.7-0.2c0,0,0,0,0,0
		c0.2,0.1,0.3,0.4,0.2,0.7c0,0,0,0,0,0c-0.6,1.2-1.2,2.4-1.6,3.7C375.5,253.6,375.3,253.8,375,253.7L375,253.7z M379,246.6
		c-0.1,0-0.2,0-0.3-0.1c-0.2-0.2-0.2-0.5,0-0.7c0.6-0.7,1.4-1.4,2.1-2.1c0.3-0.3,0.6-0.5,1-0.8c0.2-0.2,0.5-0.1,0.7,0.1c0,0,0,0,0,0
		c0.2,0.2,0.1,0.5-0.1,0.7c0,0,0,0,0,0c-0.3,0.2-0.6,0.5-0.9,0.7c-0.7,0.6-1.4,1.3-2,2C379.4,246.6,379.2,246.7,379,246.6L379,246.6
		z M385.6,241.9c-0.2,0-0.4-0.1-0.5-0.3c-0.1-0.3,0-0.5,0.3-0.7c0,0,0,0,0,0c1.3-0.5,2.6-1,3.9-1.4c0.3-0.1,0.6,0.1,0.6,0.4
		c0.1,0.3-0.1,0.6-0.4,0.6c-1.3,0.3-2.6,0.8-3.8,1.3C385.8,241.9,385.7,241.9,385.6,241.9L385.6,241.9z M393.5,239.6
		c-0.3,0-0.5-0.2-0.5-0.5c0-0.3,0.2-0.5,0.5-0.5c1.1-0.2,2.2-0.4,3.3-0.6l0.8-0.1c0.3,0,0.5,0.1,0.6,0.4c0,0.3-0.1,0.5-0.4,0.6
		l-0.8,0.1c-1.1,0.2-2.2,0.4-3.2,0.6H393.5z M401.6,238.1c-0.2,0-0.4-0.2-0.5-0.4c-0.1-0.3,0.1-0.5,0.4-0.6c0,0,0,0,0,0
		c1.5-0.3,2.8-0.7,3.9-1.1c0.3-0.1,0.5,0.1,0.6,0.3c0.1,0.3,0,0.5-0.3,0.6c0,0,0,0,0,0c-1.3,0.4-2.6,0.8-4,1.1L401.6,238.1z
		 M409.3,235.5c-0.2,0-0.4-0.1-0.5-0.3c-0.1-0.2,0-0.5,0.2-0.7c0,0,0,0,0,0c1.2-0.6,2.4-1.3,3.5-2.1c0.2-0.2,0.5-0.1,0.7,0.1
		c0,0,0,0,0,0c0.2,0.2,0.1,0.5-0.1,0.7c-1.1,0.8-2.3,1.5-3.6,2.1C409.5,235.5,409.4,235.5,409.3,235.5L409.3,235.5z M416,230.9
		c-0.1,0-0.3-0.1-0.4-0.2c-0.2-0.2-0.2-0.5,0-0.7c0,0,0,0,0,0c1-0.9,1.9-1.9,2.8-2.9c0.2-0.2,0.5-0.2,0.7-0.1c0,0,0,0,0,0
		c0.2,0.2,0.3,0.5,0.1,0.7c0,0,0,0,0,0c-0.9,1.1-1.8,2.1-2.9,3C416.3,230.8,416.1,230.9,416,230.9L416,230.9z M421.2,224.5
		c-0.1,0-0.2,0-0.2-0.1c-0.2-0.1-0.3-0.4-0.2-0.7c0.6-1,1.1-2.1,1.6-3.1l0.2-0.5c0.1-0.3,0.4-0.4,0.6-0.3c0,0,0,0,0,0
		c0.3,0.1,0.4,0.4,0.3,0.6c0,0,0,0,0,0l-0.2,0.5c-0.5,1.1-1,2.2-1.6,3.2C421.5,224.4,421.3,224.5,421.2,224.5L421.2,224.5z
		 M424.2,216.9h-0.1c-0.3-0.1-0.4-0.3-0.4-0.6c0.3-1.3,0.5-2.7,0.7-4c0-0.3,0.3-0.5,0.5-0.5c0,0,0,0,0,0c0.3,0,0.5,0.3,0.5,0.5
		c-0.1,1.4-0.4,2.8-0.7,4.1C424.7,216.8,424.5,217,424.2,216.9L424.2,216.9z M425,208.8c-0.3,0-0.5-0.2-0.5-0.5
		c-0.1-1.3-0.2-2.7-0.5-4c-0.1-0.3,0.1-0.5,0.4-0.6s0.5,0.1,0.6,0.4c0.3,1.4,0.4,2.7,0.5,4.1C425.5,208.5,425.3,208.8,425,208.8
		C425.1,208.8,425.1,208.8,425,208.8L425,208.8z"></path><path class="st0" d="M423.4,200.8c-0.2,0-0.4-0.1-0.5-0.3c-0.2-0.6-0.5-1.2-0.7-1.8c-0.1-0.3,0-0.5,0.3-0.7s0.5,0,0.7,0.3
		c0.3,0.6,0.5,1.2,0.8,1.9c0.1,0.3-0.1,0.5-0.3,0.6L423.4,200.8z"></path><g id="fly"><path class="st1" d="M406.5,179.2c-3.4-2.9-5-7.3-4.5-11.7c0.4-2.4,2.2-4.9,4.9-4.6s4.2,2.9,5.3,5.1c1.2,2.6,2.3,5.3,3.1,8
			c0.7,2.3,1.8,5.1,4.2,5.6c2.1,0.5,3.8-1,5.1-2.4l5.8-5.9c1-1.1,2.1-2,3.4-2.7c1.4-0.7,3.1-0.7,4.5-0.1c2,1,2.8,3.5,2.6,5.5
			c-0.4,5.3-5.5,9-11,10.2c-1.8,0.4-3.7,0.5-5.6,0.2c-3.1-0.6-4.8-3.2-7.9-3.5C412.8,182.7,409.4,181.8,406.5,179.2z"></path><path class="st2" d="M426.6,187.4c-2.3,0-4.5-0.7-6.3-2.1c-1.1-0.9-2.4-1.4-3.8-1.6c-3.3-0.3-7.1-1-10.5-4l0,0
			c-3.5-3.1-5.3-7.7-4.7-12.4c0.5-2.9,2.6-5.6,5.7-5.2c2.3,0.2,4.3,2.1,5.9,5.6c1.2,2.6,2.3,5.3,3.1,8.1c0.8,2.4,1.7,4.7,3.7,5.1
			c1.7,0.4,3.1-0.8,4.4-2.2l5.8-5.9c1-1.2,2.2-2.1,3.6-2.9c1.6-0.8,3.5-0.8,5.2-0.1c2.4,1.2,3.2,4,3,6.3c-0.5,5.9-6.2,9.7-11.6,10.9
			C428.9,187.3,427.8,187.4,426.6,187.4z M407,178.6c3,2.7,6.5,3.4,9.6,3.6c1.6,0.2,3.2,0.9,4.5,1.9c1,0.8,2.2,1.3,3.4,1.6
			c1.8,0.3,3.6,0.3,5.3-0.2c4.9-1,10-4.4,10.4-9.5c0.1-1.8-0.5-3.9-2.2-4.8c-1.2-0.6-2.6-0.5-3.8,0.1c-1.2,0.7-2.3,1.5-3.2,2.6
			l-5.8,5.9c-1.5,1.6-3.5,3.1-5.9,2.6c-3.1-0.7-4.2-4.4-4.8-6.1c-0.8-2.7-1.9-5.3-3.1-7.9c-1.4-2.9-3-4.5-4.7-4.7
			c-2.2-0.2-3.7,1.8-4.1,4C402.2,171.8,403.8,175.9,407,178.6L407,178.6z"></path><path class="st2" d="M417.5,178.5c-1.4,0.3-2.7,1.2-3.5,2.4c-1.4,2.1-1.3,5,0.5,6.9c1,1.1,2.4,1.8,3.9,1.9c1.4,0.2,2.8,0,4.2-0.6
			c1.4-0.5,2.6-1.5,3.4-2.8c0.7-1.3,0.8-2.9,0.1-4.3C424.8,179.7,420,177.9,417.5,178.5z"></path></g><g id="fly-2"><path class="st1" d="M61.2,206.3c-4.4,0.7-8.8-0.9-11.8-4.2c-1.6-1.9-2.3-4.9-0.3-6.7s4.9-1.4,7.3-0.7c2.8,0.8,5.5,1.7,8.1,2.9
			c2.2,0.9,5,2,7,0.5c1.7-1.3,1.7-3.5,1.5-5.4l-0.7-8.2c-0.2-1.4-0.2-2.9,0.1-4.3c0.4-1.5,1.4-2.8,2.9-3.5c2.1-0.9,4.5,0.2,5.9,1.6
			c3.8,3.8,3.3,10.1,0.6,15c-0.9,1.7-2.1,3.2-3.5,4.3c-2.5,1.9-5.5,1.5-7.8,3.7C67.9,203.8,65.1,205.8,61.2,206.3z"></path><path class="st2" d="M59.3,207.2c-4,0.1-7.9-1.6-10.5-4.6c-1.8-2.2-2.5-5.6-0.2-7.7c1.7-1.6,4.4-1.9,8.1-0.9
			c2.8,0.8,5.5,1.7,8.2,2.9c2.3,1,4.7,1.8,6.3,0.6c1.4-1,1.4-2.9,1.2-4.8l-0.7-8.2c-0.2-1.5-0.2-3.1,0.2-4.6c0.4-1.8,1.7-3.3,3.3-4
			c2.5-1,5.2,0.2,6.7,1.8c4.2,4.2,3.4,11,0.7,15.9c-0.9,1.8-2.2,3.3-3.7,4.6c-1.2,0.8-2.5,1.4-3.9,1.8c-1.4,0.3-2.7,0.9-3.7,1.8
			c-2.4,2.3-5.4,4.7-9.8,5.3l0,0C60.6,207.1,60,207.2,59.3,207.2z M61.2,206.3L61.2,206.3z M52.8,194.9c-1.2-0.1-2.3,0.3-3.2,1.1
			c-1.6,1.5-1,4,0.4,5.7c2.8,3.1,7,4.6,11.1,4l0,0c4-0.5,6.8-2.8,9-4.9c1.2-1.1,2.7-1.8,4.3-2.2c1.2-0.3,2.4-0.8,3.5-1.6
			c1.4-1.1,2.5-2.5,3.3-4.1c2.4-4.4,3.2-10.4-0.4-14.1c-1.2-1.2-3.3-2.2-5.1-1.4c-1.2,0.6-2.1,1.6-2.4,2.9c-0.3,1.3-0.3,2.7-0.1,4.1
			l0.7,8.2c0.2,2.2,0.1,4.7-1.8,6.1c-2.6,1.9-6.1,0.4-7.8-0.4c-2.6-1.1-5.3-2.1-8-2.8C55.1,195.2,54,194.9,52.8,194.9z"></path><path class="st2" d="M67.8,197.6c-0.7,1.3-0.8,2.8-0.4,4.2c0.7,2.5,3,4.2,5.6,4.1c1.5-0.1,2.9-0.7,4-1.7c1.1-1,1.8-2.2,2.3-3.5
			c0.5-1.4,0.6-2.9,0.1-4.3c-0.5-1.4-1.7-2.5-3.2-2.9C73.5,192.8,69,195.3,67.8,197.6z"></path></g><path class="st0" d="M169.3,282.4c-0.3,0-0.5-0.2-0.5-0.5l-0.1-0.7l1-0.2l-0.5,0h0.5l0.1,0.7C169.9,282.1,169.7,282.4,169.3,282.4
		C169.4,282.4,169.4,282.4,169.3,282.4L169.3,282.4z M168.8,277.6c-0.3,0-0.5-0.2-0.5-0.4c-0.2-1.4-0.4-2.7-0.6-3.9
		c0-0.3,0.1-0.5,0.4-0.6c0.3,0,0.5,0.1,0.6,0.4c0.2,1.2,0.4,2.5,0.6,4C169.3,277.4,169.1,277.6,168.8,277.6L168.8,277.6z
		 M167.4,269.8c-0.2,0-0.4-0.2-0.5-0.4c-0.3-1.3-0.7-2.6-1.1-3.8c-0.1-0.3,0.1-0.5,0.3-0.6c0.3-0.1,0.5,0.1,0.6,0.3
		c0.4,1.2,0.8,2.5,1.1,3.9c0.1,0.3-0.1,0.5-0.4,0.6c0,0,0,0,0,0L167.4,269.8z M164.8,262.2c-0.2,0-0.4-0.1-0.5-0.3
		c-0.5-1.2-1.2-2.3-1.9-3.4c-0.2-0.2-0.1-0.5,0.1-0.7c0.2-0.1,0.5-0.1,0.7,0.1c0.7,1.1,1.4,2.3,1.9,3.6c0.1,0.2,0,0.5-0.2,0.7
		c0,0,0,0,0,0C165,262.2,164.9,262.2,164.8,262.2z M160.5,255.5c-0.1,0-0.3-0.1-0.4-0.2c-0.4-0.5-0.9-1-1.4-1.4
		c-0.5-0.4-1-0.8-1.5-1.2c-0.2-0.2-0.3-0.5-0.1-0.7c0,0,0,0,0,0c0.2-0.2,0.5-0.3,0.7-0.1c0.6,0.4,1.1,0.8,1.6,1.3s1,0.9,1.5,1.4
		c0.2,0.2,0.2,0.5,0,0.7c0,0,0,0,0,0C160.7,255.5,160.6,255.5,160.5,255.5L160.5,255.5z M154.1,250.8c-0.1,0-0.2,0-0.2-0.1
		c-1.2-0.6-2.4-1.1-3.6-1.5c-0.2-0.1-0.4-0.4-0.2-0.7c0.1-0.2,0.3-0.3,0.6-0.3c1.3,0.4,2.5,1,3.8,1.6c0.2,0.1,0.4,0.4,0.2,0.7
		C154.5,250.7,154.3,250.8,154.1,250.8L154.1,250.8z M146.6,248.1h-0.1c-1.2-0.3-2.5-0.5-3.9-0.7c-0.3,0-0.5-0.3-0.4-0.6
		c0-0.3,0.3-0.5,0.6-0.4c1.4,0.2,2.7,0.4,4,0.7c0.3,0.1,0.4,0.3,0.4,0.6c0,0,0,0,0,0C147,248,146.8,248.1,146.6,248.1z M122.7,247.2
		L122.7,247.2c-1.5,0-2.8,0-4-0.1c-0.3,0-0.5-0.2-0.5-0.5s0.2-0.5,0.5-0.5c1.2,0.1,2.5,0.1,4,0.1c0.3,0,0.5,0.2,0.5,0.5
		C123.1,247,122.9,247.2,122.7,247.2z M126.7,247.1c-0.3,0-0.5-0.2-0.5-0.5c0-0.3,0.2-0.5,0.5-0.5c0,0,0,0,0,0l4-0.1l0,0
		c0.3,0,0.5,0.2,0.5,0.5c0,0.3-0.2,0.5-0.5,0.5L126.7,247.1z M138.7,247.1L138.7,247.1l-1.4-0.1c-0.9,0-1.7,0-2.6,0
		c-0.3,0-0.5-0.2-0.5-0.5c0-0.3,0.2-0.5,0.5-0.5l0,0c0.9,0,1.7,0,2.6,0l1.4,0.1c0.3,0,0.5,0.3,0.5,0.5c0,0,0,0,0,0
		C139.1,246.9,138.9,247.1,138.7,247.1L138.7,247.1z M114.7,246.8L114.7,246.8l-0.9-0.1c-1.1-0.1-2.1-0.3-3.2-0.6
		c-0.3-0.1-0.4-0.3-0.4-0.6c0,0,0,0,0,0c0.1-0.3,0.3-0.4,0.6-0.4c1,0.2,2.1,0.4,3.1,0.6l0.8,0.1c0.3,0,0.5,0.3,0.4,0.6
		C115.1,246.6,114.9,246.8,114.7,246.8L114.7,246.8z M106.8,245.1h-0.1c-1.3-0.4-2.6-0.9-3.8-1.4c-0.3-0.1-0.4-0.4-0.3-0.7
		c0.1-0.3,0.4-0.4,0.7-0.3l0,0c1.2,0.5,2.5,1,3.7,1.4c0.3,0,0.5,0.3,0.4,0.6C107.4,245,107.1,245.2,106.8,245.1L106.8,245.1
		L106.8,245.1z M99.5,242c-0.1,0-0.2,0-0.2-0.1c-1.2-0.6-2.4-1.3-3.5-2c-0.2-0.1-0.4-0.4-0.2-0.7s0.4-0.4,0.7-0.2c0,0,0.1,0,0.1,0.1
		c1.1,0.7,2.3,1.4,3.4,2c0.2,0.1,0.3,0.4,0.2,0.7C99.8,241.9,99.6,242,99.5,242z M92.7,237.7c-0.1,0-0.2,0-0.3-0.1
		c-1.1-0.8-2.1-1.7-3.1-2.6c-0.2-0.2-0.2-0.5,0-0.7c0,0,0,0,0,0c0.2-0.2,0.5-0.2,0.7,0c0,0,0,0,0,0c1,0.9,2,1.7,3.1,2.5
		c0.2,0.2,0.3,0.5,0.1,0.7C93.1,237.7,92.9,237.8,92.7,237.7L92.7,237.7z M86.7,232.4c-0.1,0-0.3-0.1-0.4-0.2c-0.9-1-1.8-2-2.7-3
		c-0.2-0.2-0.1-0.5,0.1-0.7c0.2-0.2,0.5-0.1,0.7,0.1l0,0c0.8,1,1.7,2,2.6,3c0.2,0.2,0.2,0.5,0,0.7c0,0,0,0,0,0
		C87,232.4,86.9,232.4,86.7,232.4L86.7,232.4z M81.7,226.1c-0.2,0-0.3-0.1-0.4-0.2c-0.8-1.1-1.4-2.3-2.1-3.5c-0.1-0.3,0-0.5,0.3-0.7
		c0.2-0.1,0.5,0,0.6,0.2c0.6,1.1,1.3,2.3,2,3.4c0.2,0.2,0.1,0.5-0.1,0.7C81.9,226.1,81.9,226.1,81.7,226.1L81.7,226.1z M77.9,219.1
		c-0.2,0-0.4-0.1-0.5-0.3c-0.5-1.2-1-2.5-1.4-3.8c-0.1-0.3,0.1-0.5,0.3-0.6c0.3-0.1,0.5,0.1,0.6,0.3c0.4,1.3,0.9,2.5,1.4,3.7
		c0.1,0.3,0,0.5-0.3,0.7C78.1,219.1,78,219.1,77.9,219.1L77.9,219.1z"></path></g></svg>