<svg transform="scale(1)" version="1.1" id="EdforifVe2" xmlns="http://www.w3.org/2000/svg" xmlns:xlink="http://www.w3.org/1999/xlink" x="0px" y="0px" viewBox="0 0 500 500" xml:space="preserve" class="pbimage_pbimage__wrapper__image__0LEis false"><title>Folder Empty</title><style type="text/css"> .st0{fill:#111111;} .st1{fill:#128FFF;} .st2{fill:#FFFFFF;}
 .st2{fill:#FFFFFF;}
 .st1{fill:#128FFF;}
 .st0{fill:#111111;}</style><g id="folder-back"><path class="st0" d="M276.9,174.6c15.5,0.3,31.8,0.8,44.8,9.1c11.6,7.4,19.6,20.4,32.7,24.6c9.3,3,20.7,1.4,27.5,8.4s4.8,18.6,2,28
		c-14.9,51.1-36.3,100-57.6,148.8c-4.3,9.8-9.3,20.3-18.9,24.8c-12.1,5.6-26-0.6-38.4-5.3c-37.2-14-78.1-15-116.3-26.1
		c-20-5.8-40.1-15.2-52.3-32c-10.7-14.8-14.1-33.5-16-51.6c-2.3-22.8-2.7-45.8-3-68.8c-0.2-11.8-0.2-24,4.9-34.7
		c15.1-31.3,51.4-27.5,80-27L276.9,174.6z" fill="#111111"></path></g><g id="path"><path class="st0" d="M117.7,195.2c-0.9,0-1.7-0.6-1.9-1.6c-0.3-1.3-0.6-2.7-0.8-4.1c-0.2-1.1,0.6-2.1,1.7-2.3
		c1.1-0.2,2.1,0.6,2.3,1.7c0.2,1.3,0.5,2.6,0.8,3.8c0.2,1.1-0.4,2.2-1.5,2.4c0,0,0,0,0,0C118.1,195.2,117.9,195.3,117.7,195.2z"></path><path class="st0" d="M116.2,183.2c-1.1,0-2-0.9-2-1.9c0-0.7,0-1.4,0-2.1c0-2.1,0.1-4.2,0.3-6.3c0.1-1.1,1.1-1.9,2.2-1.8
		s1.9,1.1,1.8,2.2c-0.2,2-0.3,4-0.3,5.9c0,0.7,0,1.3,0,2C118.2,182.3,117.4,183.2,116.2,183.2C116.3,183.2,116.3,183.2,116.2,183.2
		L116.2,183.2z M117.7,167c-0.1,0-0.3,0-0.4-0.1c-1.1-0.2-1.8-1.3-1.5-2.4c0,0,0,0,0,0c0.6-2.7,1.4-5.4,2.3-8.1
		c0.3-1.1,1.4-1.7,2.5-1.4c1.1,0.3,1.7,1.4,1.4,2.5c0,0.1-0.1,0.2-0.1,0.3c-0.9,2.5-1.6,5-2.1,7.6C119.4,166.3,118.6,167,117.7,167z
		 M291.2,163.9c-1.1,0-2-0.8-2.1-1.9s0.8-2,1.9-2.1c2.6-0.2,5.2-0.5,7.8-1c1.1-0.3,2.2,0.4,2.4,1.4c0.3,1.1-0.4,2.2-1.4,2.4
		c-0.1,0-0.2,0-0.2,0c-2.8,0.5-5.5,0.9-8.3,1.1L291.2,163.9z M283,163.9h-0.1c-2.8-0.2-5.6-0.6-8.4-1.2c-1.1-0.2-1.8-1.3-1.5-2.4
		c0.2-1.1,1.3-1.8,2.4-1.5c2.6,0.6,5.2,0.9,7.8,1.1c1.1,0,2,1,1.9,2.1S284.1,164,283,163.9L283,163.9z M307.2,160.9
		c-1.1,0-2-0.9-2-2c0-0.9,0.6-1.6,1.4-1.9c2.5-0.8,5-1.8,7.4-2.9c1-0.5,2.2,0,2.6,1s0,2.2-1,2.6c-2.6,1.1-5.2,2.1-7.8,3
		C307.6,160.8,307.4,160.8,307.2,160.9L307.2,160.9z M267.2,160.4c-0.2,0-0.5,0-0.7-0.1c-2.6-1-5.2-2.2-7.6-3.5
		c-1-0.5-1.3-1.7-0.8-2.7c0.5-1,1.7-1.3,2.7-0.8c2.3,1.3,4.7,2.4,7.2,3.3c1,0.4,1.5,1.6,1.1,2.6C268.7,159.9,268,160.4,267.2,160.4z
		 M322,154.2c-1.1,0-2-0.9-2-2c0-0.7,0.4-1.3,1-1.7c2.3-1.4,4.5-2.8,6.6-4.4c0.9-0.7,2.1-0.5,2.8,0.4c0,0,0,0,0,0
		c0.7,0.9,0.5,2.1-0.4,2.8c-2.3,1.7-4.6,3.2-7,4.6C322.7,154.1,322.4,154.2,322,154.2z M252.8,152.8c-0.4,0-0.8-0.1-1.1-0.3
		c-2.1-1.4-4.3-3-6.7-4.8c-0.9-0.7-1-1.9-0.4-2.8s1.9-1,2.8-0.4c2.3,1.8,4.5,3.3,6.5,4.7c0.9,0.6,1.2,1.9,0.5,2.8
		C254.1,152.4,253.4,152.8,252.8,152.8L252.8,152.8z M123,151.6c-1.1,0-2-0.9-2-2c0-0.3,0.1-0.6,0.2-0.9c1.2-2.5,2.6-5,4.1-7.3
		c0.6-0.9,1.8-1.2,2.8-0.6c0.9,0.6,1.2,1.8,0.6,2.8c-1.4,2.2-2.7,4.5-3.9,6.9C124.5,151.2,123.8,151.6,123,151.6z M335.1,144.5
		c-1.1,0-2-0.9-2-2c0-0.6,0.2-1.1,0.7-1.5c2-1.7,3.9-3.6,5.7-5.6c0.8-0.8,2-0.8,2.8-0.1c0.8,0.8,0.8,2,0.1,2.8l0,0c-1.9,2-4,4-6,5.8
		C336.1,144.3,335.6,144.5,335.1,144.5L335.1,144.5z M239.7,142.9c-0.5,0-0.9-0.2-1.3-0.4l-3.5-2.8c-0.9-0.8-1.9-1.6-2.9-2.3
		c-0.9-0.7-1-2-0.3-2.8s2-1,2.8-0.3l2.9,2.3c1.1,0.9,2.3,1.9,3.4,2.8c0.9,0.7,1,2,0.3,2.8C240.9,142.7,240.3,142.9,239.7,142.9
		L239.7,142.9z M131.8,137.9c-0.5,0-0.9-0.2-1.3-0.5c-0.8-0.7-1-2-0.2-2.8c1.8-2.2,3.7-4.2,5.8-6.1c0.8-0.8,2.1-0.7,2.8,0.1
		c0.8,0.8,0.7,2.1-0.1,2.8c0,0,0,0-0.1,0.1c-1.9,1.8-3.8,3.7-5.5,5.7C133,137.7,132.5,138,131.8,137.9L131.8,137.9z M346.4,132.7
		c-1.1,0-2-0.9-2-2c0-0.5,0.2-0.9,0.5-1.3c1.6-2,3.3-4.2,4.9-6.4c0.6-0.9,1.9-1.1,2.8-0.5c0.9,0.6,1.1,1.9,0.5,2.8
		c-1.6,2.3-3.3,4.5-5,6.6C347.6,132.5,347,132.7,346.4,132.7L346.4,132.7z M227,132.7c-0.4,0-0.9-0.2-1.2-0.4
		c-2.4-1.8-4.5-3.4-6.5-4.7c-0.9-0.6-1.2-1.9-0.5-2.8s1.9-1.2,2.8-0.5c2.1,1.4,4.3,3,6.7,4.9c0.9,0.7,1,1.9,0.4,2.8
		C228.3,132.4,227.7,132.7,227,132.7L227,132.7z M143.9,127c-1.1,0-2-0.9-2-2c0-0.7,0.3-1.3,0.9-1.6c2.3-1.6,4.7-3.1,7.3-4.4
		c1-0.6,2.2-0.2,2.7,0.7s0.2,2.2-0.7,2.7c-0.1,0-0.1,0.1-0.2,0.1c-2.3,1.2-4.6,2.6-6.8,4.1C144.7,126.9,144.3,127,143.9,127z
		 M213.5,123.6c-0.3,0-0.7-0.1-1-0.2c-1.5-0.8-3-1.6-4.5-2.3c-0.9-0.4-1.7-0.8-2.6-1.1c-1-0.4-1.5-1.6-1.1-2.6
		c0.4-1,1.6-1.5,2.6-1.1l0,0c0.9,0.4,1.9,0.8,2.8,1.2c1.6,0.7,3.2,1.6,4.8,2.4c1,0.5,1.3,1.8,0.8,2.7
		C214.9,123.2,214.2,123.6,213.5,123.6L213.5,123.6z M158.3,119.5c-1.1,0-2-0.9-2-2c0-0.8,0.5-1.6,1.3-1.9c2.6-1,5.3-1.8,8-2.4
		c1.1-0.3,2.2,0.3,2.5,1.4s-0.3,2.2-1.4,2.5c-0.1,0-0.1,0-0.2,0c-2.6,0.6-5.1,1.4-7.6,2.3C158.8,119.5,158.6,119.5,158.3,119.5
		L158.3,119.5z M198.5,117.5c-0.2,0-0.3,0-0.5-0.1c-2.6-0.7-5.1-1.2-7.8-1.5c-1.1-0.1-1.9-1.2-1.7-2.3c0.1-1.1,1.2-1.9,2.3-1.7
		c2.8,0.4,5.5,0.9,8.2,1.6c1.1,0.3,1.7,1.4,1.4,2.5C200.1,116.9,199.4,117.5,198.5,117.5L198.5,117.5z M174.2,115.8
		c-1.1,0.1-2-0.8-2.1-1.9s0.8-2,1.9-2.1c2.6-0.3,5.2-0.4,7.9-0.4h0.5c1.1,0,2,0.9,2,2s-0.9,2-2,2h-0.5c-2.5,0-4.9,0.1-7.4,0.4
		L174.2,115.8z"></path><path class="st0" d="M355.9,119.4c-1.1,0-2-0.9-2-2c0-0.4,0.1-0.7,0.3-1.1c0.7-1.1,1.4-2.2,2-3.4c0.6-0.9,1.8-1.2,2.8-0.6
		c0.9,0.6,1.2,1.7,0.7,2.6c-0.7,1.2-1.4,2.3-2.1,3.5C357.2,119,356.6,119.4,355.9,119.4z"></path></g><g id="fly"><path class="st1" d="M348.7,75.8c-4.5-6.8-5.5-15.6-2.5-22.3c1.8-4,6.1-7.5,10.6-5.8c4.3,1.6,6.1,6.9,6.9,11.3
		c0.9,5,1.5,10.1,1.8,15.3c0.2,4.3,0.8,9.6,4.8,11.7c3.4,1.8,7,0,10-1.8l12.7-7.6c2.1-1.5,4.5-2.5,7-3.2c2.8-0.6,5.7,0.1,7.8,1.9
		c3,2.7,3.3,7.3,2.1,10.8c-3.2,9.1-13.6,13.2-23.7,12.7c-3.4-0.1-6.7-0.8-9.8-2.2c-5-2.5-6.8-7.7-12-9.6
		C358,84.7,352.6,81.7,348.7,75.8z"></path><path class="st0" d="M368,79.5c-2.6,0-5.2,0.9-7.1,2.6c-3.5,3.1-4.4,8.1-2.3,12.2c1.3,2.3,3.4,4.1,5.9,5.1c2.4,0.9,4.9,1.2,7.5,0.9
		c2.7-0.3,5.2-1.4,7.1-3.3c1.9-2,2.7-4.7,2.1-7.4C380.1,84.9,372.6,79.7,368,79.5z"></path></g><g id="folder-front"><path class="st2" d="M265.8,179.4c3.7,5.9,6.5,12.6,11.8,17.1c6.9,5.8,16.7,6.6,24.8,10.7c9.6,4.9,16.4,14.3,20,24.5
		s4.4,21.1,4.5,31.9c0.8,42.9-6.9,85.5-14.6,127.7c-1.9,10.2-4.4,21.5-13.1,27.2c-7.4,4.8-17,3.9-25.8,2.7
		c-23.5-3.2-46.9-7.2-70.2-11.2L99.6,392c-13.4-2.3-27.6-5-37.8-13.9c-15-13.1-17-35.1-19.2-54.9c-4.5-39.8-13.8-78.9-27.8-116.4
		c-5.1-13.6-10.4-30.4-0.9-41.4c5.3-6.3,13.9-8.5,21.9-10.2c50.4-10.6,102.4-12.1,153.3-4.5c12.9,1.9,26.1,1.6,38.8,3.9
		C243.2,157.4,257.4,166.3,265.8,179.4z"></path><path class="st0" d="M284.7,422.8c-3.8-0.1-7.6-0.4-11.3-0.9c-23.5-3.2-47.3-7.3-70.2-11.2L99.5,392.8
		c-12.2-2.1-27.5-4.7-38.2-14.1c-14.7-12.9-17.1-34.5-19.2-53.6l-0.2-1.8c-4.4-39.7-13.8-78.7-27.8-116.2
		c-5.8-15.6-9.9-31.4-0.8-42.1c5.5-6.5,14.4-8.8,22.4-10.4c50.5-10.6,102.5-12.1,153.6-4.5c5.9,0.9,12.1,1.3,18,1.7
		c7,0.3,13.9,1.1,20.8,2.2c15.8,2.8,30.1,12.2,38.3,25.1c1,1.6,2,3.4,3,5c2.4,4.3,5,8.7,8.7,11.9c4.1,3.4,9.2,5,14.5,6.7
		c3.5,1,6.9,2.3,10.1,3.8c9,4.6,16.3,13.4,20.3,24.9c3.7,10.5,4.4,21.6,4.6,32.1c0.8,43.1-7,86.2-14.6,127.9
		c-2,10.9-4.6,21.9-13.5,27.7C295.2,421.9,290,422.8,284.7,422.8z M124.9,146.7c-29.9,0-59.6,3.1-88.9,9.3
		c-7.7,1.6-16.3,3.9-21.5,10c-8.7,10.1-4.6,25.5,1,40.7c14.1,37.5,23.4,76.6,27.9,116.5l0.2,1.8c2.1,18.8,4.4,40.1,18.7,52.6
		c10.4,9.1,25.4,11.7,37.5,13.8l103.6,17.9c23,4,46.7,8,70.2,11.2c8.9,1.2,18.1,2,25.3-2.6c8.3-5.4,10.9-16.1,12.8-26.7
		c7.5-41.6,15.4-84.6,14.5-127.6c-0.2-10.3-0.9-21.3-4.5-31.6c-3.9-11.1-10.9-19.6-19.6-24c-3.2-1.5-6.5-2.8-9.9-3.7
		c-5.3-1.7-10.7-3.4-15-7c-4-3.3-6.6-7.9-9.1-12.3c-0.9-1.6-1.9-3.4-2.9-5c-8-12.6-21.9-21.7-37.3-24.4c-6.8-1.1-13.8-1.8-20.7-2.1
		c-6-0.4-12.1-0.8-18.1-1.7c-17-2.5-34.2-4.1-51.4-4.6C133.4,146.8,129.1,146.7,124.9,146.7z"></path><path class="st0" d="M255.6,261.7c4.2,1.2,8.6,2.7,11.3,6.2s2.8,8.4,2.8,12.8c0,9.3,0,18.7,0,28c0,3.2-0.2,6.7-2.5,8.8
		c-2.6,2.4-6.6,1.9-10.1,1.2l-60.5-11.4c-6-1.1-12.7-2.6-16.2-7.6c-3.2-4.5-3-10.4-2.6-15.9c0.5-8-1.5-23,2.1-30s11.2-4.6,18.2-3.8
		C216.6,252.3,238,254.7,255.6,261.7z"></path><path class="st0" d="M268.5,340.6c0.8,0.2,1.5,0.7,1.8,1.5c0.3,1.1-0.2,2.3-1.3,2.8c-1,0.3-2,0.3-3,0l-128-24.4
		c-0.6,0-1.1-0.3-1.5-0.8c-0.4-0.8-0.2-1.7,0.5-2.3c0.7-0.4,1.4-0.6,2.2-0.6c16.8-0.7,33.5,2.8,50,6.3c21.7,4.6,43.4,9.4,65.2,13.7
		C259.5,337.9,263.6,338.6,268.5,340.6z"></path><path class="st0" d="M266.3,357.8c2.3,0.8,1.8,4.7-0.6,4.6c-4.2-0.1-8.5-1.5-12.5-2.8c-27.2-8.5-55.2-13.1-83.3-15.8
		c-15.4-1.5-42.4-4.3-30.3-8.1c1,0.8,4.7,0.3,6,0.4c2.4,0.2,4.7,0.3,7.1,0.5c4.5,0.4,9,0.8,13.6,1.2c8.9,0.9,17.7,2.1,26.5,3.4
		c17.8,2.7,35.5,6.3,53.1,10.8c5,1.3,9.9,2.6,14.9,4C262.6,356.8,264.5,357.1,266.3,357.8z"></path><path class="st0" d="M258.2,383.2c-33.1-7.2-65.5-23.2-98.9-24.5c-3.8-0.1-7.7-0.1-11.4-1.2c-0.5-0.1-1-0.3-1.5-0.5
		c-2.3-1-1.6-6.3,0.8-5.8l40.8,8.1c22.9,4.5,45.8,9.1,68.2,17.9c2,0.8,4.4,0.6,6.7,0.9c2.5,0.4,2.2,6.1-0.3,5.9
		C261.1,383.8,259.7,383.6,258.2,383.2z"></path></g><g id="loop"><path class="st2" d="M390.2,283c1.8,4,3.6,8.3,3,12.8c-1,7.5-8.3,13-15.4,16.7c-33.8,17.6-77.6,14.4-106-7.7s-39.9-61.9-27.6-96.2
		c6.6-18.5,19.9-34.8,36.6-46.4c10.7-7.4,37.4-23.9,49.7-14.4c7.2,5.5,10.3,21.5,13.8,29.6l15.6,35.9L390.2,283z"></path><path class="st0" d="M330.5,324.6c-21.6,0-42.8-6.5-59.2-19.3c-28.8-22.4-40.2-62.3-27.8-97c6.5-18.1,19.6-34.7,36.9-46.8
		c8.5-6,37.3-24.6,50.5-14.3c5.3,4.1,8.3,13.3,11,21.5c1,3.2,2,6.1,3,8.4l46,105.6l0,0c1.6,3.7,3.6,8.4,3,13.1
		c-0.9,6.4-6.2,12.2-15.8,17.3C363.4,320.8,347.1,324.7,330.5,324.6z M320.8,145.6c-13.8,0-33,12.5-39.6,17.1
		c-17,11.9-29.9,28.2-36.3,46.1c-12.2,34.1-1,73.3,27.3,95.3s71.6,25.2,105.2,7.7c9.2-4.8,14.2-10.2,15-16.1
		c0.6-4.4-1.3-8.6-2.9-12.4l-45.9-105.5c-1-2.4-2-5.4-3.1-8.6c-2.6-8-5.6-17-10.5-20.8C327.4,146.5,324.1,145.5,320.8,145.6
		L320.8,145.6z"></path><path class="st0" d="M302.3,295.8c1.1,2.4,1.9,4.9,2.2,7.5c0.3,3.3-1.2,6.4-4,8.1c-10.6,7-26.7,1.2-39-14s-20-38.9-18.7-57.3
		c0.7-9.9,4-18,9-23.1c3.2-3.3,11.3-10.2,16.6-3.7c3.1,3.8,5.6,13.2,7.7,18.1l8.9,21.9L302.3,295.8z"></path><path class="st1" d="M233.1,239.4c2.8-39.7,25.5-78.6,61.1-96.2s83.2-10.7,109,19.6c16.8,19.8,23.3,46.8,21.7,72.7
		c-1,16.3-4.8,32.2-10.2,47.5c-2.5,7.2-7.7,15.1-9.1,22.5c-1.7,8.5,1.4,10.7,7.1,18.1c22.4,29.5,44.8,59,67.3,88.5
		c5,6.5,10.1,13.5,11.2,21.7s-3.7,17.7-11.9,18.8c-8.9,1.2-15.7-7.5-20.5-15.1l-72.1-115c-22.4,14.4-49.8,21.5-76.1,17.8
		s-51.3-19-64.9-41.8C235.2,280.9,231.7,259.8,233.1,239.4z M315,314.5c32.7,6.8,68.9-9.3,85.8-38.2s13.4-68.2-8.2-93.7
		c-20.2-23.9-64.3-39.7-93.1-21.9S248.4,210,252,245C255.5,278.2,282.2,307.7,315,314.5z"></path><path class="st0" d="M482.2,442.9c-0.1,0-0.2,0-0.2-0.1c-3.5-2-5.9-5.4-8-8.4l-84.6-119.4c-30.8,22.6-76.2,23.7-108,2.5
		s-48.4-63.9-39-101.2c0.1-0.3,0.3-0.4,0.6-0.4c0,0,0,0,0,0c0.3,0.1,0.4,0.3,0.4,0.6c-9.2,36.9,7,79,38.6,100.1
		c15.1,10.1,33.3,15.1,51.5,15.1c19.9,0,39.8-6,55.7-17.8c0.1-0.1,0.2-0.1,0.4-0.1c0.1,0,0.3,0.1,0.3,0.2l84.9,119.8
		c2.1,2.9,4.4,6.2,7.7,8.1c0.2,0.1,0.3,0.4,0.2,0.7C482.6,442.8,482.4,442.9,482.2,442.9z"></path></g></svg>