<svg transform="scale(1)" version="1.1" id="bO0SkBWkRA" xmlns="http://www.w3.org/2000/svg" xmlns:xlink="http://www.w3.org/1999/xlink" x="0px" y="0px" viewBox="0 0 500 500" xml:space="preserve" class="pbimage_pbimage__wrapper__image__0LEis false"><title>Page Not Found 2</title><style type="text/css"> .st0{fill:#128FFF;} .st1{fill:#111111;} .st2{fill:#FFFFFF;}
 .st2{fill:#FFFFFF;}
 .st1{fill:#111111;}
 .st0{fill:#128FFF;}</style><g id="desk"><path class="st0" d="M241.3,290.3c10.5-0.6,22.9,0.6,28.5,9.5c3.9,6.1,3.1,14.2-0.1,20.7s-8.7,11.5-14.1,16.2
		c-11.8,10-24.4,19-37.7,26.9c-4.1,2.4-8.3,4.8-11.4,8.3s-4.9,8.7-3.3,13.1c2.6,6.9,11.3,8.6,18.7,9.3l35.5,3.2
		c6.4,0.6,14.2,2.4,15.5,8.6c1.5,7.1-6.9,12-13.9,14c-42.9,11.8-88.5,8.2-129-10.2c-9.7-4.4-19-9.8-26.6-17.2
		c-7-6.9-18.2-20.8-14-31c15.6-38.1,77.6-55.2,104.9-63.2C209.6,294,225.4,291.2,241.3,290.3z" fill="#128FFF"></path><path class="st0" d="M302.7,395.9c-4.7,0.8-10,2.7-11.6,7.2c-1.3,3.8,0.7,8.2,3.9,10.6s7.3,3.4,11.3,3.8c7.7,0.8,15.5,0.2,23-2
		c3.2-0.9,6.5-2.2,9-4.5C355.3,394.9,309.1,394.9,302.7,395.9z" fill="#128FFF"></path><path class="st1" d="M197.8,392.2h-0.2c-6.4-2.4-10.7-9.7-10.2-17.4c0.4-6.4,3.8-13,9.6-18.6c4.5-4.4,9.9-7.7,15-11l2.1-1.3
		c11.2-7.1,22.1-15,32.4-23.4c3.7-3,7.1-6,9.1-10c1.8-3.6,2.2-9-1-12.4c-0.2-0.2-0.2-0.5,0-0.7c0,0,0,0,0,0c0.2-0.2,0.5-0.2,0.7,0
		c0,0,0,0,0,0c3.5,3.7,3.1,9.6,1.2,13.5c-2,4.2-5.6,7.3-9.3,10.4c-10.3,8.5-21.2,16.3-32.5,23.5l-2,1.3c-5.1,3.2-10.5,6.6-14.9,10.9
		c-5.6,5.4-8.9,11.8-9.2,17.9c-0.4,7.3,3.6,14.2,9.6,16.4c0.3,0,0.5,0.3,0.4,0.6S198.1,392.3,197.8,392.2L197.8,392.2z" fill="#111111"></path></g><g id="imac"><path class="st1" d="M129.1,334.5c0.2,5.4,0.6,11,3.3,15c3.3,4.9,8.9,5.8,14,6.4c2.4,0.3,4.9,0.5,7.3-0.3c2.2-0.9,4.2-2.2,6-3.8
		l20.6-16.4c-4.4-2.2-9.5-3-14.4-2.2c-5.1,0.7-9.5-5.9-12-12c-2.2-5.5-2.3-12.1-2.1-18.3c0.4-12.7,2.2-25.4,5.1-37.8l-15.7,1.5
		c-2.8,0.3-5.6,0.5-8.5,0.8s-3,0-2.8,3.1c0.7,13.4-1.1,27.1-1.2,40.5C128.7,318.9,128.8,326.7,129.1,334.5z"></path><path class="st2" d="M152.9,349.6c-0.1,0-0.2,0-0.3-0.1c-2.3-1.7-5.1-1.8-8.1-1.9c-3.4-0.1-7-0.2-9.8-3c-4-4.1-4.7-12.2-4.9-19.7
		c-0.4-15.6,0.7-31.2,3.3-46.6c0.1-0.3,0.3-0.5,0.6-0.4c0.3,0,0.5,0.3,0.4,0.6c-2.6,15.3-3.7,30.9-3.3,46.4c0.2,6.8,0.9,15.1,4.6,19
		c2.5,2.5,5.7,2.6,9.1,2.7c3,0.1,6.1,0.2,8.6,2.1c0.2,0.2,0.3,0.5,0.1,0.7C153.2,349.6,153.1,349.7,152.9,349.6L152.9,349.6z"></path><g id="presentation"><path class="st0" d="M53.6,339.6C48.3,313,20.8,182.5,15.3,155.1c-0.6-2.9-0.9-6.5,1.6-7.9c1.1-0.6,4.5-5.3,5.8-5.3
			c6.7-0.1,19.3-0.1,25.5-0.2c19-0.3,119.5-4,130-4c2.1,0,4.6,0.2,6.1,2.7c0.8,1.5,1.3,3.1,1.5,4.7c3,16.6,21.1,95.8,24,112
			c0.3,1.8,2.4,5.9,2,7.6c-0.6,2.6-5.4,9.8-7.2,10.7c-7.9,3.6-102.3,51.2-116.2,58.8c-7.2,4-14.7,7.9-22.4,12.4
			C59,350.4,55,346.4,53.6,339.6z"></path></g><g id="presentation-2"><path class="st0" d="M59.5,334.7c-5-26.5-30-153.6-34.8-179.7c-0.5-2.8-0.8-6.1,1.7-7.4c1.2-0.5,2.5-0.7,3.8-0.6l19.1,0.1
			c18.8,0.1,121.2-4.7,131-4.4c2,0,4.3,0.3,5.8,2.6c0.7,1.4,1.2,2.8,1.4,4.4c3,15.3,20.2,97.5,23.3,113c0.4,1.7,0.5,3.5,0.3,5.2
			c-0.6,2.5-2.5,3.6-4.2,4.3c-7.4,3.4-98.8,49.3-112.6,56.9C87.2,333,79.7,337,72,341.5C64.8,345.6,60.8,341.6,59.5,334.7z"></path></g><g id="presentation-3"><path class="st1" d="M59.5,335.2c-0.2,0-0.5-0.2-0.5-0.4c-2.5-13.3-10.1-52.4-17.5-90.2c-7.3-37.7-14.9-76.5-17.3-89.5
			c-0.5-2.9-0.8-6.5,2-7.9c1.3-0.5,2.7-0.7,4.1-0.6l19.1,0.1c10.1,0.1,45.1-1.3,75.9-2.6c27.1-1.1,50.5-2,55-1.9
			c0.3,0,0.5,0.2,0.5,0.5c0,0,0,0,0,0c0,0.3-0.2,0.5-0.5,0.5c0,0,0,0,0,0c-4.5-0.1-29,0.9-55,1.9c-30.8,1.2-65.8,2.6-76,2.6
			l-19.1-0.1c-1.2-0.1-2.5,0.1-3.6,0.5c-2.2,1.1-1.9,4.2-1.4,6.8c2.4,13,10,51.9,17.3,89.5c7.4,37.8,15,76.9,17.5,90.2
			C60,334.9,59.8,335.2,59.5,335.2L59.5,335.2z"></path></g><path class="st1" d="M209.6,256.5c0.4,2.1,0.8,4.2,1.2,6.2c0.4,1.7,0.5,3.5,0.3,5.2c-0.6,2.5-2.5,3.6-4.2,4.3
		c-7.4,3.4-98.8,49.3-112.6,56.9c-7.2,3.9-14.7,7.9-22.4,12.4c-7.1,4.1-11.1,0.1-12.4-6.7c-0.5-2.6-1-5.2-1.5-7.8L209.6,256.5z"></path><g id="presentation-4"><path class="st2" d="M64.9,304.6C61.1,283.9,41.6,185,37.8,164.7c-0.4-2.2-0.6-4.8,1.6-5.8c1.1-0.4,2.2-0.6,3.3-0.6l16.7-0.4
			c16.5-0.4,109.5-7.1,118.6-7.2c1.8,0,4,0.1,5.3,2c0.7,1.1,1.1,2.3,1.2,3.5c2.4,12.4,16.4,79,18.8,91.5c0.4,1.4,0.4,2.8,0.1,4.2
			c-0.6,2-2.4,2.9-4.1,3.5c-7.1,2.8-91.6,39.2-104,45c-6.4,3-13.1,6.1-20,9.5C69.3,313,65.9,309.9,64.9,304.6z"></path><path class="st1" d="M71.1,311.9c-1,0-1.9-0.2-2.8-0.6c-2.1-1-3.5-3.3-4.1-6.5l0,0c-1.9-10.3-7.8-40.8-13.6-70.2
			C44.9,205.2,39,175,37.1,164.8c-0.3-1.4-1-5.2,2-6.6c1.2-0.5,2.4-0.7,3.7-0.6l16.7-0.4c8.9-0.2,40.3-2.3,68-4.1
			c23.9-1.6,46.4-3.1,50.7-3.1c2.1,0,4.5,0.2,5.9,2.3c0.7,1.2,1.2,2.5,1.4,3.8c1.2,6.2,5.4,26.2,9.4,45.6s8.2,39.6,9.4,45.9
			c0.4,1.5,0.4,3.1,0.1,4.6c-0.8,2.5-3.2,3.5-4.5,4c-6.4,2.5-91,38.9-103.9,45l-5.3,2.5c-4.8,2.2-9.7,4.5-14.7,7
			C74.5,311.4,72.8,311.8,71.1,311.9z M178.4,151.4h-0.2c-4.2,0-26.7,1.5-50.6,3.1c-27.7,1.8-59.1,3.9-68,4.1L42.8,159
			c-1,0-2,0.1-3,0.5c-1.4,0.7-1.7,2.2-1.2,5c1.9,10.1,7.8,40.4,13.5,69.7s11.7,59.9,13.6,70.2l0,0c0.4,1.9,1.2,4.5,3.3,5.5
			c1.6,0.8,3.8,0.6,6.3-0.7c5-2.5,10-4.8,14.7-7l5.3-2.5c13-6.1,97.5-42.5,104-45.1c1.6-0.6,3.1-1.3,3.6-3c0.3-1.3,0.2-2.6-0.1-3.8
			c-1.2-6.3-5.4-26.4-9.4-45.9s-8.2-39.4-9.4-45.6c-0.1-1.1-0.5-2.2-1.1-3.2C181.8,151.7,180.1,151.4,178.4,151.4z"></path></g></g><g id="_404"><path class="st1" d="M72.2,238.6c-1,2.4-1.9,5.7-0.5,7.9c1.2,1.9,3.4,1.9,5.3,1.7c5.5-0.8,11-2.2,16.2-4.2
		c0.2,5.2,0.6,10.4,1.2,15.6c0.1,1.5,0.4,3,0.9,4.4c0.4,1.3,1.4,2.3,2.7,2.7c1.4,0.2,2.8-1.1,3.4-2.9c0.6-1.8,0.8-3.7,0.7-5.6
		c-0.2-5.7-0.9-11.4-1.9-17c1.2-1.3,2.8-1.6,4.1-2.4c1.6-1,2.4-2.9,2.1-4.8c-0.4-1.4-1.7-2.4-3.2-2.3c-1.3,0.1-2.5,0.6-3.8,0.6
		c0.1-1.4,0.1-2.9-0.1-4.3c-0.2-1.3-0.9-2.5-2.1-3.2c-1.4-0.6-2.9,0.7-3.6,2.4c-0.5,1.9-0.7,3.8-0.6,5.8L83,237.2
		c-0.8,0.3-1.9,0.4-2.1-0.6c-0.1-0.5,0-1,0.2-1.4C86,223.4,93,213.4,96.8,201c0.4-1.2,0.6-2.5,0.7-3.7c0.1-1.3-0.4-2.5-1.3-3.5
		c-1.4-1.2-3.1-0.2-4.2,1.1c-1.9,2.2-3.2,4.9-3.9,7.7c-0.5,2.1-7.9,18.5-10.9,24.9C75.5,231.1,73.8,234.8,72.2,238.6z"></path><path class="st1" d="M144.4,215.5c-0.9,2.2-1.7,5-0.6,7.1c0.9,1.8,2.7,1.9,4.1,1.7c4.4-0.5,8.7-1.5,12.9-3.2
		c0,4.7,0.2,9.4,0.5,14.1c0,1.4,0.3,2.7,0.6,4.1c0.4,1.2,1.1,2.3,2.1,2.5c1.1,0.3,2.2-0.9,2.8-2.4c0.5-1.6,0.7-3.3,0.7-5
		c-0.1-5.2-0.4-10.3-1.1-15.4c1-1.1,2.2-1.4,3.3-2.1c1.4-0.9,2-2.6,1.8-4.2c-0.2-1.2-1.2-2.2-2.5-2.2c-1,0-2,0.5-3,0.4
		c0.1-1.3,0.1-2.6,0-3.9c-0.1-1.2-0.6-2.3-1.6-3c-1.1-0.6-2.4,0.5-2.9,2.1c-0.5,1.7-0.7,3.5-0.6,5.2l-8.1,3.4
		c-0.6,0.2-1.5,0.3-1.6-0.6c0-0.4,0-0.9,0.2-1.2c4.2-10.5,10-19.3,13.3-30.4c0.4-1.1,0.6-2.2,0.6-3.3c0.1-1.1-0.3-2.3-0.9-3.2
		c-1.1-1.1-2.4-0.2-3.4,0.9c-1.6,2-2.7,4.3-3.3,6.8c-0.5,1.9-6.7,16.4-9.2,22C147.1,208.9,145.7,212.1,144.4,215.5z"></path><path class="st1" d="M134.5,203.4c-1.8-5.3-3.5-8.4-7.3-10.9c-2.8-1.8-5.6-2.6-8.5-1.1c-3.8,2-6.4,7-7.5,12.6s-1,11.5-0.6,17.3
		c0.4,6.1,1.2,12.1,2.2,17.9c0.5,3.6,1.5,7.1,2.7,10.5c1.3,3.2,3.3,6,5.7,7.3c3.4,1.8,7.4,0.6,10.2-2.5s4.6-7.6,5.5-12.5
		c0.8-4.9,1.1-9.9,0.9-14.9C137.7,219.2,137,211,134.5,203.4z M129.9,219c0.6,5.2,0.9,10.4,0.7,15.6c0,2-0.1,4.1-0.6,6.1
		c-0.5,1.9-1.5,3.7-3,4.2c-1.7,0.6-3.4-0.7-4.6-2.5c-1.1-2.1-1.8-4.4-2.1-6.7c-0.8-4.6-1.4-9.3-1.8-14c-0.3-3.1-0.3-6.2-0.1-9.2
		c0.4-3.6,2.7-11.3,6.2-8C127.8,207.2,129.3,214.6,129.9,219z"></path></g><g id="attention"><path class="st2" d="M138.2,144.6c-1.8,4-3.5,8.9-0.9,12.4c1.8,2.4,5,3.2,8,3.8c15,2.6,30.3,2.3,45.1-0.8c4.1-0.9,8.5-2.2,10.8-5.7
		c2.1-3.2,1.9-7.4,1.3-11.2c-2.4-15.9-9.2-30.7-19.6-43c-2.3-2.7-6-6.5-10-5.4c-3.2,0.8-6,5.2-8.2,7.5c-7.1,7.9-13.3,16.7-18.3,26.2
		C143.4,133.5,140.8,139,138.2,144.6z"></path><path class="st1" d="M165.6,163.2c-6.9,0-13.7-0.6-20.5-1.8c-3.3-0.6-6.5-1.5-8.4-4c-2.9-3.9-1.1-9.1,0.8-13.2l0,0
		c2.9-6.2,5.5-11.6,8.2-16.4c5.1-9.5,11.2-18.3,18.4-26.3c0.5-0.5,1-1.2,1.6-1.8c1.9-2.3,4.3-5.2,6.9-5.9c4.4-1.2,8.3,2.7,10.8,5.7
		c10.5,12.4,17.3,27.4,19.7,43.4c0.6,3.9,0.9,8.3-1.4,11.7c-2.4,3.7-7,5.1-11.2,6C182.3,162.4,174,163.2,165.6,163.2z M174.3,95.1
		c-0.4,0-0.8,0.1-1.2,0.2c-2.2,0.6-4.4,3.2-6.2,5.4c-0.6,0.7-1.1,1.3-1.6,1.9c-7.1,7.9-13.2,16.6-18.2,26
		c-2.6,4.8-5.3,10.1-8.1,16.3l0,0c-1.7,3.7-3.4,8.4-1,11.7c1.6,2.2,4.6,2.9,7.5,3.4c14.9,2.6,30.1,2.3,44.9-0.8
		c3.9-0.8,8.1-2.1,10.3-5.4c2-3,1.7-7.1,1.2-10.7c-2.4-15.7-9.1-30.5-19.4-42.7C180.3,98.1,177.4,95.1,174.3,95.1z M138.2,144.6
		L138.2,144.6z"></path><g id="actions"><path class="st0" d="M169.4,144.4c0.5,2.3,4.4,2.5,4.8,0.2v-0.1c2.6-12.3,5.1-24.8,3.4-37.5c-0.5-3.8-4.1-4.4-5.7-0.9
			c-1.4,3.5-2.4,7.2-2.9,11c-1.3,7.4-1.5,15.1-0.4,22.6C168.8,141.2,169.1,142.8,169.4,144.4z"></path><path class="st0" d="M169.5,151.4c-1.7,0.5-2.6,1.7-2.1,2.9l0,0c0.5,0.9,1.3,1.6,2.3,1.9c1.2,0.4,2.5,0.4,3.8,0.1
			c1.6-0.4,2.7-1.3,2.7-2.4c-0.2-1.5-1.3-2.7-2.8-3.1C172.1,150.8,170.7,150.9,169.5,151.4z"></path></g></g><g id="attention-2"><path class="st2" d="M24.4,300.9c0.5,3.4,1.4,7.3,4.6,8.5c2.2,0.8,4.6,0,6.8-0.9c10.9-4.5,20.8-11.1,29.2-19.3
		c2.3-2.3,4.6-5,4.7-8.2c0-3-1.8-5.6-3.8-7.9c-8.2-9.4-18.8-16.3-30.7-20.1c-2.6-0.8-6.7-1.8-8.8,0.6c-1.8,1.9-1.8,6-2.2,8.3
		c-1.4,8.2-1.7,16.5-1.1,24.8C23.3,291.5,23.8,296.2,24.4,300.9z"></path><path class="st1" d="M31,310.5c-0.8,0-1.5-0.1-2.3-0.4c-3.6-1.4-4.6-5.6-5-9.1c-0.7-5.3-1.2-9.9-1.5-14.2c-0.6-8.3-0.3-16.7,1.1-25
		c0.1-0.5,0.2-1.2,0.3-1.8c0.3-2.3,0.6-5.2,2.1-6.9c2.5-2.6,6.7-1.7,9.6-0.8c12,3.7,22.8,10.8,31.1,20.3c2,2.3,4.1,5.1,4,8.4
		c-0.1,3.5-2.5,6.4-4.9,8.7c-8.5,8.3-18.5,14.9-29.5,19.5C34.5,310,32.8,310.4,31,310.5z M30.3,252.9c-1.3-0.1-2.5,0.4-3.5,1.2
		c-1.2,1.3-1.5,3.9-1.8,6c-0.1,0.7-0.2,1.4-0.3,1.9c-1.4,8.1-1.7,16.4-1.1,24.6c0.3,4.2,0.7,8.8,1.5,14.1l0,0
		c0.4,3.1,1.3,6.8,4.1,7.9c1.9,0.7,4.1,0,6.2-0.9c10.8-4.5,20.6-11,29-19.2c2.2-2.1,4.4-4.7,4.5-7.7c0-2.8-1.8-5.3-3.6-7.4
		c-8.1-9.3-18.6-16.1-30.3-19.8C33.5,253.3,31.9,253,30.3,252.9z"></path><g id="actions-2"><path class="st0" d="M44.8,287.8c1.2,1.3,3.9-0.2,3.3-1.8v-0.1c-3.5-9.1-7-18.4-13.4-26c-2-2.3-4.5-1.2-4.1,1.8
			c0.5,2.9,1.4,5.7,2.6,8.4c2.2,5.4,5.3,10.5,9.1,15C43.1,286,44,286.9,44.8,287.8z"></path><path class="st0" d="M47.8,292.4c-0.9,1.1-1,2.2-0.2,2.8l0,0c0.7,0.4,1.5,0.5,2.3,0.3c1-0.2,1.8-0.8,2.5-1.5
			c0.9-0.9,1.2-2,0.8-2.7c-0.7-0.9-2-1.3-3.1-0.9C49.2,290.9,48.4,291.6,47.8,292.4z"></path></g></g><g id="attention-3"><path class="st2" d="M70.8,312.8c-0.8,2.3-1.4,5.1,0.2,6.9c1.1,1.2,3,1.5,4.7,1.7c8.5,0.7,17-0.2,25.1-2.6c2.2-0.7,4.6-1.6,5.7-3.6
		c1-1.9,0.6-4.1,0.1-6.2c-2.3-8.7-7-16.5-13.4-22.8c-1.4-1.4-3.8-3.3-5.9-2.5c-1.7,0.6-3.1,3.2-4.1,4.5c-3.5,4.7-6.4,9.8-8.7,15.3
		C73,306.5,71.8,309.6,70.8,312.8z"></path><path class="st1" d="M81.3,322.3c-1.9,0-3.8-0.1-5.7-0.2c-1.9-0.2-3.9-0.5-5.2-1.9c-1.9-2.2-1.2-5.2-0.4-7.6l0,0
		c1.2-3.6,2.4-6.7,3.6-9.5c2.3-5.5,5.2-10.7,8.8-15.4c0.2-0.3,0.5-0.7,0.8-1.1c0.9-1.4,2.1-3.1,3.7-3.7c2.5-0.9,5,1.1,6.7,2.7
		c6.6,6.3,11.3,14.3,13.6,23.1c0.6,2.1,1,4.6-0.1,6.8s-3.8,3.3-6.1,4C94.5,321.3,87.9,322.3,81.3,322.3z M71.5,313L71.5,313
		c-0.7,2-1.3,4.6,0.1,6.1c0.9,1,2.6,1.3,4.2,1.4c8.4,0.7,16.8-0.1,24.8-2.6c2-0.6,4.3-1.5,5.2-3.3s0.5-3.8,0-5.7
		c-2.3-8.5-6.8-16.3-13.2-22.4c-2.1-2.1-3.8-2.8-5.1-2.4c-1.1,0.4-2.1,1.9-3,3.1c-0.3,0.4-0.6,0.8-0.8,1.1
		c-3.5,4.7-6.3,9.7-8.6,15.1C73.8,306.4,72.7,309.5,71.5,313z"></path><g id="actions-3"><path class="st0" d="M88.1,311.2c0.4,1.2,2.6,1.1,2.7-0.1v0c0.7-6.9,1.4-13.9-0.3-20.8c-0.5-2.1-2.5-2.2-3.2-0.2
			c-0.6,2-0.9,4.1-1,6.2c-0.3,4.2,0.1,8.4,1.1,12.4C87.6,309.5,87.9,310.4,88.1,311.2z"></path><path class="st0" d="M88.6,315.1c-0.9,0.4-1.4,1-1,1.7l0,0c0.3,0.5,0.8,0.8,1.4,0.9c0.7,0.2,1.4,0.1,2.1-0.1
			c0.9-0.3,1.4-0.9,1.4-1.5c-0.2-0.8-0.9-1.4-1.7-1.5C90,314.6,89.3,314.7,88.6,315.1z"></path></g></g><g id="character"><path class="st2" d="M256.2,296.5c-7.3,3.6-16.8,6.2-23.1,1.1c-6.8-5.4-5.8-15.9-3.6-24.3c3.7-14.6,8.9-28.9,15.5-42.5
		c2-4.1,3.9-9.4,1-12.8c-4-4.5-11.7-0.2-14.3,5.2s-3.3,12.1-7.8,16.1c-4,1.3-7.9-3.2-7.9-7.4s2.6-7.9,4.9-11.4s4.6-7.4,4-11.6
		c-0.9-6.2-7.9-9.7-14.1-10.2c-16-1.3-31.7,12-33.2,27.9s11.5,31.9,27.4,33.6c0.8,12.9-2.4,25.8-2,38.7s5.7,27.1,17.6,32.1
		c13.6,5.7,28.7-2.9,40.1-12.2c20.7-16.8,38.3-37.1,52.2-59.8c2.5-4.1,5.7-18.7-3.2-14.9c-3.7,1.6-9,15.1-11.7,18.6
		C286.6,277.1,272.4,288.6,256.2,296.5z"></path><path class="st1" d="M229.7,333.8c-3.3,0-6.5-0.6-9.6-1.9c-12.8-5.4-17.7-20.5-18.1-32.8c0-6.1,0.3-12.2,1.1-18.3
		c0.7-6.5,1.4-13.1,1-19.7c-15.9-2.1-29-18.3-27.5-34.4c1.5-16.2,17.8-29.9,34-28.6c6.4,0.5,13.8,4.1,14.8,10.8
		c0.6,4.3-1.6,8.4-4.1,12.1l-0.2,0.4c-2.2,3.3-4.5,6.8-4.5,10.6c0,2.3,1.1,4.4,2.9,5.8c1.1,0.9,2.5,1.2,3.8,0.9
		c2.8-2.5,4.1-6.2,5.4-10c0.6-1.9,1.3-3.8,2.2-5.7c1.8-3.8,5.9-7,9.6-7.5c2.2-0.4,4.4,0.4,5.9,2.1c3.2,3.7,1.2,9.2-0.9,13.6
		c-6.5,13.6-11.7,27.8-15.4,42.3c-2.9,11.5-1.8,19.4,3.4,23.5c6.2,5,15.6,2.1,22.3-1.2l0,0c16.1-7.9,30.1-19.3,41.2-33.3
		c1.4-2.1,2.7-4.3,3.8-6.6c2.8-5.4,5.7-11.1,8.3-12.2c3.1-1.4,4.8-0.5,5.7,0.5c2.9,3.3,0.4,12.5-1.5,15.5
		c-13.9,22.8-31.6,43.1-52.4,60C249.4,329.1,238.9,333.8,229.7,333.8z M208.6,199.5c-14.8,0-29,12.5-30.4,27.3
		c-1.5,15.5,11.3,31.1,26.8,32.8c0.4,0,0.6,0.3,0.7,0.7c0.4,6.9-0.3,13.8-1,20.5c-0.7,6-1.1,12.1-1.1,18.1
		c0.3,11.9,5,26.4,17.1,31.5c10.7,4.5,23.9,0.4,39.3-12.1c20.6-16.8,38.2-36.9,52-59.6c1.8-3,3.8-11.2,1.6-13.7
		c-0.8-0.9-2.1-0.9-3.9-0.1c-2.1,0.9-5.2,7-7.5,11.5c-1.1,2.4-2.4,4.7-3.9,6.9c-11.2,14.2-25.5,25.8-41.7,33.8l0,0
		c-7.1,3.5-17.1,6.5-23.9,1c-5.7-4.5-7-12.9-3.9-25c3.7-14.7,8.9-29,15.5-42.6c1.9-4,3.8-8.9,1.1-11.9c-1.1-1.3-2.9-1.9-4.6-1.6
		c-3.2,0.4-6.9,3.3-8.5,6.6c-0.8,1.8-1.5,3.6-2.1,5.5c-1.3,3.9-2.7,8-5.9,10.8c-0.1,0.1-0.2,0.1-0.3,0.1c-1.8,0.6-3.8,0.2-5.3-1
		c-2.2-1.7-3.5-4.3-3.6-7.1c0-4.3,2.5-7.9,4.8-11.4l0.2-0.4c2.3-3.5,4.4-7.3,3.9-11.1c-0.9-5.9-7.6-9.1-13.4-9.6
		C209.9,199.6,209.2,199.5,208.6,199.5z"></path><path class="st2" d="M274.2,215.4c2,5.5,4.3,11.1,8.5,15.7s10.7,8,17.1,7.6c8-0.5,13.6-6.4,17.5-12.2c7.2-10.8,11.5-22.9,15.8-34.9
		l18.6-52.5c2.2-6.3,4.5-13.2,1.6-19.7c-2.2-4.9-7.1-8.7-12.5-11s-11.3-3.5-17.1-4.5c-8.7-1.5-17.5-2.9-26.3-2.5s-17.5,2.6-23.8,7.6
		c-5.1,4-8.9,10.5-8.1,16.9c0.3,2.6,1.4,4.6,1.3,7.2c-0.1,3.8-1.2,7.6-1.5,11.4c-1.4,15.2-0.7,30.6,2.1,45.6
		C269,198.6,271.3,207.1,274.2,215.4z"></path><path class="st1" d="M298.8,239.4c-5.8,0-12.1-2.9-16.6-7.8c-4.3-4.6-6.7-10.4-8.6-15.9c-2.9-8.3-5.2-16.9-6.9-25.6
		c-2.8-15.1-3.5-30.5-2.1-45.7c0.1-1.6,0.4-3.3,0.7-4.9c0.4-2.1,0.7-4.3,0.8-6.5c0-1.4-0.2-2.8-0.6-4.1c-0.3-1-0.5-2-0.6-3
		c-0.8-6,2.5-12.9,8.4-17.5c7.5-5.9,17.3-7.4,24.2-7.7c8.8-0.4,17.9,1.1,26.4,2.6c6.3,1.1,12,2.2,17.3,4.5
		c6.2,2.7,10.8,6.8,12.9,11.4c2.9,6.4,0.9,13.2-1.6,20.2l-18.6,52.5c-4.2,11.9-8.6,24.2-15.9,35.1c-5.4,8-11.3,12.1-18.1,12.6
		C299.5,239.4,299.1,239.4,298.8,239.4z M274.9,215.2c2.2,6.2,4.5,11.2,8.3,15.4c4.5,4.9,10.8,7.7,16.5,7.3
		c6.3-0.4,11.8-4.3,16.9-11.9c7.2-10.7,11.5-22.9,15.7-34.7l18.6-52.5c2.4-6.7,4.3-13.2,1.6-19.1c-1.9-4.3-6.2-8.1-12.1-10.6
		c-5.2-2.3-10.8-3.3-17-4.4c-8.5-1.5-17.4-2.9-26.1-2.5c-6.7,0.3-16.2,1.8-23.4,7.4c-5.4,4.3-8.5,10.6-7.8,16.2
		c0.1,1,0.3,1.9,0.6,2.9c0.5,1.5,0.7,3,0.7,4.5c-0.1,2.3-0.4,4.5-0.8,6.7c-0.3,1.6-0.5,3.2-0.7,4.8c-1.4,15.1-0.7,30.4,2.1,45.3
		C269.7,198.4,272,206.9,274.9,215.2L274.9,215.2z"></path><path class="st1" d="M270.6,137.6c-0.9,4.5-1.4,9.1-0.5,13.6s3.6,8.8,7.7,10.8c-17.1,2.8-33.2-8.8-36-25.9
		c-0.1-0.9-0.3-1.8-0.3-2.7c-0.5-7.2,1.7-14.8,7.1-19.7s14.1-6,19.9-1.8c-0.5-21,16.2-38.5,37.3-39c5.1-0.1,10.2,0.8,14.9,2.7
		c9.9,3.9,17.7,11.8,25.1,19.5c8.5,9,17.4,18.8,19,31.1c1.6,11.7-4.1,23.8-13.5,30.9s-22,9.4-33.6,7.2c7.7-3.5,12.1-12.9,10.2-21.1
		s-9.5-14.7-18-15.6c-8.9-0.9-16.3,4-21.4,10.9c-2.6-3.4-3-8-7.4-9.7C274.7,126.2,271.7,132.2,270.6,137.6z"></path><path class="st2" d="M275.7,171.4c-2.6-4.4-8.2-6-12.7-3.4c-3,1.7-4.8,5-4.6,8.4c0.1,3.9,2.7,7.3,5.9,9.5s7,3.3,10.7,4.4"></path><path class="st1" d="M275,190.9c-0.1,0-0.1,0-0.2,0c-3.7-1.1-7.6-2.2-10.9-4.5c-3.8-2.6-6.1-6.3-6.3-10.1c-0.2-5.5,4-10.2,9.6-10.4
		c3.8-0.2,7.3,1.8,9.1,5.1c0.2,0.4,0.1,0.8-0.3,1c-0.4,0.2-0.8,0.1-1-0.3c-2.4-4.1-7.6-5.5-11.6-3.1c-2.7,1.6-4.4,4.5-4.2,7.7
		c0.1,3.3,2.2,6.6,5.6,8.9c3.1,2.1,6.9,3.2,10.5,4.3c0.4,0.1,0.6,0.5,0.5,0.9C275.7,190.7,275.3,190.9,275,190.9z"></path><path class="st1" d="M283.8,173.3c0.9,1.1,2.4,2,3.6,1.5c0.8-0.4,1.3-1.1,1.5-1.9c0.1-0.8,0-1.7-0.2-2.5c-0.6-2-2.9-7.1-5.8-6
		C279.6,165.5,282.4,171.6,283.8,173.3z"></path><path class="st1" d="M296.9,169.9c-0.7,1.6-0.9,3.8,0.5,4.8c1,0.6,2.2,0.6,3.1,0c0.9-0.6,1.7-1.4,2.3-2.3c1-1.2,1.6-2.7,1.8-4.3
		C304.8,161.1,298.1,167.1,296.9,169.9z"></path><path class="st2" d="M333.5,166.7c3.7-3.6,9.5-3.5,13.1,0.2c2.4,2.5,3.2,6.1,2.1,9.3c-1.2,3.7-4.6,6.3-8.3,7.5s-7.6,1.2-11.5,1.2"></path><path class="st1" d="M329,185.7c-0.4,0-0.8-0.3-0.8-0.8s0.3-0.8,0.8-0.8c3.8,0,7.7,0,11.3-1.2c3.9-1.3,6.8-3.9,7.8-7
		c1.5-4.5-1-9.3-5.5-10.7c-3-1-6.3-0.2-8.5,2c-0.4,0.2-0.8,0.1-1-0.2c-0.2-0.3-0.1-0.6,0-0.8c3.9-3.9,10.3-3.8,14.1,0.2
		c2.6,2.7,3.5,6.6,2.3,10.2c-1.2,3.6-4.5,6.5-8.8,8C337,185.7,332.9,185.7,329,185.7L329,185.7z"></path><path class="st1" d="M296.1,204.9c0.5-1.7,1.5-3.3,2.7-4.7c2.5-2.2,6.5-2,9.2,0c2.6,2.2,4,5.4,3.9,8.8c0.1,1.8-0.4,3.6-1.4,5
		c-1.4,1.6-3.6,2.2-5.8,2.5c-3.9,0.5-7.9,0.5-11.8-0.1c-3-0.5-5.5-2.2-3.1-4.8c1-1,2.9-1.2,4-2.2
		C294.8,208.1,295.6,206.6,296.1,204.9z"></path><path class="st0" d="M332.8,235.3c-11.3-0.3-23.6,7.3-24.3,18.5s9.4,19.5,14.9,29.2c13.2,23.3,0.2,55.9,15.9,77.5
		c10.8,14.9,31,18.6,49.2,21.2c10.9,1.6,22,3.1,32.8,0.8s21.2-9.3,24.4-19.8c3.8-12.4-3.1-25.4-10.2-36.2
		C413.6,293.3,378.4,236.7,332.8,235.3z"></path><path class="st1" d="M341,294.6c-0.8,0-1.5-0.6-2.2-1.9c-1.8-3.2-2.4-7.9-2.8-12.3c-3.5-1.3-7-2.7-10.3-4.4c-0.4-0.2-0.7-0.6-0.7-1
		c0-0.5,0.2-1,0.6-1.4c3.1-2.5,6.3-4.9,9.6-7.1c0-1,0-1.9,0-2.9c0-0.4,0.1-1.3,0.2-2.5c0.1-1.3,0.3-3,0.4-4.3c0-0.6,0.4-1.2,1-1.4
		c0.5-0.2,1-0.1,1.4,0.3l0,0c1.8,1.9,3.5,3.8,5.1,5.8c2.3-1.3,4.7-2.5,7-3.5c0.6-0.3,1.4-0.1,1.8,0.6c0.2,0.3,0.2,0.7,0.1,1l-3,10.5
		c2.5,4.1,4.6,8.3,6.3,12.8c0.2,0.5,0.1,1.1-0.2,1.5c-0.3,0.4-0.9,0.7-1.4,0.6c-2.8-0.4-5.5-1-8.3-1.6c0,0.1,0,0.2-0.1,0.3
		c-1.2,5.8-2.4,10.6-4.5,10.9L341,294.6z M337.1,280.8c0.4,4.2,1,8.6,2.6,11.5c0.5,0.9,1,1.4,1.4,1.3c1.5-0.2,3-6.9,3.6-10.1
		c0-0.1,0.1-0.2,0.1-0.4C342.2,282.4,339.6,281.6,337.1,280.8L337.1,280.8z M346,282.3c2.7,0.6,5.4,1.2,8.2,1.6
		c0.2,0,0.4-0.1,0.5-0.2c0.1-0.1,0.2-0.3,0.1-0.5c-1.6-4.1-3.6-8-5.8-11.8l-2.6,9.5C346.2,281.3,346.1,281.8,346,282.3L346,282.3z
		 M337,279.7c2.6,0.9,5.3,1.7,8,2.4c0.1-0.6,0.2-1,0.3-1.4l2.9-10.4c-1.6-2.6-3.3-5-5.1-7.4c-2.4,1.3-4.7,2.7-6.9,4.2
		c0,2.2,0.1,4.3,0.3,6.5c0.1,0.9,0.1,1.8,0.2,2.8S336.9,278.6,337,279.7L337,279.7z M335.2,267.8c-3.1,2.1-6.1,4.3-9,6.6
		c-0.1,0.1-0.2,0.3-0.2,0.5c0,0.1,0.1,0.2,0.1,0.2c3.2,1.6,6.5,3,9.8,4.2c-0.1-1-0.1-1.9-0.2-2.8s-0.1-2-0.2-2.8
		C335.4,271.7,335.3,269.7,335.2,267.8L335.2,267.8z M344,262.4c1.6,2.1,3.2,4.3,4.6,6.6l2.7-9.6c0-0.1,0-0.3-0.1-0.4
		c-0.1-0.1-0.3-0.1-0.4,0C348.6,260.1,346.3,261.2,344,262.4L344,262.4z M337.4,256.4h-0.1c-0.2,0.1-0.4,0.3-0.4,0.5
		c-0.1,1.4-0.3,3-0.4,4.4c-0.1,1.1-0.2,2-0.2,2.3c0,0.7,0,1.5,0,2.2c2.1-1.3,4.2-2.6,6.3-3.8c-1.5-2-3.2-3.8-4.9-5.6l0,0
		C337.5,256.5,337.5,256.4,337.4,256.4L337.4,256.4z"></path><path class="st1" d="M185.7,242.2c-0.3,0-0.5-0.2-0.5-0.5c-0.2-3.1,2.7-5.6,5.5-6.3c2.1-0.4,4.2-0.5,6.2-0.3c0.8,0,1.5,0.1,2.3,0.1
		c3.4,0,5.9-0.8,7.3-2.4c1.8-2.1,1.6-5.4,0.6-7.8c-1.2-2.6-3.4-4.8-5.3-6.7c-0.2-0.2-0.2-0.5,0-0.7c0.1-0.1,0.3-0.2,0.5-0.1
		c3.1,1.2,6.5,1.6,9.9,1.2c3.3-0.4,6.2-2.3,7.9-5.2c1.5-3,0.8-6.9-1.6-8.7c-0.2-0.2-0.2-0.5,0-0.7c0.2-0.2,0.4-0.2,0.7-0.1
		c2.8,2.1,3.6,6.5,1.8,9.9c-1.8,3.2-5,5.3-8.6,5.8c-2.8,0.4-5.6,0.1-8.3-0.7c1.7,1.6,3.1,3.5,4.1,5.6c1.4,3.2,1.1,6.6-0.8,8.8
		c-1.6,1.9-4.4,2.8-8.1,2.8c-0.8,0-1.5-0.1-2.3-0.1c-2-0.2-4-0.1-6,0.3c-2.5,0.6-4.9,2.8-4.8,5.3C186.2,241.9,186,242.1,185.7,242.2
		L185.7,242.2z"></path><path class="st2" d="M345.9,255.5c14.3,16.6,25.6,35.6,33.3,56.2c4.7,12.5,12.5,36.3,1.4,43.7c-8.2,5.4-25.7-5-32.4-12.1
		s-9.6-17-11.8-26.6c-1.1-5-2.2-10.2-5.4-14.2s-9.3-6.1-13.6-3.2s-4.4,9.1-2,13.5s6.8,7.2,11,10c-2.6,8-14.5,7.8-21.8,3.4
		s-13.5-11.4-22-12.1c-12.6-1-21.7,13.5-21,26.2c1.2,20.6,18.8,36.4,39.4,35.2c10.5-0.6,20.3-5.6,26.9-13.8
		c12.5,10.9,25.7,22,41.7,26.3s35.8-0.7,43.2-15.5c5.6-11.1,3-24.4-0.5-36.3c-9.4-31.7-28.1-61-46.2-88.9
		C351.6,224.5,324.3,230.6,345.9,255.5z"></path><path class="st1" d="M381,390.1c-3.9,0-7.8-0.5-11.6-1.5c-16.3-4.3-29.6-15.7-41.4-26c-13.7,16-37.7,17.9-53.7,4.2
		c-7.9-6.7-12.7-16.4-13.3-26.7c-0.4-8,2.6-15.9,8.2-21.7c3.5-3.7,8.5-5.6,13.6-5.3c6.2,0.5,11.2,4.3,16.1,7.9c2,1.5,4,3,6.1,4.3
		c4.7,2.9,11.1,3.8,15.5,2.1c2.2-0.7,4-2.4,4.9-4.6c-3.9-2.5-8.3-5.5-10.7-9.9s-2.4-11.3,2.2-14.5s11.2-0.8,14.6,3.4
		c3.2,4,4.3,9,5.4,13.9l0.1,0.6c2.1,9.5,5,19.2,11.6,26.2s23.8,17.1,31.5,12s7.1-19.4-1.6-42.8c-7.6-20.5-18.9-39.5-33.2-56
		c-6.8-7.8-9.5-14.6-7.6-19.2c1-2.5,3.3-4.1,6.5-4.4c6.3-0.6,15.7,3.6,22.6,14.4c17.2,26.5,36.6,56.6,46.3,89.1
		c3.3,11,6.3,25.2,0.4,36.8c-3.6,7.2-10.1,12.5-18.8,15.3C390.3,389.3,385.7,390.1,381,390.1z M328,360.8c0.2,0,0.4,0.1,0.5,0.2
		c11.8,10.2,25.2,21.8,41.4,26.1c19.9,5.3,36.7-3.9,42.4-15.1s2.6-25-0.5-35.7c-9.6-32.3-29-62.3-46.1-88.7
		c-6.6-10.2-15.6-14.2-21.2-13.7c-2.6,0.3-4.5,1.5-5.3,3.5c-1.6,4,1.1,10.4,7.4,17.7c14.4,16.7,25.7,35.8,33.4,56.4
		c9.1,24.4,9.5,39,1,44.5c-8.7,5.7-26.6-5.1-33.4-12.2s-9.8-17.2-12-26.9l-0.1-0.6c-1-4.7-2.1-9.6-5.1-13.3s-8.7-5.8-12.5-3.1
		s-3.9,8.6-1.8,12.5c2.4,4.3,6.8,7.2,10.7,9.7c0.3,0.2,0.4,0.5,0.3,0.9c-0.9,2.8-3.2,5.1-6,6c-4.8,1.8-11.7,0.8-16.8-2.3
		c-2.2-1.3-4.2-2.9-6.3-4.4c-4.9-3.7-9.6-7.2-15.4-7.6c-4.5-0.4-8.8,1.3-12.4,4.9c-5.3,5.5-8.2,12.9-7.8,20.5
		c1.2,20.2,18.5,35.6,38.7,34.4c10.2-0.6,19.7-5.4,26.2-13.3c0.1-0.2,0.3-0.3,0.5-0.3L328,360.8z"></path><path class="st1" d="M293.6,355.3c-3.8,0-7.6-0.7-11.2-2.2c-10.3-4.6-17-14.7-17.5-25.9c0-0.3,0.2-0.5,0.5-0.5c0,0,0,0,0,0
		c0.3,0,0.5,0.2,0.5,0.4c0,0,0,0,0,0c0.4,15.5,13.3,27.7,28.7,27.3c6.6-0.2,13-2.7,18-7.1c0.2-0.2,0.5-0.2,0.7-0.1s0.2,0.5,0.1,0.7
		c0,0-0.1,0.1-0.1,0.1C307.9,352.8,300.9,355.4,293.6,355.3z"></path><path class="st1" d="M348.2,364.7c-0.4,2.7-0.7,5.8-2.8,7.5c-2.6,2.1-6.5,0.8-9.5-0.6c-3.6-1.6-7.7-4-7.7-7.9c0-2,1.2-3.8,2.3-5.4
		c3.4-4.8,7.1-9.3,11.2-13.5c2-2.1,4.2-4.1,7-4.8c2.8-0.4,5.7,0.3,7.9,2c3.1,2.2,2.3,3.6,0.1,6.2
		C352.5,353.1,349.2,358.1,348.2,364.7z"></path></g><g id="question-mark"><path class="st2" d="M387.5,128.9c-8.3,7.8-13.6,18.3-17.3,29c-4,11.7-6.3,24.7-2.2,36.4c2.9,8.3,8.8,15.2,15.9,20.4
		c22.4,16.4,53.4,14,73.1-5.6c6.4-6.4,11.2-14.2,13.8-22.9c4.8-16.2,1.8-33.7-8.1-47.4C446,116.1,409.1,108.6,387.5,128.9z"></path><path class="st1" d="M417.3,226.3c-12.2,0-24-3.9-33.9-11c-7.8-5.7-13.4-12.9-16.2-20.8c-3.6-10.2-2.9-22.2,2.2-36.9
		c4.4-12.8,10.1-22.4,17.5-29.3c9.5-8.9,22.5-13.1,36.6-11.8c15.9,1.4,30.8,9.6,39.8,21.9c16,21.9,13.5,52.2-5.8,71.2
		c-9.7,9.6-22.4,15.4-36,16.5C420.1,226.3,418.7,226.3,417.3,226.3z M418.6,117.8c-11.8,0-22.5,4.1-30.6,11.6l0,0
		c-7.2,6.8-12.8,16.2-17.1,28.7c-4.9,14.3-5.6,26.1-2.2,35.9c2.7,7.6,8.1,14.5,15.6,20c22.1,16.1,52.7,13.8,72.1-5.5
		c6.3-6.3,11-14,13.6-22.6c4.7-16,1.8-33.2-8-46.8c-8.8-11.9-23.2-19.9-38.7-21.3C421.8,117.9,420.2,117.8,418.6,117.8z
		 M387.5,128.9L387.5,128.9z"></path><path class="st2" d="M365.1,214.1c-1.2,1.2-2,2.6-2.5,4.2c-0.7,1.7-0.8,3.5-0.3,5.2c0.5,1.2,1.2,2.2,2.3,2.9
		c3.2,2.3,7.7,2,10.5-0.8c2.7-2.7,3.1-7,0.8-10.1C373.5,212.3,368.2,211.2,365.1,214.1z"></path><path class="st1" d="M369.4,228.8c-1.9,0-3.7-0.6-5.2-1.7c-1.2-0.8-2.1-2-2.5-3.3c-0.6-1.9-0.4-3.9,0.3-5.7
		c0.5-1.7,1.4-3.2,2.7-4.5c1.6-1.4,3.6-2.1,5.7-1.9c2.4,0.2,4.7,1.5,6.2,3.4c1.6,2.2,2,4.9,1.3,7.5c-0.4,1.4-1.2,2.6-2.2,3.6
		c-1.5,1.5-3.5,2.4-5.6,2.6C369.9,228.8,369.6,228.8,369.4,228.8z M369.6,213.2c-1.5,0-2.9,0.5-3.9,1.5l0,0
		c-1.1,1.1-1.9,2.4-2.3,3.9c-0.6,1.5-0.7,3.2-0.3,4.7c0.4,1,1.1,1.9,2,2.6c2.9,2.1,6.9,1.8,9.5-0.7c0.8-0.8,1.5-1.9,1.8-3
		c0.6-2.1,0.2-4.4-1-6.1c-1.2-1.6-3.1-2.6-5.1-2.8H369.6z M365.1,214.1L365.1,214.1z"></path></g><g id="mad"><path class="st0" d="M426.5,135.2c-5,0-9.1-4.1-9.1-9.2c0-5,4.1-9.1,9.2-9.1c0.3,0,0.6,0,0.9,0c0-5.8,4.7-10.5,10.5-10.5
		c5.8,0,10.5,4.7,10.5,10.5c0,0.4,0,0.7-0.1,1.1c3.3-2,8.2,0.2,9,3.9c0.5-4.8,4.7-8.4,9.5-8.2c4.8,0.5,8.5,4.4,8.8,9.1
		c0.1,4.8-3.1,9-7.7,10.3c4,0.7,7.9,3.3,9.2,7.2s-0.8,8.8-4.8,9.8c1.5,1,2.2,2.8,1.8,4.5c-0.4,1.7-1.4,3.2-2.8,4.3
		c-4.9,3.9-12.1,3.1-16-1.8c-0.9-1.2-1.6-2.5-2-3.9L436,170.7c-1.2,1.2-2.5,2.4-4.1,2.6c-2.2,0.3-4.1-1.4-5.6-2.9
		c-3.6-3.6-7.1-7.4-10.2-11.5c-0.9-1-1.5-2.2-2-3.4c-1-3.6,2.4-6.8,4.3-9.3L426.5,135.2z"></path><path class="st2" d="M387.4,172.8c-2.5,13.6,4.4,28.5,16.5,35.1s28.6,4.2,38.1-5.8s10.9-26.8,3-38.2l-8.6,4l1.7-8.2l-8.7,2l1.5-10
		l-8.3,3.2l2.5-9.4c-3.1,1.3-6.2,2.4-9.4,3.4c0.2-1.9,1-3.8,0.8-5.7c-4.2,0-13.2,6.8-16.6,9.5C393.4,157.6,389,164.8,387.4,172.8z"></path><path class="st1" d="M418.8,212.3c-5.3,0-10.6-1.3-15.3-3.8c-12.4-6.7-19.5-21.8-16.9-35.9l0,0c1.6-8.2,6.1-15.5,12.6-20.6
		c2-1.6,12.2-9.6,17.1-9.7c0.4,0,0.7,0.3,0.8,0.7c0.1,1.3-0.1,2.5-0.4,3.7c-0.1,0.4-0.2,0.7-0.2,1c1.9-0.6,3.7-1.3,5.5-2
		c0.9-0.4,1.8-0.7,2.7-1.1c0.3-0.1,0.6,0,0.8,0.1c0.2,0.2,0.3,0.5,0.2,0.8l-2.1,8l6.9-2.6c0.3-0.1,0.5-0.1,0.7,0.1
		c0.2,0.2,0.3,0.4,0.3,0.7l-1.4,8.9l7.6-1.8c0.2-0.1,0.5,0,0.7,0.2c0.2,0.2,0.3,0.4,0.2,0.7l-1.4,6.8l7.3-3.4
		c0.3-0.2,0.7-0.1,0.9,0.2c8,11.6,6.7,28.8-3.1,39.1C436.3,208.8,427.7,212.4,418.8,212.3z M388.1,172.9
		c-2.5,13.4,4.3,27.8,16.1,34.3s28,4,37.2-5.8s10.6-25.7,3.3-36.7l-8,3.8c-0.4,0.2-0.8,0-1-0.4c-0.1-0.1-0.1-0.3-0.1-0.5l1.4-7.1
		l-7.6,1.7c-0.2,0.1-0.5,0-0.7-0.2c-0.2-0.2-0.3-0.4-0.2-0.7l1.4-8.7l-7.1,2.7c-0.4,0.2-0.8,0-1-0.4c-0.1-0.2-0.1-0.3,0-0.5l2.1-8
		l-1.3,0.5c-2.2,0.9-4.5,1.7-6.8,2.4c-0.2,0.1-0.5,0-0.7-0.2c-0.2-0.2-0.3-0.4-0.3-0.6c0.1-0.8,0.2-1.6,0.4-2.3
		c0.2-0.8,0.4-1.7,0.4-2.5c-4,0.7-11.4,6-15.4,9.3C394,158,389.7,165.1,388.1,172.9L388.1,172.9z"></path><path class="st1" d="M405.3,170.8c0.4,1,1.2,2.2,2.3,1.9c0.6-0.3,1.1-0.9,1.2-1.6c0.8-2.5,0.7-5.1-0.2-7.6
		c-0.2-0.7-0.6-1.3-1.1-1.8C404,158.8,404.8,169.3,405.3,170.8z"></path><path class="st1" d="M416.2,175.6c-1,0.4-2,1.3-1.8,2.3c0.2,0.9,1.2,1.3,2,1.5c2.1,0.5,4.2,0.6,6.3,0.4c1-0.1,2-0.4,2.8-0.9
		c2.6-1.8,1.1-3.8-1.1-4.3C421.7,174.1,418.8,174.5,416.2,175.6z"></path><path class="st1" d="M397.9,171.5c1.2,0.8,1.9,2.1,1.9,3.5c0.1,1.4-0.1,2.8,0.1,4.2c0.4,2.7,2.3,5,5,5.9c4.1,1.2,9.2-1.1,12.5,1.7
		c1.7,1.7,2.2,4.1,1.4,6.4c-0.8,2.2-2.2,4.1-4.1,5.5c-1.8,1.5-4.2,2.8-6.5,2.2c-2.5-0.7-3.8-3.4-4.5-5.8s-1.2-5.2-3.1-6.9
		c-2.9-2.8-9.4-2.8-9.3-8C391.3,177.2,393.7,169.5,397.9,171.5z"></path><path class="st2" d="M433.8,132c-2.2,0.2-4.4,0-6.4-0.7c-2.1-0.8-3.6-2.6-4-4.8c-0.2-2.2,1.5-4.5,3.7-4.4c-1.2,1-0.9,3,0.3,4
		c1.2,0.9,2.8,1.3,4.3,1.1c1.5-0.2,3-0.2,4.5,0.1c1.6,0.2,2.8,1.4,3.1,3c0,1.2-0.5,2.4-1.4,3.4l-11.7,16.3c-0.6,1-1.4,1.9-2.4,2.5
		c-1,0.6-2.4,0.4-3.2-0.5c-1.2-1.6,4.2-7.3,5.2-8.6L433.8,132z"></path><path class="st1" d="M422.4,153.4c-0.9,0-1.8-0.4-2.4-1.1c-1.2-1.6,1.1-4.7,4.1-8.2c0.5-0.6,0.9-1,1.1-1.3l7.1-9.9
		c-1.8,0.1-3.6-0.2-5.2-0.8c-2.3-0.9-4.1-2.9-4.5-5.4c-0.1-1.4,0.4-2.8,1.3-3.9c0.8-0.9,1.9-1.4,3.1-1.4c0.4,0,0.7,0.3,0.7,0.8
		c0,0.2-0.1,0.4-0.3,0.6c-0.3,0.3-0.5,0.7-0.5,1.1c0,0.7,0.3,1.3,0.8,1.8c1.1,0.8,2.5,1.2,3.8,1c0.4,0,0.7,0,1.1-0.1
		c1.2-0.1,2.4-0.1,3.6,0.1c1.6,0.4,3.5,1.7,3.7,3.6c0.1,1.6-0.9,2.9-1.5,3.9l-11.7,16.3c-0.7,1.1-1.6,2-2.7,2.7
		C423.6,153.3,423,153.4,422.4,153.4z M433.8,131.2c0.4,0,0.7,0.3,0.8,0.7c0,0.2,0,0.3-0.1,0.5l-8,11.2c-0.2,0.3-0.6,0.8-1.1,1.4
		c-3.9,4.6-4.4,6-4.1,6.4c0.6,0.6,1.5,0.7,2.2,0.2c0.9-0.6,1.6-1.3,2.2-2.2l11.7-16.3c0.7-0.8,1.2-1.8,1.2-2.9
		c-0.3-1.2-1.3-2.1-2.5-2.2c-1.1-0.2-2.1-0.2-3.2-0.1c-0.4,0-0.8,0-1.1,0.1c-1.7,0.2-3.4-0.3-4.8-1.3c-0.8-0.7-1.3-1.8-1.3-2.9
		c0-0.2,0-0.3,0-0.4c-0.2,0.1-0.4,0.3-0.5,0.5c-0.7,0.7-1,1.7-0.9,2.7c0.3,1.9,1.7,3.5,3.5,4.2c2,0.7,4,0.9,6.1,0.7L433.8,131.2z"></path><path class="st2" d="M447.6,126.6c-0.7,1.7-1.4,3.5-1.8,5.4c-3.4,10.1-15.2,15.3-19.7,25c-0.5,1-0.8,2.2-0.1,3.1
		c0.9,1.2,2.9,0.6,4.2-0.2c5.6-3.6,9.4-9.5,13.2-15s8.3-11,14.6-13.4c2.6-1,5.5-1.4,7.9-2.8s4.4-4.2,3.6-6.8
		c-0.7-2.3-3.1-3.5-5.3-2.9c-1,0.3-1.8,0.9-2.4,1.8c-0.6,0.9-0.7,2-0.3,3c0.5,1,1.7,1.4,2.7,0.9c-4,1.8-8.2,3.1-12.5,4
		C454.2,128.2,451.2,119.9,447.6,126.6z"></path><path class="st1" d="M427.5,161.6c-0.8,0-1.6-0.3-2.1-1c-0.7-0.9-0.7-2.2,0.1-3.8c2.2-4.7,6-8.4,9.7-11.9c4.2-4,8.2-7.8,9.9-13
		c0.2-0.6,0.4-1.2,0.5-1.8c0.3-1.3,0.8-2.5,1.3-3.7l0,0c1.5-2.9,3-3.2,4-3c1.5,0.4,2.4,2.3,2.3,3.9c0,0.1,0,0.3,0,0.4
		c2.8-0.7,5.5-1.5,8.1-2.6c-0.3-0.2-0.5-0.5-0.7-0.8c-0.6-1.2-0.4-2.6,0.4-3.7c1.5-2.3,4.5-3.1,6.9-1.6c1.1,0.7,1.8,1.7,2.2,2.9
		c0.9,3.1-1.3,6.2-4,7.7c-1.6,0.8-3.3,1.5-5,1.9c-1,0.3-2,0.6-2.9,0.9c-6,2.3-10.4,7.7-14.2,13.1l-1.1,1.6
		c-3.5,5-7.1,10.2-12.4,13.6C429.6,161.1,428.6,161.5,427.5,161.6z M448.2,127c-0.5,1.1-0.9,2.2-1.2,3.4c-0.2,0.6-0.3,1.2-0.5,1.8
		c-1.9,5.6-6.2,9.7-10.3,13.6c-3.6,3.4-7.3,7-9.4,11.5c-0.3,0.7-0.7,1.7-0.2,2.3c0.6,0.8,2.2,0.2,3.1-0.4c5-3.2,8.5-8.3,11.9-13.2
		l1.1-1.6c4-5.7,8.6-11.2,14.9-13.7c1-0.4,2-0.7,3.1-1c1.6-0.4,3.2-1,4.7-1.8c2.1-1.2,4-3.7,3.2-6c-0.4-1.3-1.5-2.3-2.9-2.5
		c-1.4-0.2-2.7,0.5-3.5,1.6c-0.5,0.7-0.6,1.5-0.3,2.2c0.2,0.3,0.5,0.6,0.9,0.7c0.2,0,0.3,0,0.5,0l0.3-0.1c0.4-0.2,0.8,0,1,0.4
		c0.1,0.3,0,0.7-0.3,0.9c-0.2,0.1-0.4,0.2-0.5,0.2c-3.9,1.7-8,3-12.2,3.9l0,0c-0.4,0.1-0.8-0.2-0.9-0.6c-0.1-0.4,0.2-0.8,0.6-0.9
		l0,0l0,0c0.4-0.1,0.4-0.6,0.4-0.9c0-1-0.6-2.2-1.2-2.4S449.1,125.4,448.2,127L448.2,127z"></path><path class="st2" d="M453.6,141c1.2-1.4,2.6-2.5,4.2-3.4c1.6-0.8,3.6-0.5,5,0.6c0.6,0.6,1,1.5,1.8,1.8c1.4,0.6,2.8-0.8,4.2-0.6
		c1.4,0.3,2.3,1.6,2,3c0,0,0,0.1,0,0.1c-0.4,1.4-1.6,2.4-3,2.6c-1.4,0.2-2.8,0-4.1-0.5c-1.5-0.7-3-1.2-4.5-1.5
		c-1.6-0.2-3.4,0.4-4.1,1.8c0.9,2.1,2.2,4,3.7,5.8c1.6,1.7,3.9,2.6,6.2,2.4c1-0.1,2.2-0.5,2.9,0.3c0.8,0.9-0.2,2.4-1.3,3
		c-3.1,1.5-6.9,0.6-9.1-2.1c-1.2-1.6-2-4-3.9-4.5c-2.2-0.6-4.1,1.5-5.6,3.3c-3.5,4.4-7.6,8.2-12.2,11.3c-2.2,1.5-4.4,0.5-2.9-2
		s4.7-4.8,6.7-6.9L453.6,141z"></path><path class="st1" d="M433.9,165.9c-0.6,0-1.1-0.2-1.6-0.6c-0.3-0.3-1.1-1.3,0-3.2c1.3-1.8,2.8-3.4,4.5-4.9c0.9-0.8,1.7-1.5,2.3-2.2
		l13.9-14.6c1.2-1.5,2.7-2.7,4.5-3.5c1.9-1,4.3-0.6,5.9,0.8c0.2,0.2,0.4,0.5,0.6,0.7c0.2,0.4,0.6,0.7,0.9,0.9c0.6,0.1,1.2,0,1.8-0.3
		c0.7-0.3,1.5-0.5,2.3-0.4c0.9,0.1,1.6,0.6,2.1,1.3c0.6,0.8,0.8,1.8,0.5,2.8c-0.5,1.6-1.9,2.9-3.6,3.2c-1.5,0.2-3.1,0-4.5-0.6
		c-0.4-0.1-0.9-0.3-1.3-0.5c-1-0.5-2-0.8-3.1-1c-1.2-0.2-2.4,0.2-3.2,1.1c0.9,1.9,2,3.6,3.4,5.2c1.4,1.6,3.5,2.4,5.5,2.2l0.4-0.1
		c1-0.2,2.3-0.4,3.1,0.6c0.4,0.5,0.6,1.1,0.5,1.7c-0.3,1.1-1,2-2,2.4c-3.5,1.7-7.6,0.7-10-2.3c-0.4-0.5-0.7-1-1-1.5
		c-0.7-1.2-1.4-2.4-2.5-2.7c-1.7-0.5-3.4,1.3-4.8,3c-3.5,4.4-7.7,8.3-12.3,11.5C435.6,165.5,434.8,165.9,433.9,165.9z M460,137.9
		c-0.7,0-1.3,0.1-1.9,0.4c-1.5,0.8-2.9,1.9-4,3.2l0,0l-13.9,14.6c-0.7,0.7-1.5,1.5-2.4,2.3c-1.6,1.3-3,2.8-4.2,4.5
		c-0.4,0.6-0.5,1.2-0.3,1.4s1.1,0.3,2.1-0.4c4.5-3.1,8.6-6.9,12-11.2c1.1-1.4,3.5-4.3,6.4-3.6c1.7,0.5,2.6,2,3.4,3.4
		c0.3,0.5,0.6,1,0.9,1.4c1.9,2.4,5.3,3.2,8.1,1.9c0.6-0.3,1-0.8,1.2-1.4c0-0.2,0-0.3-0.1-0.4c-0.3-0.3-0.9-0.2-1.8-0.1l-0.5,0.1
		c-2.6,0.2-5.1-0.7-6.8-2.6c-1.6-1.8-2.9-3.8-3.9-5.9c-0.1-0.2-0.1-0.5,0-0.7c0.9-1.8,3.1-2.4,4.9-2.2c1.2,0.2,2.4,0.6,3.5,1.1
		c0.4,0.2,0.8,0.3,1.2,0.5c1.2,0.5,2.5,0.7,3.7,0.5c1.1-0.2,2.1-1,2.4-2.1c0.1-0.5,0-1.1-0.3-1.6c-0.2-0.4-0.6-0.6-1-0.6
		c-0.6,0-1.1,0.1-1.6,0.4c-1.5,0.9-3.4,0.5-4.3-1c0-0.1-0.1-0.1-0.1-0.2c-0.2-0.2-0.3-0.4-0.5-0.6
		C461.7,138.2,460.9,137.9,460,137.9L460,137.9z M453.6,141L453.6,141z"></path><path class="st2" d="M436.4,119.8c-1.1-1.2-1.6-2.9-1.2-4.5c0.4-1.6,1.8-2.8,3.4-3.1c0.9-0.1,1.8,0.2,2.4,0.8
		c0.6,0.7,0.7,1.7,0.2,2.4c-0.6,0.8-1.8,1.2-1.9,2.2c0.1,0.6,0.5,1.2,1,1.4c0.6,0.2,1.1,0.5,1.7,0.8c1.7,1.2,0.8,4.8-1.5,4
		c-0.6-0.2-0.9-1.4-1.3-1.9C438.4,121.2,437.2,120.8,436.4,119.8z"></path><path class="st1" d="M441.2,124.8c-0.3,0-0.6-0.1-0.9-0.2c-0.6-0.3-1.1-0.8-1.3-1.5c-0.1-0.2-0.2-0.4-0.3-0.6
		c-0.4-0.4-0.8-0.7-1.3-0.9c-0.6-0.4-1.2-0.8-1.7-1.3c-1.3-1.4-1.8-3.4-1.4-5.2c0.5-1.9,2.1-3.4,4.1-3.6c1.1-0.1,2.2,0.3,3,1.1
		c0.9,0.9,1,2.3,0.3,3.4c-0.3,0.4-0.6,0.7-1,1c-0.4,0.3-0.7,0.6-0.7,0.8s0.2,0.5,0.6,0.7c0.2,0.1,0.4,0.2,0.6,0.2
		c0.4,0.1,0.8,0.3,1.2,0.6c1.2,1,1.6,2.8,0.8,4.2C442.9,124.3,442.1,124.8,441.2,124.8z M436.9,119.4c0.4,0.4,0.9,0.7,1.4,1
		c0.6,0.3,1.1,0.7,1.5,1.2c0.3,0.3,0.5,0.6,0.6,1c0.1,0.3,0.3,0.5,0.5,0.7c0.4,0.2,0.9,0,1.1-0.4c0,0,0,0,0-0.1
		c0.4-0.7,0.3-1.7-0.4-2.2c-0.3-0.2-0.6-0.3-0.9-0.4c-0.2-0.1-0.5-0.2-0.7-0.3c-0.9-0.4-1.4-1.2-1.5-2.1c0.1-0.8,0.6-1.5,1.3-1.9
		c0.3-0.2,0.5-0.4,0.7-0.6c0.3-0.5,0.2-1.1-0.2-1.5c-0.5-0.5-1.1-0.7-1.8-0.6c-1.3,0.2-2.4,1.2-2.8,2.5
		C435.6,116.9,436,118.3,436.9,119.4L436.9,119.4z"></path><path class="st2" d="M460.7,104.3c1.3-0.5,3.1-0.5,3.8,0.8c0.4,1,0.1,2.1-0.7,2.8c-0.8,0.7-1.7,1.2-2.6,1.7c-1.7,1-4.6,5.4-5.2,1.5
		C455.5,108.3,458.3,105.3,460.7,104.3z"></path><path class="st1" d="M457,113.4c-0.2,0-0.3,0-0.5-0.1c-1-0.4-1.2-1.7-1.3-2.2c-0.5-3.4,2.8-6.6,5.2-7.6c1.7-0.7,3.9-0.5,4.7,1.1
		c0.5,1.3,0.2,2.8-0.9,3.7c-0.6,0.6-1.3,1-2.1,1.4l-0.7,0.4c-0.5,0.4-1,0.8-1.4,1.2C459,112.4,458,113.4,457,113.4z M462.4,104.8
		c-0.5,0-0.9,0.1-1.4,0.2l0,0c-2,0.8-4.7,3.5-4.3,6c0.1,0.8,0.3,0.9,0.3,0.9c0.3,0,1.5-1,2-1.6c0.5-0.5,1.1-1,1.7-1.4l0.7-0.4
		c0.6-0.3,1.2-0.7,1.8-1.2c0.6-0.5,0.8-1.3,0.6-2C463.5,104.9,462.9,104.7,462.4,104.8L462.4,104.8z M460.8,104.3L460.8,104.3z"></path><path class="st2" d="M485.1,156.7c0.2,1.3-0.2,2.6-1.1,3.5c-1,0.9-2.5,0.9-3.4,0c-1.1-1.3-0.3-3.3-1.1-4.8c-0.3-0.5-0.6-0.9-1-1.4
		c-2-2.7,1.4-2.8,3.1-2C483.4,152.9,484.7,154.7,485.1,156.7z"></path><path class="st1" d="M482.2,161.7H482c-0.8,0-1.5-0.4-2-0.9c-0.6-0.9-1-2-0.9-3.1c0-0.7-0.1-1.3-0.3-1.9c-0.2-0.3-0.4-0.6-0.6-0.8
		c-0.1-0.1-0.2-0.3-0.4-0.4c-1.1-1.5-0.8-2.4-0.4-2.9c0.9-1.1,3.2-0.8,4.4-0.2c2.1,1,3.6,2.9,4,5.2c0.3,1.5-0.2,3.1-1.3,4.2
		C483.9,161.4,483.1,161.7,482.2,161.7z M479.5,152.4c-0.3,0-0.6,0-0.9,0.2c0,0,0,0.3,0.5,1c0.1,0.1,0.2,0.3,0.3,0.4
		c0.3,0.3,0.5,0.7,0.8,1.1c0.3,0.8,0.5,1.7,0.5,2.5c-0.1,0.7,0.1,1.5,0.5,2.1c0.3,0.3,0.6,0.4,1,0.4c0.5,0,1-0.2,1.4-0.5
		c0.7-0.8,1-1.8,0.8-2.9l0,0c-0.3-1.8-1.5-3.3-3.1-4C480.7,152.6,480.1,152.4,479.5,152.4L479.5,152.4z"></path><path class="st2" d="M417.8,110.8c-0.7,0.4-1.3,1.1-1.6,1.9c-0.3,0.8,0,1.7,0.7,2.3c0.8,0.4,1.7,0.5,2.5,0.2l2.8-0.5
		c1.8-0.3,3.9-1.8,2.2-3.7C422.9,109.3,419.4,109.8,417.8,110.8z"></path><path class="st1" d="M418.1,116c-0.6,0-1.2-0.1-1.7-0.5c-1-0.7-1.4-2-1-3.1c0.3-1,1-1.8,1.9-2.3l0,0c1.9-1.2,5.8-1.7,7.5,0.2
		c0.7,0.7,1,1.7,0.7,2.6c-0.5,1.4-2.1,2.1-3.3,2.4l-2.8,0.5C419,115.9,418.6,116,418.1,116z M418.2,111.4c-0.6,0.3-1,0.9-1.3,1.5
		c-0.2,0.5,0,1.1,0.4,1.4c0.6,0.3,1.3,0.3,1.9,0.1l2.8-0.5c0.9-0.1,1.7-0.6,2.2-1.4c0-0.1,0.2-0.5-0.4-1.1
		C422.7,110.1,419.6,110.5,418.2,111.4L418.2,111.4z"></path></g></svg>