<svg transform="scale(1)" version="1.1" id="It5ROFXhOp" xmlns="http://www.w3.org/2000/svg" xmlns:xlink="http://www.w3.org/1999/xlink" x="0px" y="0px" viewBox="0 0 500 500" xml:space="preserve" class="pbimage_pbimage__wrapper__image__0LEis false"><title>Problem</title><style type="text/css"> .st0{fill:#128FFF;} .st1{fill:#FFFFFF;} .st2{fill:#111111;}
 .st2{fill:#111111;}
 .st1{fill:#FFFFFF;}
 .st0{fill:#128FFF;}</style><g id="shadow"><path class="st0" d="M344.7,442.2c-5.2,3.2-10.8,7.4-11.6,13.5c-1,8,6.6,14.2,13.6,18.1c13.3,7.5,27.6,13.1,42.4,16.8
		c11.4,2.8,25.7,3.4,32.3-6.2c3-4.3,3.8-9.9,7.3-13.7c9.5-10.4,28.5,0.4,40.5-7.1c29.4-18.5-20-45.1-35.9-47.6
		C404.8,411.3,368.4,427.8,344.7,442.2z" fill="#128FFF"></path></g><g id="cloud"><g id="cloud-upload"><path class="st1" d="M272.3,232.4c-3.9-11.1-9.7-22.1-19.6-28.4s-24.6-6.1-31.9,3c-1.4-14.2-16.3-25.5-30.3-22.9
			c-1.7-22-22.2-40.9-44.2-40.8s-42.4,19.1-44,41.1c-10.4-5.6-23.3-1.8-28.9,8.6c-3.1,5.7-3.4,12.6-0.9,18.6
			c-15.7-3.9-33.5,7.7-36.3,23.6c-4,22.8,17.7,35.8,37.3,35.9c15.9,0.1,134.5,0,153.3,0c15.2,0,33.5,2.1,43.8-9.1
			C277.6,254.2,275.8,242.1,272.3,232.4z"></path><path class="st2" d="M239.7,271.9c-2.2,0-4.4,0-6.5-0.1s-4.2-0.1-6.3-0.1h-27.5c-42.6,0-113.8,0-125.9,0
			c-12.8-0.1-25.2-5.3-32.2-13.8c-5.3-6.4-7.5-14.8-5.9-23c1.4-7.8,6.3-15,13.7-19.7c6.5-4.4,14.5-6.1,22.2-4.7
			c-4.1-11.5,1.9-24.1,13.4-28.2c5.5-2,11.6-1.6,16.9,0.9c2.2-22.1,22.4-40.6,44.6-40.7h0.1c22.3,0,42.6,18.5,44.8,40.7
			c14.2-1.5,27.3,8.1,30.2,22.1c6.6-6.8,20.1-9.4,31.8-2c8.5,5.4,15,14.8,19.9,28.8l0,0c3.3,9.3,5.6,22-1.9,30.2
			C263.5,270.7,251.4,271.9,239.7,271.9z M226.9,270.2c2.1,0,4.2,0,6.3,0.1c13.9,0.3,28.2,0.5,36.9-9c6.9-7.6,4.7-19.8,1.5-28.7l0,0
			c-4.8-13.6-11.1-22.8-19.3-28c-11.7-7.5-25.2-4.3-31,2.9c-0.2,0.2-0.5,0.3-0.8,0.2c-0.3-0.1-0.5-0.3-0.5-0.6
			c-2-14.3-15.2-24.2-29.4-22.3c-0.4,0.1-0.8-0.2-0.9-0.6c0,0,0,0,0-0.1c-1.6-21.4-21.9-40.1-43.4-40.1h-0.1
			c-21.5,0.1-41.7,19-43.2,40.4c0,0.3-0.2,0.5-0.4,0.6c-0.2,0.1-0.5,0.1-0.7,0c-10-5.4-22.5-1.7-27.9,8.3c-3,5.5-3.3,12.1-0.8,17.9
			c0.1,0.3,0.1,0.6-0.1,0.8c-0.2,0.2-0.5,0.3-0.8,0.2c-7.3-1.8-15.4-0.3-22.4,4.2s-11.7,11.3-13,18.7c-1.5,7.8,0.5,15.8,5.6,21.8
			c6.8,8.1,18.7,13.1,31.1,13.2c12.1,0.1,83.3,0,125.9,0L226.9,270.2z"></path></g><g id="cloud-upload-2"><path class="st1" d="M247.7,232.4c3.9-11.1,9.7-22.1,19.6-28.4s24.6-6.1,32,3c1.4-14.2,16.3-25.5,30.3-22.9
			c1.7-22,22.2-40.9,44.2-40.8s42.4,19.1,44,41.1c10.3-5.6,23.3-1.8,28.9,8.6c3.1,5.7,3.4,12.6,0.9,18.6
			c15.7-3.9,33.5,7.6,36.3,23.6c4,22.8-17.7,35.8-37.3,35.9c-15.9,0.1-134.5,0-153.4,0c-15.2,0-33.5,2.1-43.8-9.1
			C242.4,254.2,244.2,242.1,247.7,232.4z"></path><path class="st2" d="M280.3,271.9c-11.7,0-23.8-1.1-31.5-9.5c-7.4-8.1-5.1-20.9-1.8-30.2c4.9-14,11.4-23.4,19.9-28.8
			c11.7-7.5,25.2-4.9,31.8,2c2.9-14,15.9-23.6,30.2-22.1c2.2-22.2,22.5-40.7,44.8-40.7h0.1c22.3,0.1,42.5,18.6,44.6,40.7
			c11-5.3,24.2-0.6,29.4,10.4c2.5,5.3,2.9,11.4,0.9,16.9c7.7-1.3,15.7,0.4,22.2,4.7c7.3,4.7,12.3,11.9,13.6,19.7
			c1.6,8.2-0.5,16.6-5.9,23c-7,8.4-19.4,13.7-32.2,13.8c-12.1,0.1-83.3,0-125.9,0h-27.5c-2,0-4.1,0-6.3,0.1S282.5,271.9,280.3,271.9
			z M282,200.3c-5.1,0-10.1,1.5-14.4,4.3c-8.2,5.2-14.5,14.4-19.3,28l0,0c-3.1,8.9-5.4,21.1,1.5,28.7c8.7,9.5,23,9.2,36.9,9
			c2.1,0,4.3-0.1,6.3-0.1h27.5c42.5,0,113.8,0,125.9,0c12.4-0.1,24.3-5.1,31-13.2c5.1-6.1,7.1-14.1,5.5-21.8
			c-1.3-7.4-6-14.2-13-18.7s-15.1-6.1-22.4-4.2c-0.2,0.1-0.5,0-0.7-0.2c-0.2-0.2-0.2-0.5-0.1-0.8c4.5-10.4-0.3-22.5-10.7-27.1
			c-5.8-2.5-12.5-2.2-18.1,0.8c-0.2,0.1-0.5,0.1-0.7,0c-0.2-0.1-0.4-0.3-0.4-0.6c-1.5-21.5-21.7-40.4-43.2-40.4h-0.1
			c-21.5,0-41.7,18.7-43.4,40.1c0,0.4-0.4,0.7-0.8,0.7c0,0,0,0-0.1,0c-14.2-1.9-27.4,8-29.4,22.3c0,0.4-0.4,0.7-0.8,0.7
			c-0.2,0-0.4-0.1-0.5-0.3C295.2,203.2,289,200.3,282,200.3z M247.7,232.4L247.7,232.4z"></path></g></g><g id="rocket"><path class="st2" d="M323,62.8c3.2-7.2,9.4-14.8,17.2-13.9c6.2,0.7,10.4,6.3,14.9,10.6s12.1,7.3,16.5,3c3.3-3.3,2.8-9,5.8-12.5
		c2.1-2.5,5.5-3.5,7.8-5.8c4.3-4.4,3.1-11.5,3.7-17.6s3.5-12.2,8.6-15.8s12.3-4.2,17.5-0.7s7.4,11,4.1,16.3
		c-2.7,4.5-8.6,6.9-10.2,11.9c-1.2,4,0.6,8.1,1.6,12.2s0.5,9.3-3.4,11c-5,2.1-9.9-3.9-15.3-4c-5.9-0.2-9.5,6.4-11.3,12.1
		s-4,12.4-9.7,14c-5.5,1.5-10.7-2.7-14.6-6.9s-8.2-8.9-13.9-8.8c-6.2,0.1-10.7,6.3-11.9,12.3s-0.3,12.3-1.1,18.4
		c-0.5,3.9-2.4,11.2-6.6,12.9c-5.9,2.4-5.5-6.7-5.9-11.4C315.8,87.4,317.8,74.5,323,62.8z"></path><path class="st1" d="M325.3,199.4c8.5,1.4,17.6,0.7,25.1-3.6c6.1-3.5,10.7-9.1,14.2-15.2c7.9-14.1,10-30.8,10.3-46.9
		c0.2-7.9-0.7-17.2-7.4-21.4c-9.7,9.4-11.6,25.7-23.1,32.8c-4.7,2.9-10.4,3.9-15.5,6.1c-12.7,5.6-21.1,19-27.2,31
		c-3.2,6.2-2.9,8.9,3.5,11.3S318.4,198.2,325.3,199.4z"></path><path class="st2" d="M333.1,200.7c-2.7,0-5.3-0.2-7.9-0.6c-7-1.1-13.9-3.6-20.3-6c-3.2-1.2-5-2.6-5.7-4.3c-0.8-2.2,0.1-4.8,1.8-8
		c5.9-11.5,14.3-25.5,27.6-31.3c2.1-0.9,4.2-1.6,6.3-2.3c3.2-0.9,6.3-2.2,9.1-3.8c6.2-3.9,9.5-10.4,13-17.4
		c2.8-5.5,5.6-11.1,10-15.4c0.2-0.2,0.6-0.3,0.9-0.1c7.3,4.6,8,14.8,7.8,22c-0.3,14-1.8,32-10.4,47.3c-4,7.1-8.9,12.3-14.5,15.5
		C345.4,199.4,339.3,200.9,333.1,200.7z M367.6,113.1c-4,4-6.7,9.4-9.3,14.5c-3.4,6.8-7,13.9-13.5,17.9c-3,1.7-6.2,3-9.5,3.9
		c-2.1,0.6-4.1,1.4-6.2,2.2c-12.8,5.6-21.1,19.3-26.8,30.6c-1.7,3.4-2.2,5.4-1.7,6.8s2,2.4,4.8,3.5c6.3,2.4,13.1,4.8,20,5.9l0,0
		c6.6,1.1,16.2,1.3,24.7-3.5c5.4-3.1,10-8.1,13.9-14.9c8.5-15,9.9-32.8,10.2-46.6C374.4,126.8,373.8,117.5,367.6,113.1z"></path><path class="st1" d="M208.1,112.5c-3.8-7.8-5.8-16.7-3.9-25.1c1.6-6.8,5.6-12.9,10.4-18c11.2-11.7,26.5-18.5,41.9-23.5
		c7.5-2.5,16.7-4.3,22.6,0.9c-6.2,12-21.2,18.6-24.6,31.6c-1.4,5.4-0.6,11.1-1.3,16.7c-1.6,13.8-12.1,25.7-21.7,35
		c-5,4.8-7.6,5.3-11.9-0.1S211.2,118.8,208.1,112.5z"></path><path class="st2" d="M225.2,134.6h-0.3c-1.9-0.1-3.7-1.4-5.8-4.1c-4.2-5.4-8.5-11.2-11.7-17.7c-3-6.2-6.2-15.7-3.9-25.6
		c1.4-6.3,5-12.5,10.6-18.4c12.2-12.7,28.9-19.4,42.2-23.7c6.9-2.3,16.9-4.7,23.4,1c0.3,0.2,0.3,0.6,0.2,0.9
		c-2.8,5.5-7.4,9.8-11.8,14c-5.6,5.3-10.9,10.4-12.8,17.5c-0.7,3.2-1,6.5-0.9,9.9c0,2.2-0.1,4.5-0.3,6.7
		c-1.7,14.3-12.6,26.5-21.9,35.5C229.6,133,227.4,134.6,225.2,134.6z M269.1,44.2c-4.2,0.2-8.4,1-12.4,2.4
		c-13.1,4.3-29.7,10.9-41.6,23.4c-5.4,5.7-8.9,11.6-10.2,17.7c-2.1,9.5,0.9,18.6,3.8,24.6l0,0c3.1,6.3,7.3,12.1,11.5,17.4
		c1.9,2.4,3.3,3.5,4.7,3.6s3.3-0.9,6-3.6c9.1-8.8,19.8-20.7,21.5-34.6c0.2-2.2,0.3-4.4,0.3-6.5c-0.1-3.4,0.3-6.9,1-10.2
		c2-7.5,7.7-12.9,13.2-18.2c4.2-4,8.5-8.1,11.2-13.1C275.6,45,272.4,44,269.1,44.2L269.1,44.2z"></path><path class="st1" d="M242.6,97.7c-13.7,18.9-27.2,38-40.5,57.3c-16.2,23.4-32.1,47.1-42.7,73.6c-8,20.2-12.8,42.1-11.7,64.3
		c0.2,4.7-0.1,12.1,2,16.5c0.7,1.4,4.3,4.1,5.9,4.3c4.8,0.8,11.8-1.7,16.3-2.9c21.6-5.4,41.2-16.4,58.1-29.9
		c22.3-17.8,40.3-40,58-62.3c14.5-18.3,28.8-36.8,43-55.4c2.9-3.8,5.9-7.9,6-12.7c0.1-5.6-3.6-10.8-7.4-15.2
		c-8.1-9.5-48.5-39.4-59.9-44.4c-5.3-2.3-11.4-4.4-16.7-2.6C248.4,89.8,245.3,93.8,242.6,97.7z"></path><path class="st2" d="M157.5,314.6c-0.7,0-1.4,0-2.1-0.1c-1.8-0.3-5.6-3.1-6.4-4.8c-1.8-3.6-1.9-9.2-2-13.6c0-1.1-0.1-2.2-0.1-3.1
		c-1.1-20.7,2.9-42.4,11.8-64.6c10.4-26,25.5-48.8,42.8-73.8c13.2-19.1,26.9-38.4,40.5-57.3c3.2-4.4,6.2-8.2,10.8-9.7
		c5.6-1.9,11.8,0.3,17.2,2.6c11.5,5,52,35.1,60.2,44.6c3.8,4.4,7.7,9.8,7.5,15.7c-0.1,4.9-2.8,8.9-6.1,13.2
		c-14.1,18.5-28.5,37.2-43,55.4c-18.9,23.8-36.2,44.9-58.1,62.4c-18.7,15-38.3,25.1-58.4,30.1c-0.9,0.2-1.9,0.5-3,0.8
		C165.5,313.4,161.2,314.6,157.5,314.6z M242.5,97.7l0.6,0.4c-13.6,18.8-27.2,38.1-40.5,57.2c-17.2,24.9-32.3,47.6-42.6,73.5
		c-8.8,22-12.7,43.5-11.6,64c0,1,0.1,2,0.1,3.2c0.1,4.3,0.2,9.6,1.9,13c1.4,1.8,3.2,3.2,5.3,3.9c3.7,0.6,8.8-0.9,13-2
		c1.1-0.3,2.1-0.6,3.1-0.8c19.9-5,39.3-15,57.8-29.8c21.7-17.4,39.1-38.5,57.9-62.2c14.4-18.2,28.9-36.9,43-55.4
		c3.1-4.1,5.7-7.9,5.8-12.3c0.1-5.4-3.6-10.4-7.2-14.7c-8.1-9.5-48.3-39.2-59.7-44.2c-5.1-2.2-11-4.3-16.1-2.6
		c-4.2,1.4-7,5-10.1,9.2L242.5,97.7z"></path><path class="st0" d="M239.1,102.4c-13.7,19-23.7,33.3-37,52.6c-16.2,23.4-32.1,47.1-42.7,73.6c-0.9,2.2-1.7,4.4-2.5,6.7
		c13.2,1.4,27.4,6.8,40.2,16.3c12.8,9.5,22.2,21.5,27.3,33.7c1.9-1.4,3.8-2.9,5.7-4.4c22.3-17.8,40.3-40,58-62.3
		c14.5-18.3,25.4-32.1,39.5-50.7c1.6-2,3-4.2,4.3-6.5c14.8-19.9,14.1-47.4-1.7-66.5c-9.8-12-32.7-23.6-47.4-20.4
		C255,80.7,241.9,98.5,239.1,102.4z"></path><circle class="st1" cx="230.6" cy="211.8" r="24"></circle><path class="st2" d="M230.5,236.6c-13.7,0-24.7-11.1-24.7-24.8c0-5.3,1.7-10.5,4.9-14.7l0,0c8.1-11,23.6-13.3,34.6-5.1
		s13.3,23.6,5.1,34.6c-3.9,5.3-9.7,8.8-16.2,9.7C233,236.5,231.7,236.6,230.5,236.6z M230.6,188.6c-1.2,0-2.3,0.1-3.5,0.3
		c-6.1,0.9-11.6,4.2-15.2,9.2l0,0c-7.6,10.3-5.5,24.9,4.9,32.5c10.3,7.6,24.9,5.5,32.5-4.9c7.6-10.3,5.5-24.9-4.9-32.5
		C240.4,190.2,235.6,188.6,230.6,188.6L230.6,188.6z M211.3,197.6L211.3,197.6z"></path><circle class="st0" cx="230.1" cy="212.4" r="18"></circle><path class="st2" d="M220.6,222.5c-0.2,0-0.4-0.2-0.5-0.4c-0.1-0.3,0.1-0.5,0.4-0.6c7.2-1.9,14.2-4.8,20.6-8.7
		c0.2-0.1,0.5-0.1,0.7,0.2c0,0,0,0,0,0c0.1,0.2,0.1,0.5-0.2,0.7c-6.5,3.9-13.5,6.9-20.8,8.8L220.6,222.5z"></path><path class="st2" d="M224.6,216.3c-0.2,0-0.4-0.1-0.5-0.3c-0.1-0.3,0-0.5,0.3-0.6l9.9-4.1c0.2-0.1,0.5,0,0.6,0.3c0,0,0,0,0,0
		c0.1,0.3,0,0.5-0.3,0.6l-9.9,4.1C224.8,216.3,224.7,216.3,224.6,216.3z"></path><circle class="st1" cx="274.6" cy="154.2" r="34.1"></circle><path class="st2" d="M274.5,189c-19.3,0-34.9-15.6-34.9-34.9s15.6-34.9,34.9-34.9s34.9,15.6,34.9,34.9c0,17.3-12.6,32-29.7,34.6
		C278,188.9,276.3,189,274.5,189z M274.7,120.9c-1.7,0-3.3,0.1-5,0.4c-18.1,2.7-30.6,19.6-27.9,37.8s19.6,30.6,37.8,27.9
		c18.1-2.7,30.6-19.6,27.9-37.8C305,132.9,291.1,120.9,274.7,120.9z"></path><ellipse class="st0" transform="matrix(0.1602 -0.9871 0.9871 0.1602 77.113 400.6154)" cx="274" cy="155" rx="25.5" ry="25.5"></ellipse><path class="st2" d="M260.5,169.1c-0.2,0-0.4-0.1-0.5-0.4c-0.1-0.3,0.1-0.5,0.4-0.6c0,0,0,0,0,0c10.3-2.7,20.2-6.9,29.3-12.4
		c0.2-0.2,0.5-0.1,0.7,0.1c0.2,0.2,0.1,0.5-0.1,0.7c0,0,0,0-0.1,0c-9.2,5.6-19.1,9.8-29.5,12.5L260.5,169.1z"></path><path class="st2" d="M266.2,160.3c-0.2,0-0.4-0.1-0.5-0.3c-0.1-0.3,0-0.5,0.3-0.6l14-5.8c0.3-0.1,0.6,0,0.7,0.3s0,0.6-0.3,0.7l0,0
		l-14,5.8C266.3,160.3,266.3,160.3,266.2,160.3z"></path><path class="st1" d="M338.6,65c0.2-1-0.2-2.1-0.9-2.9c-1.3-1.2-3.1-0.8-4.3-0.2c-19.3,9.6-34.8,25.3-36.8,47.2
		c-0.2,2.3-0.2,4.8,1.6,7.1c7.7,9.8,25-11.4,27.6-14.7C333.7,91,338.2,78.2,338.6,65z"></path><path class="st2" d="M303.2,119.5c-2.2,0-4.4-1-5.7-2.9c-1.9-2.5-2-5.3-1.8-7.7c1.8-19.7,15.1-36.7,37.2-47.8
		c1-0.5,3.4-1.4,5.2,0.3c0.9,0.9,1.3,2.2,1.1,3.4l0,0c-0.4,13.4-5,26.3-13,36.9C325.8,102.7,312.8,119.5,303.2,119.5L303.2,119.5z
		 M335.6,62.1c-0.7,0-1.3,0.2-2,0.5C312,73.4,299,90,297.3,109.2c-0.2,2.2-0.2,4.5,1.4,6.6c1.1,1.5,2.8,2.3,4.6,2.3
		c8.8,0,21.8-16.8,21.9-17c7.8-10.4,12.3-23,12.7-36.1l0,0c0.1-0.8-0.1-1.7-0.6-2.3C336.8,62.3,336.2,62.1,335.6,62.1z M338.6,65
		L338.6,65z"></path><path class="st2" d="M156.3,304.5c-0.3,0-0.5-0.2-0.5-0.5c-0.8-15.6,0.5-31.3,4-46.6c9.3-40.8,33.2-76.3,56.9-109.2
		c10.3-14.2,20.5-28,33.2-39.6c14.2-13,30-21.5,45.5-24.5c0.3,0,0.5,0.1,0.6,0.4c0.1,0.3-0.1,0.5-0.4,0.6c0,0,0,0,0,0
		c-15.4,2.9-31,11.3-45,24.2c-12.6,11.5-22.8,25.2-33,39.4c-23.6,32.8-47.4,68.2-56.7,108.8c-3.5,15.2-4.9,30.7-4,46.3
		C156.8,304.3,156.6,304.5,156.3,304.5C156.3,304.5,156.3,304.5,156.3,304.5L156.3,304.5z"></path><path class="st2" d="M421.7,46.1c6-4.6,3.5-11.5,8.7-13.5c3-1.1,7.1,0,7.8,3.1c0.6,2.7-1.5,5.1-3.1,7.3s-2.6,4.5-4.4,6.5
		s-4.4,3.4-6.9,2.7S419.9,48,421.7,46.1"></path><path class="st2" d="M354.6,42.4c3.6,4.9,10.5,6,15.4,2.4c0.7-0.5,1.4-1.2,2-1.9c1.5-1.7,2.2-3.9,2-6.1c-0.3-2.3-2.1-4-4.4-4.3
		c-3.2-0.1-5.4,3.2-8.5,4c-1.6,0.2-3.3,0.2-4.9-0.1c-1.6-0.1-3.4,0-4.6,1.2s-1,3.5,0.5,4"></path></g><g id="cloud-2"><path class="st1" d="M435.5,307.8c-2.2-6.6-10.4-7.6-17.1-7.7c-10.6-0.1-21.2-0.1-31.8-0.2c0.9-3.3,1-6.8,0.4-10.2
		c-2.3-13-16.8-22.4-29.6-19.2c3.8-8.8-0.3-19.1-9.1-22.8c-4.9-2.1-10.5-1.8-15.1,0.7c-1.3-17.9-17.9-33.4-35.8-33.5
		s-34.7,15.4-36,33.3c-11.4-2.1-23.6,7.1-24.7,18.7c-6-7.5-18-7.6-26-2.5c-7.7,4.9-12.4,13.4-15.6,22c-7.1-1.9-15.1-0.4-19.6,5.2
		c-1.2-11.5-13.4-20.7-24.8-18.6c-1.4-17.9-18.1-33.3-36-33.3S80,255.3,78.7,273.3c-8.4-4.6-19-1.5-23.6,7
		c-2.5,4.7-2.8,10.3-0.7,15.1c-12.8-3.2-27.3,6.2-29.6,19.2c-0.9,4.8-0.3,9.7,1.9,14.1c-0.5,0.1-0.9,0.2-1.4,0.4l-0.4,0.1
		c-14,4.4-11.4,25,3.3,25.9l89.9,5.6c5.8,0.4,7.2,8.5,1.7,10.6l-0.1,0c-5.5,2-11.8,2.5-15.9,7.3c-2,2.2-2.6,5.4-1.5,8.2
		c1.6,3.5,5.3,4.1,8.6,4.4c23.6,2.3,47.5,1.9,71-1.2c3.1-0.4,5.9-2.1,7.6-4.8c1.3-2.1,1.5-4.7,0.5-7c-2.4-5.4,0.1-11.7,5.6-14.1
		c0.6-0.3,1.2-0.5,1.9-0.6c16.8-3.7,33.6-7.2,50.4-10.3c7.6-1.4,14.4-5.7,18.9-11.9c2.2-3,5.3-5.4,8.8-6.8
		c6.5-2.6,13.7-2.5,20.6-2.5c40,0.3,79.9-2.1,119.5-7.4c6.4-0.9,13.1-1.9,17.6-7.1C435.7,314.9,436.5,311.2,435.5,307.8z"></path><path class="st2" d="M141.2,393.5c-10.2,0-20.3-0.5-30.4-1.5c-2.9-0.3-7.4-0.7-9.2-4.8c-1.2-3.1-0.6-6.5,1.6-9
		c3.2-3.7,7.6-5,11.9-6.2c1.4-0.4,2.9-0.8,4.3-1.4l0.4,0.7l-0.3-0.7c2.1-0.7,3.3-2.8,2.9-5c-0.3-2.3-2.1-4-4.4-4.1L28.1,356
		c-6.8-0.3-12.4-5.6-13.1-12.4c-1-6.7,3.1-13.1,9.6-15l0.4-0.1l0.5-0.1c-1.9-4.3-2.5-9.1-1.6-13.7c1.3-6.7,5.4-12.6,11.2-16.2
		c5.3-3.6,11.7-5,18-3.9c-3.2-9.5,1.9-19.8,11.3-23c4.4-1.5,9.2-1.2,13.4,0.7c1.9-18,18.3-33,36.5-33.1h0.1
		c18.2,0,34.8,15.1,36.6,33.2c11.5-1.1,22.1,6.5,24.6,17.9c4.4-4.4,11.5-6.1,18.6-4.4c3.9-10.5,9-17.6,15.6-21.8
		c9.5-6.1,20.4-4,25.9,1.4c2.5-11.3,13-19,24.5-17.9c1.8-18.1,18.4-33.2,36.6-33.2h0.1c18.1,0.1,34.6,15.1,36.5,33.1
		c9.1-4.2,19.9-0.3,24.1,8.8c2,4.2,2.2,9,0.7,13.5c13.5-2,26.2,6.8,29.1,20.1c0.6,3.2,0.5,6.4-0.2,9.5c10.3,0,20.6,0.1,30.8,0.2
		c6.5,0,15.4,0.9,17.8,8.2l0,0c1.1,3.6,0.2,7.6-2.3,10.4c-4.8,5.6-12.2,6.6-18.1,7.4c-39.7,5.3-79.6,7.8-119.6,7.4h-0.3
		c-6.8-0.1-13.8-0.1-20,2.4c-3.4,1.4-6.3,3.6-8.5,6.6c-4.7,6.4-11.6,10.8-19.4,12.2c-16.8,3.2-33.8,6.6-50.4,10.3
		c-2.8,0.6-5.3,2.5-6.6,5.1c-1.4,2.7-1.5,5.8-0.3,8.6c1.1,2.5,0.9,5.4-0.5,7.7c-1.8,2.9-4.8,4.8-8.1,5.1
		C168.4,392.6,154.8,393.5,141.2,393.5z M119.6,371.3l0.3,0.7c-1.5,0.5-3,1-4.5,1.4c-4.2,1.2-8.2,2.4-11.1,5.7
		c-1.8,2-2.4,4.9-1.4,7.4c1.4,3.1,4.6,3.6,8,4c23.6,2.3,47.3,1.9,70.8-1.2c2.9-0.3,5.5-2,7-4.4c1.2-1.9,1.4-4.3,0.4-6.3
		c-1.4-3.2-1.2-6.8,0.4-9.9c1.5-3,4.3-5.1,7.6-5.9c16.7-3.7,33.7-7.2,50.5-10.4c7.4-1.3,14-5.5,18.5-11.6c2.3-3.2,5.5-5.6,9.1-7.1
		c6.5-2.7,13.7-2.6,20.6-2.5h0.3c39.9,0.3,79.8-2.1,119.4-7.4c5.6-0.8,12.7-1.7,17.1-6.9c2.2-2.4,2.9-5.9,2-9l0,0
		c-2.1-6.3-10.3-7.1-16.4-7.1c-10.6-0.1-21.2-0.1-31.8-0.2c-0.2,0-0.5-0.1-0.6-0.3c-0.1-0.2-0.2-0.4-0.1-0.6c0.9-3.2,1-6.6,0.4-9.8
		c-2.9-13-15.6-21.3-28.7-18.6c-0.4,0.1-0.8-0.2-0.9-0.6c0-0.1,0-0.3,0-0.4c3.6-8.5-0.3-18.2-8.8-21.8c-4.7-2-10-1.8-14.5,0.7
		c-0.2,0.1-0.5,0.1-0.7,0c-0.2-0.1-0.4-0.3-0.4-0.6c-1.2-17.4-17.6-32.8-35.1-32.8h-0.1c-17.4,0-33.9,15.2-35.2,32.6
		c0,0.2-0.1,0.4-0.3,0.5c-0.2,0.1-0.4,0.2-0.6,0.1c-11.5-1.6-22.2,6.5-23.8,18c0,0.3-0.2,0.6-0.5,0.6c-0.3,0.1-0.6,0-0.8-0.2
		c-4.7-5.8-15.6-8.4-25-2.3c-6.4,4.1-11.4,11.2-15.2,21.7c-0.1,0.4-0.5,0.6-0.9,0.5c-7.5-2-14.9,0-18.9,5c-0.2,0.2-0.5,0.3-0.8,0.2
		c-0.3-0.1-0.5-0.3-0.5-0.6c-1.7-11.5-12.3-19.6-23.8-18c-0.2,0-0.4,0-0.6-0.1c-0.2-0.1-0.3-0.3-0.3-0.5
		c-1.3-17.4-17.8-32.6-35.2-32.6h-0.1c-17.5,0.1-33.9,15.4-35.1,32.8c0,0.4-0.4,0.7-0.8,0.7c-0.1,0-0.2,0-0.3-0.1
		c-8.1-4.4-18.2-1.4-22.6,6.7c-2.4,4.5-2.7,9.8-0.7,14.5c0.1,0.4,0,0.8-0.4,1c-0.1,0.1-0.3,0.1-0.4,0c-6.3-1.4-12.8-0.2-18.1,3.4
		c-5.4,3.4-9.3,8.9-10.5,15.2c-0.9,4.6-0.3,9.4,1.8,13.6c0.1,0.2,0.1,0.4,0,0.6c-0.1,0.2-0.3,0.4-0.5,0.4l-0.6,0.2l-0.8,0.2
		l-0.4,0.1c-5.8,1.7-9.4,7.4-8.6,13.4c0.6,6.1,5.6,10.8,11.7,11.1l89.9,5.6c3,0.2,5.4,2.4,5.8,5.4c0.5,2.9-1.2,5.7-3.9,6.6
		L119.6,371.3z"></path></g><g id="character-2"><path class="st2" d="M423.3,362.6c2.6,7.2,4.8,15.4,1.8,22.4c-2.1,4.7-6.2,8-10.7,9.8s-9.3,2.4-14.1,2.9s-9.6,1.1-14.3,0.3
		s-9.4-3.1-12.3-7.3c-3.9-5.6-3.7-13.2-3.1-20.2c1.5-17.6,4.7-34.9,9.5-51.9c1-3.7,2.5-7.7,5.7-9.3c3-1.5,6.7-0.3,9.2,2
		c5.8,5.3,10.8,15,14.8,21.9C415,342.6,419.6,352.4,423.3,362.6z"></path><path class="st2" d="M384.7,268c-1.1,0.1-2.1-0.4-2.8-1.2c-0.5-0.8-0.6-1.8-0.4-2.7l0.6-3.9c0-0.6,0.3-1.2,0.7-1.6
		c0.7-0.5,1.6-0.7,2.5-0.5l0,0c2.6,0.5,3.9,1.8,3.9,3.9c0.1,1.1-0.1,2.2-0.5,3.3c-0.5,1.2-1.6,2.2-2.9,2.5
		C385.5,267.9,385.1,268,384.7,268z M384.5,259c-0.4,0-0.8,0.1-1.1,0.3c-0.2,0.3-0.4,0.6-0.4,1l-0.6,3.9c-0.2,0.7-0.1,1.4,0.2,2
		c0.8,0.7,2,1,3,0.6c1-0.3,1.8-1,2.2-2c0.3-0.9,0.5-1.9,0.4-2.9c0-1-0.4-2.4-3.1-2.9l0,0C384.9,259,384.7,259,384.5,259z"></path><path class="st1" d="M379.7,290.2c-0.4,4,0.2,9.1,5,10.5s9.4-2.1,12.5-5.2c7.2-7.3,14-14.9,20.4-22.8c3.5-4.4,7-9.1,7.3-14.3
		c0.5-7.7-6.1-14.5-12.7-20.2c-3.6-3.1-9.9-6.8-15.1-3.4c-4.4,2.8-5.9,10.5-7.4,14.4C384.5,262.3,381.2,276.1,379.7,290.2z"></path><path class="st2" d="M387,301.7c-0.8,0-1.6-0.1-2.4-0.3c-4.2-1.2-6.2-5.2-5.6-11.3l0,0c1.4-14.2,4.8-28.1,10-41.3
		c0.3-0.8,0.6-1.9,1-3c1.4-4.2,3-9.5,6.7-11.8c6.2-3.9,13.2,1.1,16,3.5c6.7,5.7,13.5,12.7,13,20.8c-0.3,5.4-3.9,10.2-7.5,14.7
		c-6.4,8-13.3,15.6-20.5,22.9C394,299.8,390.4,301.7,387,301.7z M380.5,290.3c-0.4,3.7,0.1,8.4,4.5,9.7s8.8-2,11.7-5
		c7.1-7.2,13.9-14.8,20.2-22.8c3.5-4.3,6.9-8.9,7.2-13.9c0.5-7.5-6-14.1-12.5-19.6c-2.5-2.1-8.9-6.8-14.2-3.4c-3.2,2-4.8,7-6.1,11
		c-0.4,1.1-0.7,2.2-1,3C385.2,262.5,381.9,276.2,380.5,290.3L380.5,290.3z"></path><path class="st2" d="M395.3,213.1c-5.5,2.9-7.8,8.3-5.5,12.8c-4.5,1.5-7.5,5-7.2,8.4s3.8,6.7,8.5,7.9c-3.5,2.4-4.5,6.3-2.3,9.4
		s7.2,5,12.1,4.7c-3.1,1.6-4.8,4.5-4.1,7.2s3.7,5,7.4,5.8c-3.4,1.1-5.7,3.6-5.5,6.2s2.7,5,6.2,5.9c-4.8,1.5-6.8,5.9-4.5,9.2
		s8,5,13.2,4.4s9.6-3.4,11.5-6.7c3.2,2.3,8.6,3.1,13,2s7.5-4.3,7.5-7.5c6-1.5,10.4-5.5,10.8-9.9s-3.3-8.7-9-10.7
		c7.5-4.5,9.2-12.9,3.8-18.6c-1.3-1.4-3-2.6-3.5-4.2c-0.6-1.8,0.5-3.7,1.1-5.5c1.6-5.9-3.8-12.4-12.1-14.4c-2.4-0.6-5.4-4.2-8.4-5.2
		c-3.5-1.1-7-2-10.6-2.5C410.7,210.4,401.3,209.9,395.3,213.1z"></path><path class="st2" d="M383.4,292.4c-0.8-2.2-0.5-4.7,0.8-6.7c0.8-1.3,2.2-2.1,3.7-2c1.5,0.1,2.6,1.4,2.5,2.8c0,0.6-0.3,1.1-0.6,1.6
		C389.3,288.6,383.3,292.1,383.4,292.4z"></path><path class="st1" d="M394.3,266.4c2.2-0.7,4.6-1.3,6.9-0.7c1.3,0.4,2.4,1.2,3.2,2.3c1.4,1.7,1.5,4.2,0.4,6.1
		c-1.6,2.1-4.1,3.2-6.7,2.9c-1.4-0.1-2.8-0.8-3-1.9"></path><path class="st2" d="M398.7,277.7c-0.3,0-0.5,0-0.8,0c-1.7-0.2-3.4-1-3.6-2.5c-0.1-0.4,0.2-0.8,0.6-0.8c0,0,0,0,0,0
		c0.4-0.1,0.8,0.2,0.8,0.6c0,0,0,0,0,0c0.1,0.5,1.1,1.1,2.3,1.2c2.3,0.3,4.6-0.7,6-2.6c1-1.6,0.9-3.7-0.3-5.2c-0.7-1-1.7-1.7-2.8-2
		c-2-0.6-4.1,0-6.4,0.7c-0.4,0.1-0.8,0-1-0.4c-0.1-0.4,0-0.8,0.4-1c0,0,0.1,0,0.1,0c2.4-0.7,5-1.4,7.3-0.7c1.4,0.4,2.7,1.3,3.6,2.5
		c1.6,2,1.7,4.8,0.4,6.9C403.8,276.6,401.3,277.8,398.7,277.7z"></path><path class="st2" d="M400.7,266.4c0,0-0.1,0-0.1,0c-6.1-2-12.2-4.4-18-7.1c-0.3-0.1-0.4-0.4-0.2-0.7c0,0,0,0,0,0
		c0.1-0.2,0.4-0.4,0.7-0.2c5.8,2.7,11.8,5.1,17.9,7.1c0.3,0,0.5,0.3,0.4,0.6C401.3,266.3,401,266.5,400.7,266.4L400.7,266.4z"></path><path class="st2" d="M406.7,307.8c13.7-2.4,27-6.9,39.3-13.4c6.7-3.5,13.4-7.9,17.1-14.5s3.7-15.8-1.9-20.9l12.4-11.1
		c10.2,11.4,9.9,29.7,1.9,42.8s-22.2,21.2-37,25.1c-11.9,3.1-24.1,3.7-36.3,3.9c-4.4,0.1-11.2,0.9-8.3-5.6
		C395.9,309.4,402.2,308.6,406.7,307.8z"></path><path class="st1" d="M375.1,205.2c5.5-5.8,13-9.3,21-9.8c3.6-0.3,7.2,0.5,10.3,2.3c3.3,2,5.3,5.5,5.5,9.3
		c0.1,5.5-5.2,10.3-10.2,9.2c2.9,0.5,6.4,1.7,6.9,4.9c0.2,1.9-0.7,3.7-2.4,4.7c-1.5,0.9-3.3,1.3-5.1,1.2c-7.3,0.1-15.1-3.3-21.8,0
		c-4.1,2.1-14.5,11-14.6,0.5C364.8,219.9,370.2,210.3,375.1,205.2z"></path><path class="st2" d="M368.1,233.4c-0.6,0-1.3-0.1-1.8-0.4c-1.4-0.8-2.2-2.5-2.2-5.3c-0.1-7.8,5.2-17.5,10.4-23l0,0
		c5.6-6,13.4-9.6,21.6-10c3.7-0.3,7.5,0.5,10.7,2.4c3.5,2.2,5.7,5.9,5.9,10c0,3.1-1.4,6-3.8,8c-0.9,0.7-1.9,1.3-3,1.7
		c1.9,0.7,3.2,2.3,3.5,4.3c0.2,2.2-0.8,4.3-2.7,5.5c-1.7,1-3.6,1.4-5.5,1.3c-2.6-0.1-5.1-0.3-7.7-0.7c-4.9-0.7-9.6-1.4-13.8,0.7
		c-0.7,0.4-1.7,1-2.8,1.7C374.2,231.3,370.8,233.4,368.1,233.4z M375.6,205.7L375.6,205.7c-4.9,5.2-10.1,14.6-10,22
		c0,2.2,0.5,3.5,1.4,4c2,1.1,6.1-1.5,9.2-3.4c1.1-0.7,2.1-1.3,2.9-1.7c4.6-2.3,9.7-1.6,14.6-0.8c2.5,0.4,4.9,0.7,7.4,0.7
		c1.6,0.1,3.2-0.3,4.7-1.1c1.4-0.9,2.1-2.4,2-4c-0.3-2-2.2-3.4-5.9-4.2l-0.4-0.1c-0.4-0.1-0.7-0.5-0.6-0.9c0.1-0.4,0.5-0.7,0.9-0.6
		l0,0l0.4,0.1c2,0.2,4.1-0.4,5.6-1.7c2.1-1.7,3.3-4.2,3.3-6.8c-0.2-3.6-2.1-6.8-5.2-8.7c-3-1.7-6.4-2.5-9.9-2.2
		C388.3,196.6,381,200,375.6,205.7z"></path><path class="st1" d="M473.1,236.3c-1.3-6.1-5.1-11.3-10.6-14.3c-5.5-2.9-12.2-2.6-17.5,0.7c-1.7,1.1-3.3,2.8-3.4,4.9s2,4.1,3.9,3.4
		c-2.9,0-6.3,0.1-8.2,2.4s-1.3,6.1,0.8,8.4s5.2,3.2,8.3,3.6s6.1,0.4,9.1,1c0.6,3.9,3,7.2,6.5,8.9c4.6,2.3,8.4,1.7,9.9-2.4
		C473.7,247.5,474.1,241.9,473.1,236.3z"></path><path class="st2" d="M466.9,257.4c-1.8-0.1-3.6-0.5-5.2-1.4c-3.6-1.8-6.1-5.1-6.8-9c-1.7-0.3-3.3-0.5-5-0.6
		c-1.2-0.1-2.4-0.2-3.5-0.3c-4-0.5-6.8-1.8-8.7-3.8c-2.2-2.4-3.2-6.6-0.8-9.4c1.3-1.4,3.1-2.3,5.1-2.5c-0.7-0.8-1-1.8-1-2.9
		c0.1-2,1.4-3.9,3.7-5.4c5.5-3.5,12.5-3.8,18.3-0.8c5.7,3.1,9.7,8.5,11,14.8l0,0c1.1,5.7,0.7,11.5-1.2,17c-0.5,1.7-1.7,3.1-3.4,3.8
		C468.5,257.3,467.7,257.4,466.9,257.4z M443.8,231.8c-2.3,0.1-4.6,0.5-5.9,2.1c-1.7,2.1-1,5.5,0.8,7.4s4.2,2.9,7.8,3.4
		c1.1,0.1,2.3,0.2,3.5,0.3c1.9,0.1,3.9,0.3,5.8,0.7c0.3,0.1,0.5,0.3,0.6,0.6c0.5,3.6,2.8,6.7,6.1,8.4c2.6,1.2,4.7,1.6,6.3,0.9
		c1.2-0.5,2.1-1.6,2.5-2.9c1.7-5.2,2.1-10.8,1.1-16.1l0,0c-1.2-5.9-5-10.9-10.2-13.8c-5.3-2.8-11.7-2.5-16.7,0.7
		c-1.1,0.7-2.9,2.3-3,4.3c0,0.9,0.4,1.8,1.2,2.4c0.1,0.1,0.3,0.2,0.5,0.3h1.5c0.4,0,0.7,0.3,0.7,0.6c0.1,0.4-0.1,0.7-0.5,0.8
		C445.1,232,444.4,232,443.8,231.8z"></path><path class="st2" d="M380.5,216.4c-0.1,0-0.2,0-0.3-0.1c-0.2-0.2-0.2-0.5-0.1-0.7c8.2-9.7,19.5-14.2,30.2-12
		c0.3,0.1,0.5,0.3,0.4,0.6s-0.3,0.5-0.6,0.4l0,0c-10.3-2.1-21.2,2.2-29.2,11.7C380.8,216.3,380.6,216.4,380.5,216.4z"></path><path class="st2" d="M466.3,236.6c-0.1,0-0.3-0.1-0.4-0.2c-5.7-6.4-14.9-8.5-22.8-5.2c-0.3,0.1-0.5,0-0.7-0.2
		c-0.1-0.3,0-0.5,0.3-0.7c8.3-3.5,18-1.3,24,5.4c0.2,0.2,0.1,0.5-0.1,0.7C466.5,236.5,466.4,236.6,466.3,236.6L466.3,236.6z"></path><path class="st2" d="M349,314.8c-12.8-3.6-24.5-13.1-28-25.9c-3.5-13,2.2-27.3,11.8-36.8s22.4-15,35.4-18.6
		c-1.9-4.2-2.7-8.8-2.1-13.4c-21.2,6.8-43.9,14.7-56.8,32.8c-7.9,11.1-11.2,25.4-8.4,38.7s12.1,25.2,24.5,30.7
		c9.5,4.2,20.1,4.6,30.5,4.3c9.6-0.2,19.3-1.1,28.3-4.2c2-0.7,4.1-1.7,5.3-3.5c5.2-8.5-12.6-3.1-15.4-2.8
		C365.8,317.4,357.2,316.9,349,314.8z"></path><path class="st2" d="M361.6,398.8c-10.4,4.9-19.9,12.2-25,22.6c-1.7,3.3-2.4,6.9-2.1,10.6c1,9.9,9.5,13,17.3,15.1
		c14.1,3.7,28.6,6,43.2,6.9l1.7-13.3c-12-0.3-24.1-0.8-35.8-3.8c-4.8-1.2-10.1-3.4-10.7-9c-0.2-1.8,0.2-3.6,1.1-5.2
		c2.1-4.2,6.2-6.5,10.2-8.5c8.9-4.5,18.3-7.9,27.9-10.4c3.3-0.8,6.6,1.2,7.4,4.5c0.1,0.6,0.2,1.2,0.2,1.8
		c-1.1,17.2,11.9,32.1,29.1,33.2c2.7,0.2,5.5,0,8.1-0.5l-0.6-7.6c-6,0-12-0.6-17.3-3.7c-3.6-2-6.3-5.2-7.6-9.1
		c-2.8-9.4,5.3-16.5,9-24.4c1-2,1.3-4.2,0.8-6.4c-1-3.9-4.3-4.6-7.3-4.7c-7.7-0.4-15.3,2.2-22.8,3.4
		C379,391.7,370.1,394.7,361.6,398.8z"></path><path class="st1" d="M400.1,472.3c1.1,1.5,2.6,2.7,4.4,3.5c1.8,0.8,3.8,0.5,5.3-0.8c1.5-1.5,1.5-4,1.2-6.2
		c-0.7-5.5-7.7-36.3-16.9-31.1C384,443.3,395.4,466.7,400.1,472.3z"></path><path class="st2" d="M406.6,477c-0.8,0-1.7-0.2-2.5-0.5c-1.8-0.8-3.4-2.1-4.6-3.7c-3.7-4.3-11.8-20-10-29.4c0.3-2.6,1.9-5,4.2-6.3
		c1.4-0.9,3.2-0.9,4.7-0.1c3.3,1.7,6.4,6.9,9.3,15.6c1.8,5.3,3.1,10.7,4,16.2c0.3,2.2,0.4,5-1.4,6.8C409.3,476.5,408,477,406.6,477z
		 M396.1,437.9c-0.6,0-1.2,0.2-1.7,0.5c-1.9,1.1-3.1,3.1-3.4,5.2c-1.6,8.6,6,23.8,9.7,28.2l0,0c1.1,1.4,2.5,2.5,4,3.3
		c1.5,0.7,3.2,0.4,4.5-0.6c1.3-1.3,1.2-3.7,1-5.6c-0.6-4.6-5.7-27.2-12.5-30.7C397.2,438,396.7,437.9,396.1,437.9L396.1,437.9z"></path><path class="st1" d="M426.6,429.2c-1.8,1.7-2.5,4.2-1.9,6.6c0.6,2.3,1.7,4.5,3.2,6.4c3.5,4.9,8.2,9.6,14.2,10.7
		c2.1,0.5,4.3,0.3,6.3-0.6c2-0.9,3.3-2.8,3.6-5c0.1-2.9-2.1-5.3-4.2-7.2C444.2,437,432.1,424.5,426.6,429.2z"></path><path class="st2" d="M444.5,454c-0.9,0-1.7-0.1-2.5-0.2c-5.2-1-10-4.6-14.6-11c-1.6-2-2.7-4.3-3.3-6.8c-0.6-2.7,0.2-5.4,2.1-7.3
		l0,0c5.4-4.6,15.7,5,20.6,9.6c0.6,0.5,1.1,1,1.5,1.4c2.3,2,4.7,4.6,4.5,7.8c-0.2,2.5-1.7,4.6-4,5.7C447.4,453.7,446,454,444.5,454z
		 M427.1,429.8L427.1,429.8c-1.6,1.5-2.2,3.8-1.6,5.9c0.6,2.2,1.6,4.3,3.1,6.1c4.4,6.1,8.9,9.5,13.7,10.5c2,0.4,4,0.3,5.9-0.5
		c1.8-0.8,3-2.5,3.1-4.4c0.1-2.6-1.9-4.8-4-6.6c-0.4-0.4-0.9-0.8-1.5-1.4C441.5,435.4,431.5,426,427.1,429.8L427.1,429.8z"></path><path class="st2" d="M404.3,472.5c-0.2,0-0.4-0.1-0.5-0.3l-7.3-20.1c-1.5-4.1-2.6-8.7,0-11.9c0.2-0.2,0.5-0.2,0.7-0.1c0,0,0,0,0,0
		c0.2,0.2,0.2,0.5,0.1,0.7c-2.3,2.9-1.2,7.1,0.2,11l7.3,20.1c0.1,0.3,0,0.5-0.3,0.6C404.4,472.5,404.3,472.5,404.3,472.5
		L404.3,472.5z"></path><path class="st2" d="M447.4,451h-0.1c-5.6-1.3-10.6-4.3-14.4-8.6c-1.5-1.6-2.6-3.4-3.3-5.5c-0.7-2.2-0.4-4.5,0.8-6.4
		c0.1-0.2,0.5-0.3,0.7-0.1c0,0,0,0,0,0c0.2,0.2,0.3,0.5,0.1,0.7c-1,1.7-1.3,3.7-0.7,5.5c0.6,1.9,1.7,3.7,3.1,5.1
		c3.7,4.1,8.5,7,13.9,8.3c0.3,0.1,0.4,0.3,0.4,0.6C447.8,450.9,447.6,451,447.4,451z"></path></g></svg>